<?xml version="1.0" encoding="UTF-8"?>
<svg id="Camada_1" data-name="Camada 1" xmlns="http://www.w3.org/2000/svg" viewBox="0 0 190.28 173.89">
  <defs>
    <style>
      .cls-1, .cls-2 {
        fill: #fff;
      }

      .cls-2 {
        stroke: #000;
        stroke-miterlimit: 10;
        stroke-width: .5px;
      }

      .cls-3 {
        fill: #1d1d1b;
        fill-rule: evenodd;
      }
    </style>
  </defs>
  <path class="cls-3" d="M95.14,4.19c45.7,0,82.75,37.05,82.75,82.75s-37.05,82.75-82.75,82.75S12.39,132.65,12.39,86.95,49.44,4.19,95.14,4.19"/>
  <g>
    <path class="cls-1" d="M72.28,84.39c-.47-.36-1.24-.22-1.41.07-.11.19-.35.43-.44,1.03.04.45.93.06,1.28-.08.31-.13.85-.81.58-1.02"/>
    <path class="cls-1" d="M73.76,82.37c-1.38-.22-2.02.39-2.46,1.5,1.07.36,2.28-.36,2.46-1.5"/>
    <path class="cls-1" d="M76.84,133.81c.11-.75-.19-1.01-.44-.91-.11.04-.18.25-.43.55-.77-.65-2.22-.69-2.97.18-.82.94,3.19.49,3.84.18"/>
    <path class="cls-1" d="M78.98,133.54c-.11-.98-.52-1.18-1.01-1.02-.56.19-.91.55-.46,1.06.26.3,1.31.28,1.47-.05"/>
    <path class="cls-1" d="M69.94,125.15c-.03.53.38.72.84.8-.53.34-.59.71-.57,1.09.02.5.14.82,1.01.69.1-1.26,0-2.41-.32-3.45-.6.2-.94.46-.96.87"/>
    <path class="cls-2" d="M124.39,39.28c-5.54-2.71-11.97-2.54-17.36.43-1.06.59-1.22,1.21-1.45,2.35-.35,1.74-2.41,2.75-4.14,2.68-2.25-.08-4.29.04-6.54-.44,2.26-.58,4.23.35,6.37-.49-.29-.59-.96-.32-1.36-.54-.3-.72,1.18-.85.63-1.56-.12-.15-.35-.09-.64-.41.31-.54.83-.37,1.15-.24.41.17.22,1.01.35,1.42.59.37,1.21-.79,1.16-1.33-.19-1.89-3.18-.86-3.75-1.53,1.22-.47,3.13-.7,4.19.3,1.07,1.01.51,2.64-.59,3.53,1.73.11,2.57-1.71,2.31-3.13-.31-1.67-1.49-1.76-2.85-1.73l-18.15.29c-1.28.02-2.62-.25-3.54.96-.95,1.25-.28,3.41,1.26,3.9.89.29,1.82.05,2.8.04l-.71-2.89c-.88-.06-1.38.02-2.1.05-.21-1.7,2.01.28,2.56-1.71-.16,1.7.5,1.15.46,1.51-.06.64.62.84.69,1.33.08.49-.43,1.05.02,1.38.3.23.67.44,1.17.41,1.69-.1,3.27.13,4.96.27.94.07,1.96-.54,2.79.31-.97.38-1.99-.05-3.06,0l-8.82.34c.34,4.83.4,9.4.12,14.11-.07,1.27-.47,2.49-1.2,3.5l-10.13,13.93c-2.46,3.38-4.81,6.68-6.38,10.58-1.02,2.55-.95,5.29-.93,8.04.06,6.14.22,11.99.87,18.1.91,8.59,2.11,16.92,3.6,25.4,11.07,5.59,38.3,5.35,48.59.52.83-.39,1.01-1.89,1.16-2.74l2.84-16.61c1.21-7.07,2.51-18.86,1.46-25.71l-1.13-7.37c-.37-2.38.09-4.18,1.56-5.97,5.24-6.43,8.25-4.19,11.45-12.42,2.07-5.33,2.2-11.1.71-16.61-1.5-5.53-5.29-9.73-10.4-12.23M129.19,47.32c.14.03.28.47.66.72.1.07.33-.04.44-.27,1.47.7,1.32,2.04,1.13,3.29-.09.56,1.62,6.97.51,6.85-.32-1.68,0-3.13-.56-4.62-.74-1.94-1.33-3.96-2.49-5.54.11-.17.23-.45.32-.43M126,44.08c-1.04-.13-1.83-.79-2.72-1.35,1.04.09,1.99.32,2.72,1.35M117.82,38.98c-.06.08-.35.2-.52.16-1.58-.31-2.93.15-4.38.38-2.43.37-4.38,1.29-6.72,2.22,1.44-2.58,12.56-3.97,11.62-2.76M116.81,40.41c-3.56.06-7.73,1.63-10.33,3.71-.2.16-.55.15-.73.05-1.5-.85,8.43-5.45,11.06-3.76M105.01,44.61c.58-.58.3,1.52-.35,1.74-.33-.55-.16-1.24.35-1.74M103.77,45.79l.2,3.87c.69-2.3,1.99-3.87,3.85-5.24,8.14-5.99,19.63-.12,21.97,6.37,1.64,4.55,1.72,13.05-.89,16.67-2.05,2.84-4.93,4.91-8.17,6.16-1.25.48-2.49.25-3.77.2l-2.51-.1c-2.25-2.02-3.96-4.24-6-6.38-4.59-4.83-6.13-11.45-4.57-17.59-.84.44-1.68-5.07-.11-3.96M113.34,96.86c-.61.08-1.26.68-1.69-.2l1.83-.44c1.72-.42,3.53-.29,5.42.34-1.9.67-3.59.05-5.56.31M118.55,105.89c-1.16.39-2.21.43-3.42-.03,1.14-.44,2.19-.5,3.42.03M117.75,109.95c-1.31.4-2.37.45-3.75.54,1.09-.83,2.39-.81,3.75-.54M111.74,130.77c.77.32,1.48-.22,2.12-.12-.3.61-2.01.38-2.31.81-1.29,1.85,2.46.16,2.87.66-.89.8-2.13.24-3.06.87l-.9.6c-.46.31-.72-.91-3.23-.28.53.48,1.13-.23,1.4.65-2.22.02-4.5.71-6.85-.3,1.32-.7,8.13-.7,8.55-1.16.18-.2.48-.8.23-.99-3.73-.72-5.85,1.62-7.8.4,1.91-.97,8-.24,8.26-1.35.07-.31.22-1.05-.22-1-1.15.12-2.19-.17-3.13.31-.13.12-.13.38-.19.44-.12.13-.4.21-.41-.04,0-.14-.08-.41.15-.55,2.27-1.39,3.73.73,4.57-1.78l.22.66c.3.91,2.04-.24,2.58.37-.75.32-1.56.21-2.48.44-.38.1-.68,1.22-.35,1.36M96.76,132.38c.07-.29.28-.45.52-.56l3.3.04c.01.24-.19.33-.44.54l-3.38-.02ZM98.63,133.88c-1.01.33-1.97-.03-2.97.45-.6,0-1.14.12-1.37-.57,1.55.08,2.88-.16,4.34.12M95.69,130.2c1.73-.44,3.28-.49,5.08.03-1.72.4-3.3.45-5.08-.03M95.48,127.86c.57-.82,1.27-.22,1.89-.2,1.37.41,2.7-.43,4.22.44-2.1.43-4.03.23-6.11-.23M93.98,125.64l6.56-.15c.5-.01.93-.41,1.14.27-1.21.53-6.81.54-7.7-.12M80.76,132.97c-1,.39-.16-.69-.96-3.61-.13-.49.03-.94.52-1.08-.17.98.42,4.69.44,4.68M78.35,116.14c1.02-.29,2-.21,3.16-.05-.78.7-2.13.69-3.16.05M78.09,113.76c-.2.5.28.96-.09,1.42-.45-1.94-.4-3.95-.65-6.07-.18-1.56-.51-3.01-.18-4.65.5.98.55,4.18.64,5.76.07,1.1.48,2.17.3,3.34,1.37-.01,2.55-.78,4.06-.01-1.39.58-2.67.09-4.08.22M80.55,104.23c-1.08-.57-.95-2.3-1.62-3.38-.89.66-.63,2.02-1.49,2.94-.5.53-2.38.32-2.78-.37-.62-1.08.09-2.55.58-3.53,2.26-4.59-1.48-6.43-.51-8.52.28-.61,2-.88,2.56-.5,1.19,1.16,1.28,3.04,2.22,4.58l1.28-4.78c.59-.49,2.28-.37,2.95.02.71.42.4,1.52.14,2.09l-1.94,4.33,2.36,6.1c-.89.86-2.66,1.59-3.76,1.02M74.6,122.89c.07.23.42.26.83.64l-2.29.05c-.45.01-.42,1.13.17,1.24.93.18,1.62-.52,2.29.28-.82.23-2.06.38-2.79-.08-1.1-.69.13-2.87-1.36-3.02-.12-.01-.21-.45-.07-.55,2.72.6,1.91-.52,4.33.4-.36.23-.62.08-.94.13-.38.07-.29.51-.17.91M67.56,98.16c.99-.79,3.19.64,3.05-.93-.11-1.24-1.91-.22-2.86-.42.38-1.21,1.77.21,2.57-.47.29-.25.2-.96.07-1.46-.13-.49-1.01-.24-1.57-.2-.62-.02-.62-.33,0-.32.46-.01.9.09,1.23-.02.4-.13.29-.79.26-1.21-.04-.53-.67-.27-1.19-.51l.95-.25c.3-.08.34-.71.29-.95-.09-.46-.76-.44-1.23-.42.38-.45,1-.11,1.19-.44.28-.49.49-1.37.01-1.58-.13-.06-.42.07-.51.09-.23.06-.24-.07-.21-.25.08-.39.97.09,1.37-.71.25-.5-.11-.46-.77-.7.38-.27.79-.16,1.05-.41.26-.25.61-1.16.24-1.19-.68-.06-1.15.06-1.46.29.05-.03-1.28,2.88-1.23,4.37,0,.1-.3.39-.39.34-1.09-.63,3.53-9.3,4.54-10.67,2.53-3.48,1.43-1.79,3.88-3.1.42-.23,1.1.35,1.36.6-1.59.15-2.87.6-3.68,1.97l2.84-.15-3.21.74c-.66.15-1.05.94-1.24,1.61l3.02-.12c.56-.02.55,1.1.34,1.55l-1.64,3.58c-.53,1.15-.27,2.21-.39,3.55-1.83-2.16,1.63-6,1.78-8.29-.64-.05-2.6,2.3-2.52,2.56.08.26.36.37.59.66-.68.09-1.04.15-1.47.73-.24.32-.17.72.29,1.17-.53.17-.72.27-.89.44-.15.15-.33.61.03.7.06-.04.91-.1.78.18-.21.46-1.36-.2-1.61,1.36-.08.5.22.62.89.87-.75.13-1.01.27-1.04.53-.04.41-.23.79.12,1.01.31.19.83-.35,1.05.28-.31.35-1.26-.11-1.28.42,0,.14.08,3.28.24,3.31l.97.17c-.48.46-1.12.2-1.15.79-.02.44.36.72.66.91-.13.22-.44.54-.46.76-.02.45.31.72.8.97.9-.07-5.98.89-4.71.14.61-.48,3.54.27,3.56-.85.03-1.72-2.64,0-3.31-1M79.51,70.67c1.87-.55,3.84-.45,5.78-.28l-2.56.38c-.69.1-1.36-.08-2.08.12-.26.83-.63,1.44-1.2,2.1.34.24.55-.1,1.15.19-.71.24-1.19.31-2.43.53l2.26-2.65c-.11-.39-.6-.01-.92-.38M85.97,55.4c-.04.24.99.39,1.06.07.21-.95-.05-2.07.85-2.99l.49,1.48c.47-.43.32-.91.65-1.01.32-.1.51.24.69.61.41.02.58-.55,1.11-.17-1.2,1.61-3.79.03-3.16,2.32-.74.11-1.44.16-2.33.47,0-1.09-.26-2.17.24-3.35.66-.43.3,3.15.39,2.57M89.67,65.44c-.24,0-.48-.32-.37-.43.13-.14.32-.5.54-.48.84.1,1.61-.41,2.43.02-1.08.5-2.14.04-2.6.89M92.19,68.61s-.03.02-.04.03c-.09-.12-.19-.23-.29-.34l.1-.06c.08.14.15.26.23.37M90.84,74.19c-.46-.05-.11-1.49.32-1.48.63.03.26,1.55-.32,1.48M88.97,59.98c.92-.75,2.19-.64,3.42-.61.46.62-2.6.62-3.42.61M86.48,66.29c-.07-.99.36-1.68,1-2.35.32.99-.14,1.85-1,2.35M87.9,71.06c.17-.16.54-.06.67-.04,1.33.25-.3,4.72-1.04,5.54-1.14-.72,1.83-3.65.82-5.09-1.43.93-2.56,1.85-3.64,3.05.39.56.99.27,1.66.17-.4.9-1.37-.18-3.11,1.19.21-.21-.16-.61-.02-.76.4-.46,1.13-.52,1.25-1.36-1.25-.17-2.37.11-3.51.33-.12-.12-.39-.32-.34-.51,1.49-.04,2.85.05,4.33-.24.39-.08,1.05-.72.72-.89-1.28-.63-4.61.69-3.13-.43.55-.42,3.14,1.04,5.34-.96M80.06,83.94c-.44.41-.46-.06-.7-.16-.18-.07-.35.37-.73.17.25-1.01.83-1.92,1.61-2.63.22.54-.18.94-.46,1.33-.34.48-.12.79.28,1.3M77.69,82.32c.1-1.95,1.08-3.6,2.23-5.33-.57,1.87-1.3,3.48-2.23,5.33M76.91,87.44c-.23.98-.93,1.61-1.57,2.4,0-.93.5-2.05,1.57-2.4M73.63,106.15c2.02.82-3.58,1.1-3.92.55-.52-.56,5.03-.1,3.92-.55M71.72,102.68c-.18.23-.02.87.14,1.07.3.38.71-.03,1.67.22-.98.32-2.13.46-3.31.31.32-.39.71-.22.95-.37.33-.21.19-.61.14-.93-.07-.42-.64-.23-1.09-.61,1.29.1,2.43-.57,3.89-.28-.66.5-1.65.39-2.37.59M71.36,101.64c-1.26.18-2.48.19-3.91,0,1.22-.37,2.6-.76,3.91,0M69.94,108.6l2.19-.03c.97-.02,1.98-.68,2.97.07.81.15-7.17.65-5.15-.04M71.59,112.4l3.19.34c-.27.38-.61.45-1.1.96-.11-.42-.41-.73-.97-.73l-2.22-.03c.17-.51.59-.59,1.1-.54M74.63,114.6c.19-.11.44.04.52.14.53.73-4.9.51-4.85.09,1.6-.48,2.9.6,4.33-.23M76.21,116.95c-1.55.29-3.14.03-4.88.14-1.54-1.12,4.13-.06,4.88-.14M72.65,119.67c1.41-.27,2.73-.19,4.09.49-1.56.35-2.76-.27-4.09-.49M84.62,79.2c1.28-.27,2.6-.26,3.88-.02-1.27.22-2.48.08-3.81.48-.54-.06-.63-.29-.07-.47M85.31,131.97c.23.02.23.66.54.79l3.55.32c-.56.25-3.77.28-4.31-.35-.17-.19-.2-.79.22-.75M87.2,108.41c.2-.16.31-.34.44-.36-.04-.71,1.22,5.8.17,4.22-.1-1.36-.11-2.68-.61-3.86M86.98,103.73c-1.22-1.55,2.41-5.64,2.63-6.85.14-1.36-3.03-5.25-2.12-6.16.62-.62,2.31-.58,2.95.07,1.12,1.14,1.33,2.62,2.21,4.13,1.09-1.44.72-3.18,1.57-4.55.55-.89,3.6-.29,3.79-.14.28.21.28.78.08,1.23l-2.32,5.07c-.32,1.43,3.28,5.95,2.93,6.86-.39,1-3.36,1.61-3.85.9-.94-1.37-1.08-3.2-2.32-4.5-1.27.93-1.88,2.65-2.96,3.88-.45.51-2.19.61-2.6.08M100.24,56.62c-.63.84.13,1.72.14,2.64l.02,1.82c-1.97.17-3.78.22-5.83.17.14-.6.59-.55,1.08-.55l4.22.05c.34,0-.01-.61-.09-.81-.37-.96-3.8.07-4.99-.45.54-.71,4.21.1,4.53-.52.92-1.8-4.28-.68-4.34-.72-1.35-1.01,1.99.01,1.52-1.07-.59-.15-1.08.12-1.7-.14,1.32-1.2,5.15.43,4.11-1.47-.7.12-1.6.62-2.2-.27l3.59-.03c-.28.38-.55.4-.58.64-.03.22.17.46.5.7M102.23,65.42c-.46.48-1.18-.1-1.07.61.77.52,1.41.23,2.22.48-.23.44-.71.06-1.21.31.65.86,1.55,1.24,1.95,2.54-.92-.31-1.69.02-2.95-.31.7-.34,1.41-.01,2.16-.16-.75-1.05-1.62-1.33-2.75-1.03.08-.57.53-.33.92-.65-.88-.9-4.72-3.32-5.37-1.71-.39.98,1.97,1.28,1.17,3.22l-1.09-1.71c-.33-.52-.87-.85-.78-1.49.2-1.37,1.44-.92,1.97-2,1.62.8,3.29.14,5.17.29-1.18.94-2.52.02-3.97.53,1.04.93,2.3,1.02,3.61,1.08M104.43,77.54c.85.41,1.28,1.19,1.16,2.03-.43-.21-.43-.53-.58-.69-.26-.3-.61,0-.97-.05-2.9-.3-2.51.81-3.16-.31l3.56-.04v-.94ZM111.09,80.37c1.27.36,2.27-.5,3.21.21l-2.79.26c-.96.09-1.87-.05-2.71.01.4-.49,1.41-.08,1.33-.58-.11-.66-.47-1.04-.7-1.27-.4-.38-1.18.39-1.57-.38,1.88,0,3.56-.25,5.54.03-1.09.91-2.11-.17-3.2.45.26.28.41,1.12.9,1.26M117.59,90.99c-1.53.28-2.91-.04-4.49-.07-.49.61.53,1.46-.41,1.9.12-3.73-1.37-6.39-3.17-9.52,2.44,1.62,2.78,4.66,3.35,7.3.17.78,2.94-.81,4.72.39M113.36,88.21c1.16-.07,2.33.02,3.58.17-.3.32-.75.42-1.07.57-.63-.44-1.55-.44-2.45-.31-.56,0-.6-.23-.05-.43M117.92,93.54l-3.67.02c-.24-.11-.46-.26-.52-.56h4.63c.02.25-.19.33-.44.54M118.83,95.21c-2,.4-3.84.45-5.91-.03,2-.44,3.82-.49,5.91.03M109.09,97.56c.67,1.5,1.95,2.96,1.88,4.78-.04,1-2.41,2.16-3.23,1.59-1.21-.85-1.07-2.58-1.84-3.91l-1.86,3.57c-.36.7-1.77.87-2.63.63-1.36-.38,1.06-4.93,1.52-5.68.4-.65.79-1.45.47-2.29l-2.25-5.94c1.05-.15,2.64-.69,3.4,0,1.26,1.15,1.01,3.02,2.06,4.51,1.64-1.95.74-4.83,2.77-5.17l-.58-2.4c.73.59,1,1.59,1.23,2.6.44.15,1.51-.02,1.67.41.47,2.97-3.26,5.83-2.62,7.27M111.53,104.79c.44,1.34.5,2.56-.03,3.98-.39-1.35-.44-2.57.03-3.98M107.06,105.59c-.09-.09-.28,3.8-.62,3.86-.15-.81-.45-4.86.62-3.86M96.47,121.58c1.53-.27,3.01-.08,4.67-.11.13,1.17-3.95.13-4.67.11M101.6,123.65c-1.23.48-2.47.28-3.67.16l-2.69-.28c.38-.85,1.06-.31,1.57-.22,1.59.3,3.04-.35,4.79.33M95.57,116.97c1.12-.31,2.2-.22,3.45-.05-.89.7-2.32.67-3.45.05M96.78,110.12c-.2-.59,2.21-.51,3.26-.32-.41.6-3.19.51-3.26.32M101.77,111.83c-1.21.94-2.56.77-3.88.29,1.39-.4,2.51-.31,3.88-.29M105.67,73.75c1.44-.29,2.75-.31,4.3,0-1.35.6-2.91.6-4.3,0M110.75,75.38c-.69.09-4.1.41-3.87-.4,1.42-.11,2.64-.09,3.87.4M106.35,82.57c.93.7-4.5.82-4.72.78.21.99.27,1.62.2,2.78.78-.27,1.48-.27,2.36-.15.61.08,1-.67,1.72-.24-.25.73-.78.26-1.43.52.34.54.57,1.21.37,1.82-.54-.53-.44-1.06-.54-1.85-1.15.15-2.21.27-3.48.14,1.77-.69-.62-3.04.71-3.24,1.62-.24,3.11-.59,4.8-.57M104.62,81.98c-.45-.16-.36-.57-.58-.99l-3.21-.1c.06-.7,3.83-.36,4.69-.18-.52.32-.9.58-.89,1.27M109.57,84.93c.91,1.34,1.64,3.03,1.11,4.82-.42-1.22-.22-2.46-.96-3.63-.21-.34-.31-.81-.15-1.19M108.79,82.41c-1.23-.65,5.5-1.44,4.73-.43-1.71.16-3.1-.08-4.73.43M112.23,77.14c-.53.49-3.49.11-5.43.49.09-.91,6.06-1.06,5.43-.49M105.8,66.4c.84,1.07,1.49,2.01,2.45,2.78.93,1.53,2.59,2.27,3.46,4.1-.61,0-7.78-6.12-5.91-6.88M95.41,62.88c.69-.74,1.71-.58,2.73-.46.75.09,1.48-.84,2.09.11l-4.82.35ZM94.28,54.03c2-.33,3.18-.58,5.53-.38-.23.76-4.54.52-5.53.38M97.7,114.84c-.17-.27.34-.61.69-.55,1.55.28,2.86-.24,4.44-.16-1.53.68-3.23.87-5.13.71M108.75,127.57c1.9-.53,3.65-.54,5.59-.71.19.22-.15.59-.34.71-2.47-.51-3.41.66-5.24,0M110.02,125.88c-.17-.86-.83-.58-1.41-1.06,2.42-.21,4.41.1,6.55-.63.16-.05.4.34.48.47-2.6.92-4.38-.1-5.62,1.23M110.73,123.1c.24-.53.11-.94.51-1.47.41.17.27.84.61.88.56.07,4.14.08,3.64-.23,1.87,1.19-4.2.7-4.77.81M111.75,121.32c1.47-.69,2.85-.38,4.17-.6-1.44,1.03-2.87.77-4.17.6M118.85,87.68c-.47-2.31-1.77-3.99-2.67-6.41,2.4,2.22,3.59,5.43,3.77,8.73-.24-.77-.93-1.49-1.1-2.32M116.83,86.81c-1.05.12-2.03.16-3.15-.14.23-.42.61-.21.86-.37l-.39-.57c-.15-.22.11-.39.36-.23.36.23.37.69.6.87.43.34,1.22-.14,1.72.43M115.82,84.72l-2.44.13c-.28.02-.49.24-.61.19-.13-.06-.39-.23-.4-.55,1.17.3,3.66-.55,3.79-.14.03.09-.21.36-.35.37M101.99,58.45c.16,2.38,1,4.41,2.54,6.61-1.06.18-1.09-1.1-1.51-1.76-2.53-4.01-2.57-8.52-1.61-13.18l.59,8.33ZM100.68,46.19c1.82,1.24-2.43,4.38-.51,6.11-1.74.25-3.54.36-5.61.11,1.51-.44,2.97,0,4.63-.23-.02-.7.27-1.44-.17-2.19-.28.79-.78,2.02-1.74,1.67-.16-.06.23-.47.24-.63,0-.2-.58-.31-.86-.19-.15.06.04.47-.12.56-.9.53-.84-.66-2.22.02-.2.1-.28-.46-.16-.64.48-.73,1.89.14,3.19-.6l-1.82-.46c.47-.19,1.1-.03,1.19-.56-1.06-.58-1.91-.12-2.96-.53,1.59-1.58,2.37.96,5.2-1.41.28.35.44.46.59.55.31.19.65-.09.67-.34.03-.45-.23-.73-.71-.69-1.58.13-3.06-.04-4.62-.05-.76,0-1.52.63-2.27-.07,1.25-.64,6.97-1.17,8.08-.42M88.52,46.88c.1.45.02.82-.01,1.12-.03.3.03.53.66.38.3-.07.39-.66.68-.66.35,0,.74-.19,1.1.27-1.13.55-2.2.89-3.5.88,1.15-.57-.2-1.86,1.07-1.99M86.88,45.52c.97.96-.54,5.34-.08,6.75.8-.38,1.22-.58,1.91-.83-.47-.58-1.02-.02-1.32-.57.28-.18,6.45-.87,5.68.28-1.99-.32-6.02,1.64-6.6,1.04-.19-.2-.38-.51-.22-.94.79-2.14-.4-3.98.64-5.73M84.36,46.36c.12-.35.18-.82.69-1.04,1.35,4.06-1.04,2.9,1.2,4.96-.76.13-1.09.11-1.27.64-.68-1.06-.3-2.18,0-3.33.09-.36-.76-.8-.62-1.22M85.35,57.53c-.24-.4-.75.07-1.42-.22,1.05-.5,2.16-.66,3.26-.79-.3.56-.77.27-1.08.43-.29.15-.39.35-.27.76.09.32.44.49.92.76-.3.45-.7.39-.98.66-.37-.45-.83-.25-1.46-.08-.59.13-.62-.64.04-.58.46.04.87.12.94-.07.1-.29.16-.71.06-.89M83.63,60.57l.56,1c.99.1,1.83-.85,2.88.01l-2.66.5c-.42.08-.73-.11-.85-.35-.18-.34-.45-.75.07-1.16M67.71,84.42l2.94-4.4,4.29-6.17c1.74-2.49,3.34-4.97,5.1-7.45.77-1.09,1.68-1.96,2.27-3.21.24-.5.75-.93,1.33-.47-.15.36-.78.43-.58,1.19l.37-.02c1.29-.36,2.4-.88,3.62-.32-1.02.57-.94,1.45-1.29,1.78-.47.44-1.86.51-1.8,1.59l.6.07c.14.02.22.15.03.27-.87.57-1.51-.45-2.06,1.43.92.33,1.73-.41,2.65.31l-4.09.2c.4-.51.82-.44,1-.89.17-.41.11-.74-.37-.96.82-.22,1.6-.42,1.52-1.37-.03-.35-.69-.13-.83-.45,1.16-.12,2.35-.4,2.54-1.76l-1.52.1c-.12.03-.24.07-.36.1,0-.03,0-.05-.02-.07h-.2c-1.39.1-1.61,2.21-2.35,3.32-1.8,2.71-3.66,5.22-5.65,7.79-1.75,2.25-3.43,4.34-4.96,6.77-1.1,1.74-2.1,3.44-3.47,4.96.26-.87.8-1.62,1.27-2.33M67.22,122.01c-.97-6.67-1.58-13.19-1.76-19.96-.12-4.3-.37-8.43.84-12.71-.19,7.83-.09,15.48.56,23.33l1.1,13.26c-1.12-1.15-.49-2.59-.74-3.92M68.3,113.43c.17.49.23.74.46.87.72.41,1.46-1.22,1.63,0-.87-.14-1.82.26-2.03,1.26-.37-.63-.42-1.44-.05-2.13M82.23,139.66c.44-.67,1.4.05,1.24-1.1-1.31.74-2.37.99-3.7.67-.57-.14-1.16.44-1.74-.05.75-.71,1.71-.21,2.37-1.01-1.52-.19-2.69.57-3.89.88,1.17.8,2.23.49,3.39,1.04-1.29.45-2.41-.26-3.67-.32-2.39-.12-4.66-.53-6.66-1.83-.36-.23-.6-.49-.66-.8-.08-.46.3-.82.44-1.27.19-.56-.55-.9-.65-1.39-.37-1.86-.8-3.83-.25-5.71.75,1.89-.05,3.83,1.11,5.32.7.91,1.29,1.72.42,3.05,1.24.03,1.9-.4,2.48-1.06-.51-.33-.87-.27-1.23-.39.16-.28.3-.53.19-.8-.13-.33-.54-.12-.99-.42.69-.41,1.4-.62,2-1.14-.75-.6-1.22,0-2.05.2-.04-.49.27-.84.08-1.45-.46-.18-.72.49-1.21-.04.7-.12,1.11-.6.96-1.31-.07-.34-.31-.55-.94-.46.27-.39.49-.53.62-.77.19-.35-.29-.7-.26-1.02.21-2.08-.49-3.83-.34-6.22.32-.15.79-.19.98-.29.32-.17.02-1.71-.48-1.73-.26,0-.44.25-.63.8-.46-1-.53-1.94-.53-3.2.63.18,1.23-.23,1.74-.36,1.33.85-1.31.05-1.27,1.1.02.6-.03,1.41.88,1.36l.33-1.41c.4.57,1.21,7.1,1.13,6.94.24.46.71.32,1.23.48-.23.29-1.02.17-1.02.66,0,.75.19,1.46.28,2.26.04.41.6.26.81.24.39-.05.52-.48.45-.83-.08-.38-.5-.47-.99-.62.28-.36.73-.47,1.27-.39-.27.83-.11,1.62.69,1.91-.43.43-.54,1.24-.26,1.38,2.19,1.11-.02-3.91,1.01-4.11.12,1.16.68,5.16.98,5.78.07.14.66.28.65-.06l-.21-4.17.9,4.17c3.05.87,0-2.76.56-4.84l1.41,4.81c.12.41-.2,1.05-.02,1.25.72.81,3.3-.66,2.77.27-.22.38-4,.05-5.3.77,1.79.81,3.68-.14,5.56.02,1.2.1,2.26-.08,3.33.1l-6.08.47c-.84.07-1.98,0-2.79-.16-.16-.03-3.36-1.46-3.53.62-.5-.5-.57-1.03-.5-1.59-.29-.04-.47,0-.67.15-.08.06.3,1.63.3,1.63,1.12.73,1.66-.38,3.13-.6l.27.73,7.93-.56c3.09-.22,5.98-.26,9.06-.09,1.18.06,2.35.36,3.53.32l4.41-.14c1.37-.04,2.68-.08,4.1-.22l7.09-.7c.76-.08,1.15.12,1.74,1,1.5-1.91,1.43-4.14,1.91-6.33.73.96-.01,1.87-.19,2.82-.29,1.55-.2,4.14-1.71,4.44-.67.13-1.29-1.63-2.17-1.48-2.77.5-5.32.73-8.11.51-.56.05-.55.18.04.52-1.03.14-2.09,0-3.27,0l-5.42-.02c-1.6,0-2.86-.2-4.46-.12l-11.72.59c-.22.01-.5,0-.53.11-.04.18-.44.65-.13.61.5-.38,4.31,1.23,2.29-.47,1.77-.02,3.52-.18,5.5.02-1.5.83-4.1-.39-3.61.89.15.38.7-.02.94.09.78.37,1.42-.27,2.07-.37,1.36-.21,2.51-.29,3.88-.78-.91,1.56-3.43.86-5.34,2.21,1.39.55,2.37-.25,3.68-.03-.98.62-4.25,1.48-4.98,1.05M102.21,136.34c4.57.05,2.74-.87,6.5-.47.75.6,1.59-.35,2.38.2-1.26.17-8.43,1.13-8.87.27M105.24,137.59l5.28-.34c1.37.27-6.94,1.31-5.28.34M97.33,137.35c.28.98-5,.35-5.77.27-.55-.06-1.02.52-1.66.11.4-.03.99-.71,1.39-.63.98.36,1.56.09,2.4,0,1.34-.16,10.18-.83,10.45.65-.35.95-5.37,1.9-5.93,1.15l4.56-.96c-1.63-.67-3.52-.61-5.43-.59M95.93,138.84c-2.53,1.18-2.73.31-4.92.95.63-1.21,1.89-1.45,3.18-1.38-.23.28-.64.12-.73.55.86.16,1.37-.51,2.48-.11M90.56,139.22c-.54.38-.87.38-1.32.48-.29.07-.35-.51-.58-.62-.74-.07-1.37,1-2.21.46l2.35-.88c.62-.23,1.28.46,1.75.56M103.59,140.21c-4.23.76-13.24,1.89-17.26.23,1.24-.78,2.6-.22,3.95-.14,3.56.2,7.02-.17,10.59-.32,2.06-.08,3.97-.13,6.05-.41-.92.81-2.14.43-3.32.64M116.11,137.29c-.23,1-1.25,1.42-2.14,1.5-1.96-.07-3.62.44-5.7.75,2.05-1.94,6.38-.76,6.98-2.96.89-3.27,1.23-6.53,2.29-9.74.17,3.66-.66,7.04-1.43,10.45M117.2,118.45c-1.52.09-3.08.78-4.79.34-1.24-.07,7.18-1.45,4.79-.34M113.69,116.67c1.15-.2,2.17-.78,3.68-.45-1.08.82-2.35.67-3.68.45M114.42,112.73c-.6.06-.59-.74.03-.58,1.26,0,2.25-.61,3.39-.16-1.08.62-2.16.37-3.41.73M114.85,108.29c1.39-.4,2.51-.31,3.88-.29-1.21.94-2.56.77-3.88.29M121.23,98.18c.4,3.2.07,6.13-.27,9.26-.35,3.24-.13,6.47-1.06,9.63-.9,3.05-.66,4.91-1.6,7.89-.39-2.02.39-3.8.71-5.72.52-3.16,1.16-6.28,1.3-9.52l.27-6.32c.14-3.34.03-6.47-.57-10.03,1.42,1.27,1.03,3.21,1.23,4.82M122.47,78.29c-.79.15-1.43-.32-2.22-.03.03.86,1.28,2.16.68,3.16-.13.22-.49.57-.86.43-2.21-.85-2.08-4.16-4.49-6.07,2.25,0,3.15,4.1,4.17,4.36-.15-.88-.82-1.71-.18-2.36.77-.77,3.26-.21,3.29-.17.12.18.04.6-.39.69M125.81,73.83c-1.3.94-2.83.94-4.24,1.57-1.22.54-2.29,1.27-3.64.34.2-.84,1.24-.19,1.55-.41,1.37-.96,2.79-1.01,4.27-1.62,3.04-1.25,5.24-4.17,6.71-7.01.37-.72.09-1.61.97-2.09-.42,3.7-2.56,7.01-5.62,9.22M132.85,62.49c-.01-.66.77-.56.55.19-.37,1.64-.38,3.2-1.51,4.48-.02-1.68,1.13-2.87.96-4.67M133.13,67c.92-2.69,1.24-5.24,1.09-8.29,1.09.73.04,7.44-1.09,8.29"/>
    <path class="cls-1" d="M73.86,121.97c-.23-.13-.91-.23-1.09.22-.26.62.09,1.01.36,1.04.36.03.91.07,1.01-.26.12-.38,0-.83-.27-1"/>
    <path class="cls-1" d="M139.23,48.4c-1.84-5.39-5.42-9.68-10.62-12.76-3.83-2.27-8.15-3.46-12.49-3.46-3.29,0-6.56.69-9.61,2,.09-1.64-.09-3.41-.83-5.22l-2.81-2.46c-1.06-.27-2.14-.4-3.41-.4-.7,0-1.37.04-2.02.08l-.36.02c-4.72.26-9.7.85-15.66,1.84-1.28.21-2.37.93-3.09,2.02-.96,1.47-.96,3.21-.67,4.96-.03.02-.05.03-.08.05-3.15,2.17-3.02,5.7-2.96,7.21.08,2.32,1.52,3.86,2.47,4.76.41,3.05.28,6.28.15,9.68-.03.65-.05,1.29-.07,1.93,0,.11-.01.33-.34.79l-8.19,11.23c-2.98,4.09-5.17,7.37-7.11,10.65-2.08,3.51-3.07,7.44-3.03,12.02.06,7.28.25,15.11,1.22,23.1,1.06,8.74,2.16,16.2,3.44,23.47l2.28,3.02c6.36,3.1,16.41,4.88,27.58,4.88,10.51,0,20.13-1.56,26.4-4.29l1.82-1.53c1.18-1.79,1.67-3.98,1.98-5.89l2.75-16.42c1.37-8.18,2.79-16.64,1.51-25.23l-1.35-9.07c-.05-.37-.09-.61.47-1.36,1.65-2.2,2.94-3.03,4.43-3.99,2.37-1.53,5.06-3.27,7.48-9,3.02-7.14,3.28-15.17.73-22.61M134.66,69.38c-3.38,7.99-6.54,5.62-11.4,12.11-1.03,1.37-1.52,2.72-1.26,4.48l1.35,9.07c1.23,8.25-.28,16.61-1.66,24.87l-2.59,15.48c-.24,1.42-.59,3.12-1.36,4.28-12.16,5.29-38.37,5.39-50.48-.51-1.39-7.81-2.46-15.38-3.41-23.25-.92-7.61-1.13-14.98-1.19-22.64-.03-3.56.65-6.82,2.45-9.86,2.13-3.6,4.42-6.92,6.89-10.32l8.19-11.23c.65-.9,1.1-1.91,1.14-3.1.16-4.59.51-9.24-.34-13.73-.7-.89-2.16-1.74-2.2-2.92-.05-1.35-.04-2.8,1.17-3.63.7-.49,1.7-.43,2.56-.84-.04-.71-1.6-5.31-.42-5.51,5.07-.84,10.05-1.5,15.2-1.79,1.57-.09,3.02-.21,4.52.18.88,2.15.6,4.33-.14,6.83,1.64.13,2.99.38,3.93,1.97,6.52-3.96,14.35-3.97,20.88-.11,4.12,2.44,7.22,5.91,8.8,10.52,2.19,6.4,2.01,13.39-.63,19.64"/>
    <path class="cls-1" d="M85.34,35.12c-.44-.44-.71.25-.98.67-.13.21.31.4.24.85-.47.23-.68.68-.46,1,.15.22.58.33.76-.01.08-.15-.04-.45.11-.54.4-.25.78.91,1.21.73.24-.1.21-.58.5-.79.43-.31.49.63.74.75.58.29,1.74.02,2.32-.17-.21-.7-.71-.35-.8-.83,2-.1,1.92,2.25,3.04.34.14-.23.6-.16.73-.04.09.08-.15.5.02.58.78.39,1.87.26,2.63.05-.29-.46-.43-.62-.28-.71.19-.11.59-.22.82.03.16.18.02.37.04.5.17,1.22.92-.81,1.56-.38.48.33.02.89,3.07.56.56-2.15,1.07-4.28.39-6.36-2.9-.2-5.54.09-8.16.4.07.4.21.57.12.64-.15.11-.33.11-.38.02-.05-.09-.11-.31-.16-.52-.79-.25-1.57.12-2.48.09-.01.63.17,1.15.03,1.73-.79-.19-.02-1.5-1-1.58-.62-.05-.52,1.12-1.09,1.03-.2-.03-.42-.22-.57-.47-.21-.35-.7-.34-.96-.08-.15.15.32.52.14.85-.24.44-.67.8-.76,1.16-.12.45.2.75.4,1.19-.68.35-.49-.4-.79-.69M100.21,33.07c.16.65.54,1.4.3,2.19-.25.18-.5-.13-.27-.83-.33-.5-.71.09-1.15-.23.24-.6.78-.54,1.12-1.13M94.92,34.19c.32-.41,1.05.36,1.08.72.03.39-.52,1.27-1.04.86-.27-.21.23-.53.28-.68.08-.23-.52-.65-.32-.9M90.96,34.16c.87-.06.6-.97,1.58-1.27.49-.36-1.29,2.33-1.6,1.72-.05-.09-.09-.45.02-.46"/>
    <path class="cls-1" d="M85.02,34.33c.38-.35.82-.65.49-1.33-.77.82-1.8.71-2.59.02-.99.99,1.94,1.46,2.1,1.31"/>
    <path class="cls-1" d="M109.17,66.62l5.58,6.16,4.24.21c3.63.18,7.81-3.41,9.51-7.1,2.19-4.76,1.99-10.72-.05-15.43-1.48-3.41-4.77-5.32-8.04-6.63-5.16-2.06-11.24-.69-14.39,4.01-2.01,3-2.01,6.9-1.32,10.28.68,3.34,2.25,6.04,4.48,8.5M109.48,50.16c1.32-1.97,3.55-3.1,6.12-3.1,1.11,0,2.21.21,3.26.63,3.17,1.27,5,2.67,5.76,4.42,1.66,3.81,1.69,8.53.09,12.02-1.19,2.59-3.96,4.67-5.51,4.67l-2.52-.12-4.42-4.88c-1.89-2.09-3-4.16-3.48-6.53-.35-1.74-.73-4.99.7-7.13"/>
  </g>
</svg>