<?xml version="1.0" encoding="UTF-8"?>
<svg id="Camada_1" data-name="Camada 1" xmlns="http://www.w3.org/2000/svg" viewBox="0 0 190.28 173.89">
  <defs>
    <style>
      .cls-1 {
        fill: #1d1d1b;
        fill-rule: evenodd;
      }
    </style>
  </defs>
  <path class="cls-1" d="M61.15,44.74c1.52.88,2.97,1.72,4.61,2.46l-2.59-1.65c-.75-.2-1.23-.81-2.02-.82Z"/>
  <path class="cls-1" d="M88.35,63.9c-.47.41-2.96,1.35-2.89,1.62.03.1.2.21.34.13l3.97-2.13c-.67-.22-.96.25-1.42.37Z"/>
  <path class="cls-1" d="M66.14,72.99c-.02-.61.31-.69.63-.91.41-.31.06-.86-.25-.99-.35-.16-.79-.07-1.06.33-.52.76-.27,1.95.36,2.64.51.56,1.48.91,1.12,1.51-.18.31-.48.13-.79.1-.18-.01-.2.51-.06.66.72.79,1.43-.2,1.94,1.94.45-.59.14-1.23-.21-1.74-.25-.36-.5-.39-.93-.36.35-.42.54-.73.46-1.22-.06-.37-.29-.64-.68-.9-.83-.53-1.35-1.87-.38-2.46.04.55-.51.92-.16,1.4Z"/>
  <path class="cls-1" d="M146.11,99.87c-.35-1.56-.86-2.91-1.51-4.34-.54-1.17-1.58-3.9-.49-4.83.64-.54,1.83-.02,2.41-.81.28-.38.45-.9.23-1.35-.14-.29-.52-.43-.82-.52-1.77-.56-3.39-1.31-4.87-2.43-1.34-1.02-2.7-1.89-4.12-2.78-.53-.33-1.07-.69-1.47-1.16-.39-.47-.91-.65-1.35-1.04-1.98-1.75-4.16-3.11-6.28-4.67l-2.03-1.49c.2-1.19.85-.98.42-2.57,1,.38,1.83.39,2.58-.13.75-.51,1.16-1.31.99-2.34.22-.15.59.03.8-.18.57-.58.58-1.56.21-2.27-.37-.7-1.21-.96-1.91-.58-1.01.55-1.31,1.78-.79,2.84.05.34.27.16.3-.12-.13-.89.05-1.9.98-2.25.49-.19.96.23,1.12.62.17.41.22,1.05-.3,1.28-.36.16-.44-.34-.52-.66-.7.21-.57,1.02-.55,1.63.05,1.07-.97,1.71-1.93,1.59-1.82-.24-1.55-.9-2.76-.99.03.45.48.43.64.72.29.53.3,1.16.52,1.71-.9,1.06-.95,3.54,0,3.38.3-.05.05-.58.06-.81,1.01.38,1.66,1.14,2.48,1.76,1.38,1.04,2.69,2.07,3.68,3.5.79,1.14,1.63,2.18,2.27,3.41.21.4.59.67.9.91-.67,1.22,1.74.25,1.78,1.99.02.55-.47,1.08-.87,1.21-.52.17-1.2.02-1.55-.38-.44-.5-.61-.49-1.24-.37-.91.18-2.06-.14-2.92-.6-2.39-1.29-4.59-2.69-6.91-4.09l-5.24-3.15c.57-.05,1.29.13,1.6-.41.53-.91-.3-2.2-1.29-2.33-.47-.06-.65.29-.76.61-.1.29.07.56.28.88.15.22.38.34.6.17.13-.1.27-.36,0-.47-.19-.07-.36-.08-.34-.25.02-.12.05-.21.13-.24.27-.11.86.37.95.9.04.24-.07.42-.28.54-.09.05-.22-.13-.35-.15-.57.18-1.14-.15-1.41-.71l-1.09-2.3c-.07-.14.06-.39.12-.46.07-.08.27-.04.33.09.03.05.09.12.13.25.04.14.21.17.29.04.24-.42-.03-.87-.5-.98-.89-.2-.9.88-1.16.46.09-.18.06-.24,0-.27-.09-.04-.23.02-.29-.02-2.12-1.16-2.26-.6-4.04-1.5l.77-.44c.2-.36-.13-.75-.37-.88-.31-.16-.81-.18-1.04.07-.33.34-.13.77-.1,1.18.02.2-.45.32-.53.19l-.31-.5c-.21-.35-.76-.35-.58-.92.03-.1.1-.25.16-.22.07.04.1.15.13.3.13.17.2-.03.17-.23-.18-.28-.61-.37-.89-.18-.18.12-.28.46-.24.78.1.77.8,1.18,1.38,1.61,0,.26.11.39.22.07,1.75.73,2.01.03,3.25.49-.52.55-.45,1.17-.26,1.85l-8.85-5.06c-.69-.4.59-.03,1.15-.55.43-.39.49-1.02.25-1.56-.17-.39-.61-.67-1.2-.84.51-.91,2.17.67,2.6,1.12.4.42.86.54,1.4.57-.29.16-.36.21-.44.44-.07.2-.5.41-.63.21-.19-.26-.25-.54-.56-.59-.18-.03-.42-.05-.6.14,1.11.16.65,1.39,1.22,2.17.3-.27.13-.71.37-1.01.56-.72,1.52-.78,2.45-.47.01-.36-.39-.35-.68-.43-.32-.03-.29-.25.02-.26.31.1.37-.06.06-.12-.65-.08.32-.37.17-1-.03-.12-.13-.38-.33-.35-.24.04-.22.44-.36.57-.76.77-2.78-.61-2.71-1.74.53.14,1.07.33,1.56.6.71.39,1.33.2,2.05.26,2.42.22,4.05,2.23,4.98,1.78.19-.09.26-.42.43-.69.18-.27.5-.19.7-.05.73.5-.07,1.54,1.36,3.14-.92-.32-1.54-.89-2.37-1.27-.17-.08-2.56-1.31-2.55-.88,0,.04.05.18.12.22,2.39,1.25,4.65,2.6,6.98,3.98.32.19.82.54,1.17.5.5-.1.25-.81.02-1.11-.51-.69-1.25-.94-2.06-1.36.17-.14.51-.49.76-.4l1.43.56c-.48-.28-1.03-.44-1.44-.98.5-.03,2.77,1.26,2.68,1.53-.02.07-.11.22-.18.2-.08-.03-.12-.34-.39-.26-.04.22.33.26.33.55-.51.64-.65,1.46-.04,2.09.36-2.01,2.15-3.41,1.1-5.42-.16-.31-.49-.43-.79-.65.52-.06,1.08.19,1.19.74.16-.41.41-.51.31-.74-.43-.99-2.17-.75-2.98.09-.72-.06-1.97-1.9-1.95-2.01.12-.69,2.45-.66,3.69.01l2.39,1.29c.7.38,1.24.97,2,1.24.67.24,1.53.04,1.59-.69-.01-.12-.09-.11-.19-.02-.47.4-1.27.27-1.78-.13-.83-.67-1.71-1.11-2.62-1.62-1.6-.91-3.19-1.38-5.07-1.04-.3.05-.85-.35-.97.26-.11.56.3.98.71,1.45-.4.1-.43-.4-.82-.4-.34.43.66,1.9,1.26,1.79.13-.02.24-.21.36-.33,1.99,1.66,1.96.04,2.7.36.82.36.89,1.51.43,2.34-.71-.28-3.27-2.05-3.69-1.71-.16.13-.05.47-.22.64-.23.1-.42-.44-.41-.68.05-.94-.66-1.26-1.31-1.65-.73-.44-1.28-.54-2.02-.25-.86-.25-1.69-.94-2.54-1.31-1.65-.72-3.2-1.5-4.73-2.47,2.09-1.33,2.62-1.55,2.46-4.18l10.04-5.61c1.62-.91,3.21-1.64,4.86-2.44l3.05-1.49c.47-.23.78-.64,1.24-.88,2.56-1.34,5.04-2.68,7.53-4.17,1.3-.78,3.6-.95,3.83-2.52.08-.58-.32-1.1-.58-1.59,1.29-1.57-1.17-5.65-1.97-5.73-.23-.03-.48.11-.75.22-.19-.16-.16-.53-.39-.64-.32-.16-.63.11-1,.22-.04-.54-.27-.98-.74-1.2-.44-.21-.96-.27-1.45-.02-2.27,1.16-.53,3.58-3.73,4.68-.19-.19,0-.54-.19-.63-.6-.25-1.06.24-1.32.61-.31.46-.13,1.02.05,1.5-.72.58-1.69,1.01-2.58,1.49l-10.26,5.56-10.84,5.87-9.22,4.86-6.84-3.41c-.98-.4-1.81-1.01-2.76-1.48-1.79-.88-3.42-1.77-5.2-2.73l-18.49-10.07c.49-.91.21-1.89-.7-2.25-.2-.08-.51-.04-.63.13-.06.09.02.25-.07.52-1.09-.23-2.08-1.24-2.28-2.41-.16-.93-.56-1.75-1.39-2.21-.53-.29-1.08-.26-1.56-.01-.46.24-.62.68-.71,1.27-.42-.21-.69-.41-1.05-.31-.13.23-.08.51-.31.65-.26-.06-.73-.37-.98-.14-1.31,1.16-2.73,4.08-1.76,5.64-.2.55-.73.97-.56,1.65.11.44.4.99.96,1.24l2.94,1.28c.6.26,8.47,4.91,8.73,5.04l2.98,1.47c1.55.76,3.08,1.43,4.59,2.27l7.44,4.15,2.93,1.69c-.06,2.88.43,2.63,2.45,4.2-1.32.65-2.41,1.36-3.67,1.86-1.23.49-2.32,1.4-3.6,1.77-1.04-.43-3.41.64-3.34,2.07.01.2-.27.69-.47.54-.13-.1-.1-.72-.35-.66-1.27.31-2.24,1.11-3.47,1.78-.5-.5-.48-2.2.47-2.36.2-.03.38.06.55.2.85.68,1.55-.39,2.21-.6.06.22.26.53.49.38.46-.29,1.4-1.38.98-1.74-.32-.27-1.07,1.13-1.24.93.23-.58,1.65-1.49.97-2.29-.24-.28-.61.08-.84.03-1.8-.37-3.36.08-4.9.95-1,.57-1.98,1.02-2.9,1.75-.52.41-1.44.49-1.8-.21-.16.27.08.58.24.76.52.59,1.8.1,2.5-.44.74-.57,1.49-.95,2.32-1.4,1.18-.64,2.47-1.21,3.84-.92.41.09.67.17,1.15-.05-.76.92-1.41,2.27-2.44,2.41-.23.03-.36-.31-.62-.42-.46-.2-.99-.33-1.4-.36.03.19-1.2.63-.87,1.1.32.45.82-.53,1.3-.29-1.02.77-1.18,2.3-.54,3.42.5.86.76,1.69,1.04,2.7.68-.98.13-1.86-.35-2.74.81-.62,1.69-1.15,2.7-1.51-.26.64-.96.49-1.34,1.04.19.31,1.45-1.27,1.61-.36-.38.13-.71.38-1.02.65.22,0,.38-.13.52,0-.54.4-1.91,1.37-1.23,1.99.16.14.42.09.67-.06l7.91-4.61c-.94-.43-4.54,2.15-4.44,1.63l.04-.23c.12-.67.38-1.23.42-1.91.02-.29.27-.48.46-.53.19-.05.46-.11.57.13.12.26.2.52.37.6.25.12.52.16.78.02l2.29-1.2c1.05-.55,2.03-.54,3.15-.61,1.1-.07,2.05-.86,3.02-1.18.05.19.02.33.23.23,1.05-1.18,2.42-1.78,3.81-2.48l4.18-2.13c-.02.41-.61.55-.76.84-.27.54-.62.7-1.06,1.03-1.2.88-1.84,2.23-2.23,3.75-.45-.29.13-.69-.17-1.09-.16.24-.11.78-.45.8-.22.01-.27-.32-.2-.46.61-1.19,1.47-2.07,2.49-2.93-.07-.2-2.36,1.35-2.32,1.41-.64.23-1.12.48-1.4,1.26-.22-.1-.18-.29-.25-.29-.13,0-.27.17-.44,0,.5-.4,1.08-.65,1.5-1.22-.68-.08-.91.55-1.34.84-.4.27-2.5,1.69-2.67,1.9-.5.63-1.45.97-2.23.83-.29-.05-.16-.62-.31-.72-.17-.11-.36.09-.39.21-.03.13-.06.35,0,.49.24.59.81.49,1.45.68l-1.84.45c.4.23.85.06,1.29.13.86.14,1.39.82,1.31,1.68.95-.36-.09-1.39,1.34-2.24-1.1-.62-.83,1.27-1.83.2,1.43-1.04,2.77-3.29,4.91-2.17.7.37,1.01,1.12.67,1.8-.17-.29.03-.75-.19-.93l-1.21-.49c-.61-.25-1.24-.04-1.62.53-.25.37-.3,1,.13,1.54.27.34.79.42,1.4.48l-7.4,4.27c-.41.24-1.11.57-1.44.14-.21-.28-.06-.81-.43-1.03.64-.51,1.49.21,2.61-.35.24-.12.51,0,.7,0,.19-.6,2.13-1.26,1.41-2.47-.19-.31-.81-.25-1.04-.19.21.16.37.1.45.2.21.25.14,1-.8,1.49-.3.15-.5.71-.92.34.4-.38.52-.81.43-1.12-.12-.45-.6-.77-.89-.69-.43.13-.92.4-.85.88.04.26.61.48.79.41-.18-.26-.28-.48-.15-.62.12-.13.28-.14.37-.08.13.09.24.26.17.47-.32,1-2.27.7-4.39,1.95-.12.07-.26.5-.4.3-.24-.35-.46-.63-.87-.6-.26.02-.66.27-.74.61-.05.23-.08.6.33.7.01-.22.14-.83.44-.66.39.22.03.88-.12,1.19l-.78,1.6c-.3.61-1.32,1.24-1.93.62-.37-.38.37-1.34.84-1.16.27.1.17.32.06.45-.06.07-.26.02-.37.07-.09.29.3.49.57.43.3-.07.36-.28.44-.63.09-.42-.06-1.06-.65-1.04-.96.04-1.82,1.15-1.51,2.11.23.7,1.21.79,1.77.42.39-.26.98-.54,1.12-.86.4-.93.92-1.58,1.47-2.49.42.33.72.73.91,1.21.27-.14.54-.29.69-.07-2.16,1.46-4.33,2.47-6.5,3.75l-9.83,5.82c-1.9,1.13-3.68.55-3.66.54-.28.14-.94,1.09-1.91.91-.41-.08-1.01-.45-1.11-.99-.28-1.53,1.72-1.48,1.92-1.72.07-.09-.13-.36-.08-.47.24-.33.67-.51.86-.93.59-1.24,1.36-2.29,2.17-3.38,1.03-1.4,2.3-2.49,3.67-3.54.84-.64,1.54-1.36,2.52-1.83.02.25-.13.73.11.82,1.51-.36.35-2.71.18-3.26-.16-.53.12-1.39.44-1.83.2-.27.78-.47.48-.81-.3-.05-.71.27-.97.46-.83.6-1.92.89-2.85.46-.66-.31-.78-.95-.7-1.55.01-.12-.02-1.47-.53-1.47-.34,0-.08.67-.44.66-.14,0-.31,0-.42-.21-.31-.61-.02-1.71.81-1.72.74,0,1.24.9,1.26,1.55.01.4-.11.68.1,1.07.6-.93.53-2.17-.4-2.92-.53-.43-1.42-.48-1.89.09-.54.65-.6,1.63-.24,2.36.17.35.58.38.98.38-.14,1.06.25,1.88,1.12,2.42.74.47,1.58.49,2.57,0-.68,1.66.61,2.18.23,2.77-.08.12-3.18,2.17-3.66,2.47-1.62,1.03-2.97,2.35-4.49,3.51-2.1,1.6-.99,1.09-3.5,2.65-3.31,2.05-4.52,3.67-8.39,4.82-.29.09-.66.23-.79.51-.22.49-.03,1.05.3,1.42.67.76,1.85.09,2.5.89.79.97-.13,3.56-.64,4.7-.75,1.67-1.32,3.26-1.7,5.07-1.25,5.94-1.01,11.93.41,17.81.58,2.41,1.24,3,1.38,5.37.03.46-.93,1.8-.4,2.14.41.26,1.64-.35,2.07.07,1.63,1.59,1.32-.74,3.41.11,1.16.47,2.38.29,3.72.28-.34.69-.06,1.44-.19,2.09-.24,1.24-.65,2.37-.5,3.64.17,1.43.71,2.85,1.9,3.68.86.6,1.88.79,2.91.44,2.5-.84,2.63-4.78,1.51-7.18-.46-.98-1.25-1.47-1.95-2.18-.3-.3.04-1.34-.83-1.45.7-.71,1.25-1.14,1.82-1.83,1.4-1.67.52-2.81,2.05-3.63.69-.37.9-1.03,1.07-1.74.08-.33.5-.52.66-.81.26-.46.27-1-.22-1.26-1.08-.56-2.5.35-4.04-2.51-.72-1.34-1.28-2.64-1.58-4.17-.47-2.39-.83-4.96-.33-7.37.15-.71.92-1.19.8-2.17-.07-.53.24-1.48.74-1.78,1.2-.74,3.79-.42,3.72.71-.52-.44-.99-.44-1.37-.18-.42.3-.69.98-.26,1.33.67.55,1.58.51,2.39.51.09,1.12.38,2.2,1.29,2.87,1.48,1.11,3.57,1.1,5.06,0,.41-.3.64-.11,1.03-.12.35-.05.22-.97-.04-1.18-1.19-.91-1.48,1.48-4.08.64-1.12-.37-1.75-1.29-1.6-2.47.35-2.85,4.37-.75,6.2-5.1.52.28.91.16,1.3-.12.62-.46.96-1.17.44-1.88,1.42-.42,3.14.43,4.19-.91.45-.58.76-1.35.47-2.1-.22-.57-.84-.6-1.5-.5.64-1.52.14-3.17-1.17-4.21.44-.29.93-.56.77-1.02-.12-.33-.6-.23-.88-.48.63-.62,1.34-.91,1.97-1.44,1.8-1.5,2.04.15,3.27-1.47.41-.54,1.16-.9,1.78-1.23l3.75-1.99c1.56-.83,3.23-1.25,4.85-2.24,6.75-4.12,5.87-3.02,7.82-2.1,2.03.96,5.32,3.16,7.49,4.37l3.02,1.67c.79.44,1.67.8,2.34,1.4.35.31.52.9,1.12.86.95-.06,1.76.27,2.44.92.5.48,1.2.67,1.74,1.25-.37.25-.93.23-.88.66.04.42.45.59.81.85-1.35.92-1.83,2.56-1.27,4.19-.64-.12-1.29-.02-1.46.59-.22.78.1,1.52.56,2.07,1.05,1.24,2.68.46,4.12.84-.3.69-.19,1.22.25,1.69.38.41.88.54,1.44.42,2.19,3.25,2.66,2.45,5.17,3.47.94.38,1.23,1.41,1.08,2.33-.15.92-.88,1.53-1.85,1.76-2.41.56-2.85-1.71-3.89-.63-.22.23-.33,1.08.03,1.1.46-.07.68-.14,1.09.14,1.54,1.05,3.63,1.11,5.09-.06.88-.71,1.13-1.78,1.26-2.89.79.08,1.66.06,2.33-.44.39-.3.13-1.01-.21-1.31-.28-.24-.78-.38-1.23-.03-.21.24-.27-.03-.14-.24.72-.72,1.76-.79,2.74-.68,2.42.27,1.04,3.1,2.52,4.27.45,3.96-.1,8.21-2.08,11.76-1.66,2.97-3.08,1.54-4.17,2.46-.76.65.59,1.4.79,2.48.15.78.88,1.1,1.42,1.51.92.71.35,2.67,2.75,4.53-1.3.67-.92,1.56-.65,2.66-.78,2.85-1.7,7.03-.67,9.85.27.74.87,1.42,1.68,1.47.71.04,1.25-.55,1.57-1.16,1.43-2.78,1.38-7.09.57-10.1-.08-.4.26-.91.29-1.33,1.44.18,2.92.39,4.31-.09.72-.25,1.31-.43,1.92.14.59.55,1.21.16,1.7-.28.53-.47,2.54.55,2.15-.64l-.52-1.58c-.39-1.18,4.58-10.62,1.56-23.91ZM45.51,99.92c-.24.8-.5,1.47-.96,2.23-.04-.91.43-1.59.96-2.23ZM45.02,105.14l-.78,4.42c-.46-.59.13-1.29-.11-1.83-.47-1.03.13-2.23.09-2.85-.05-.95-.05-1.91.7-2.66.02.72-.61,1.14-.37,1.86l-.15.02c-.08,0,.11.39.13.5.12.56-.35,1.14-.11,1.78.14-1,.49-1.91.89-2.95.17.57-.19,1.1-.3,1.7ZM44.78,104.07l-.22.03c.44-.72.35-1.54.94-2.15,0,.83-.43,2.1-.73,2.13ZM55.04,89.86c.12.15.2.48.04.74-.12.19-.43.42-.79.18-.34-.23-.3-.78-.05-1.02.24-.24.64-.12.81.1ZM53.52,90.78c-.24-.22-.21-.63-.13-.86.11-.32.48-.84,1.06-.43-.64-.02-.86.54-.93,1.29ZM54.43,84.07c.34.2-1.42,1.99-1.71,2.28.1.1.26.15.28.29.02.12-.2.18-.17.3.26.96.9,1.62,2.06,1.91-1,.27-1.62.29-1.82,1.08-.2.77.16,1.56.93,1.76.71.19,1.53-.24,1.68-1.08.13-.72.36-1.96,1.22-2.12.05,0,.13-.02.17.07.04.09-.18.22-.03.38.16-.36.55-.53,1-.35.48.19-.92,1.13-1.28,1.63-.28.37.05.98-.13,1.48-1.99-.45-1.96,1.7-3.33,1.44-.17-.23-.04-.52-.18-.83-.29.2-.71.42-1.03.16-.37-.3.92-1.46-.28-2.87.36-.38.67-.68.58-1.17-.08-.43-.19-.85-.73-1.21l2.78-3.14ZM49.02,109.25c.83.97.51,3.19.86,3.94.46.99.9,2.02.37,3.03,0-.84-.25-1.5-.43-2.32l-.58-2.69c-.34.11-.23.51-.56.74.08-.94-.21-1.77.34-2.7ZM48.47,110.05c-.69,2.11-.33,2.09-.66,4.39-.17-.8-.42-2.88.02-3.69,1.25-2.33.03-2.55.98-3.43.12.27-.08.62.08.85.09,0,.34-.04.43.03.09.07.1.46,0,.51-.55.29-.66.78-.84,1.33ZM48.24,113.8c-.2-.63-.18-1.38.31-1.94.08.7-.04,1.21-.31,1.94ZM50.37,113.19c.11-.59.12-1.06-.16-1.51-.46-.76-.47-1.82-.26-2.82.54.91.54,1.96.76,3l.48,2.2c.13.6.34,1.15.13,1.7-.02-.18-.32-.3-.33-.38-.07-.89.05-1.68-.29-2.5.04.55-.03.71-.33.32ZM50.67,117.86c.55-.11-.62.91-.76,1.36-.18-.65.1-1.23.76-1.36ZM51.54,118.29c.52.23.36,1.3-.21,1.57-.31.15-.56.05-.68-.08-.48-.5.52-1.55.88-1.49ZM51.08,111.57c-.61-1.25-.54-2.68-1.03-4-.39-1.04-.19-2.15-.3-3.25-.09-.85-.07-1.58.09-2.4.24-1.24.27-2.54.96-3.63-.57,3.46-1.11,5.98-.28,9.4.45,1.84.84,3.62,1.07,5.51.33,2.76.77,2.72,1.09,5.06-1.26-1.43-1.13-5.11-1.6-6.69ZM50.67,104.75c.04.46.26.84.07,1.47-.48-.85-.32-2.94-.14-4.1.15.85-.02,1.72.07,2.64ZM51.76,98.56c.23-.5.11-1.15.64-1.57-.6,2.15-.95,4.29-1.23,6.66-.34-.71.13-4.07.59-5.09ZM52.77,94.25l-1.36,2.47c-.37.21,1.26-3.13,1.36-2.47ZM52.37,107.78c-.37-.68-.55-1.49-.31-2.31l.31,2.31ZM52.04,112.96l.92,4.19c-.68-1.19-1.13-2.63-.92-4.19ZM52.76,104.45c.22.92.38,1.81.34,2.79-.27-.92-.41-1.81-.34-2.79ZM50.11,97.02c.1-.95.47-1.73.79-2.6.14-.36.2-.69.63-.78-.4,1.16-.76,2.23-1.42,3.37ZM51.33,91.01c-.04.39-.35,1.03-.63,1.3-.6.61-1.05,2.29-.54,2.44.19-.79.67-1.23.89-1.84l-1.56,4.57c-.15.44-.22.87-.25,1.33l-.07.95c.45.04.38-.4.56-.59.64-.71-.26-.47.54-2.04.19.2.02.41.18.45.28-.64.31-1.28.85-1.76l-1.14,3.55c-.34,1.07-.47,2.06-.62,3.16-.09.66-.27,1.11-.1,1.83.29,1.21.13,2.48.29,3.69-.29-.26-.1-.58-.39-.75-.27.31-.32.06-.43-.02-.29-.22-.09-.51-.03-.75.9-4.08-.3-1.27.5-4.61.14-.6.31-1.18.2-1.86-.47,1.98-1.58,2.76-1.36,4.86.24-.33-.03-.74.39-.9-.03,1.11-.93,5.24-1.23,6.11-.19.55,0,1.13-.34,1.69-.16-1.41.15-2.79.45-4.25.15-.72.67-1.36.47-2.05-.39,0-.58.19-.15.22.14.46-.29.86-.43,1.29-.6,1.79-.46,3.63-.6,5.52-.17-1.66-.32-4.81.4-6.43.76-1.7,1.16-5.14,1.16-7.06,0-1.49.53-2.87.79-4.3.06-.31-.24-.62-.05-1.04.57-1.24,1-2.49,1.93-3.65,0,.31.35.65.32.95ZM47.47,117.02c-.39-.81-.37-1.6-.44-2.46.31.79.41,1.56.44,2.46ZM46.78,116.51c-.46-1.66-.72-3.37-.63-5.16.18,1.62.54,3.45.63,5.16ZM46.16,89.9c-1.02-.33-1.61-.06-1.96-.57-.09-.13-.21-.58.03-.65,2.5-.71,4.56-1.96,6.75-3.51-.8,1.63-2.35,2.61-3.88,3.29-.58.26-1.21.12-1.73.43,1.81.29,3.35-.61,4.71-1.77.11.2-.06.44-.23.52-.44.21-.21,1.72-2.97,2.1,1.31.89,1.18-.37,2.66-.09-.38.91-1.16,1-1.91,1.29.03.25.36.2.48.31.28.26.34-.14.73-.14l-.89,1.55c-.06.11-.2.27-.26.21l-.24-.27c-.02.34.06.66-.34.74.21-1.27.58-2.95-.95-3.44ZM47.4,99.77l-.68,1.28c.17-1.16.49-2.09.79-3.1.2-.69.2-1.38.46-2.02l-.36,3.27.54-1.8c-.07,2.08-.79,4.9-1.87,6.29.28-2.25.89-2.19,1.12-3.93ZM47.8,101.18c-.04,1.62-.03,2.95-.67,4.19-.31.61-.61,1.14-.66,1.87l-.29,3.94c-.25-1.46-.13-2.97.12-4.53.05-.31-.17-.51-.24-.68.38-1.98,1.27-3.52,1.75-4.79ZM49.96,123c-.64.04-1.23.43-1.79.57.13.13.21.15.26.26-.4.3-.88.55-1.03,1.06.41-.21.68-.57,1.17-.59-.04.16-.34.32-.2.45.77.72-.61,1.28.46.86.1.19-.14.27-.26.34-.14.09-.45,0-.56-.23-.37-.8-1.54-.37-2.36-.39.18-.45.39-.69.66-1.06.1.21.31.19.47.42.62-.39.15-1.55.18-2.33.72.63,1.37.7,2.15.38,2.75-1.13,2.06.39,3.48-.96.13.24.21.45.33.4.76-.28.09-.89.5-1.48.45-.66,1.15-1.28,1.93-1.4-.07.57-.52.71-.82.91-.66.45-.52,1.32-.96,1.86-.38.47-2.93,1.98-3.6.94ZM55.34,106.37c.19-1.28-.59-3.34.71-3.34l-.18,2.67c-.28-.26.04-.66-.32-.78-.11,1,.34,1.26-.21,1.46ZM54.52,131.4c.3,1.01.43,1.89.81,2.82-.86-.74-.93-1.88-.81-2.82ZM55.35,128.29c-.06,0-.08-.14-.07-.29,0-.07.1.08.26-.07-.49-.4-.46-.93-.18-1.38.21-.33.63-.8,1.16-.64-.47.24-1.07.53-1.16,1.15-.1.72.56,1.23,1.33,1.22-.16.55-.67.48-1.04.34,0-.21.11-.31.05-.43-.17.07-.26.09-.36.09ZM56.09,134.81c-.16-.08-.27-.04-.33-.11-.13-.15-.2-.37-.04-.63.46.56,1.01.98,1.7,1.26-.58.2-.97-.19-1.33-.52ZM59.82,134.1c-.22-.75.18-1.39.22-2.08.05-.9-.55-1.6-.56-2.52.91,1.35.91,3.1.34,4.6ZM59.55,134.37c.03.6-.43,1.31-1.23,1.22.43-.34.75-.76,1.23-1.22ZM57.46,128.49c2.5,1.59,2.02,6.09.44,6.3-2.35.31-2.67-4-1.95-5.38.51-.21,1.15-.36,1.51-.92ZM57.77,124.2c-.08-.34.11-.48-.05-.42-.05.02-.2.02-.27.07-.89.66-1.84,1.03-2.83,1.47-.97.43-1.96.59-2.96.13.83.08,1.39-.24,2.07-.72-.45-.03-.78.31-1.34.2l1.45-.77c-.46.07-.87.26-1.43.17,2.52-1.17,4.81-2.65,7.06-4.32.23-.17.54-.24.92-.29-1.45,1.79-.25,2.47-2.6,4.47ZM62.58,116.77c.01.57-.7,1.09-1.12,1.32-.2-.43.66-.67.73-1.09.15-.95-.65.78-1.03.74l-.31-.03c-.12-.01-.05.34-.16.42-1.05.81-2.1,1.59-3.34,2.21l-2.9,1.48c.1-1.19.95-1.83,1.59-2.61l-.66,1.62,3.54-2.48c.06.38-.28.57-.44.86.75-.01,1.94-1.74,2.23-2.54.05-.16,1.88-.63,1.89.1ZM59.98,116.33c.05.65-.24,1.38-1,1.71.35-.55.68-1.04,1-1.71ZM58.92,115.14c.25.17.33.5.54.77-.34,1.28-.99,2.49-2.24,3.15-.48-.78.38-1.08.74-1.41.6-.63.5-1.67.97-2.51ZM57.92,116.65c-.14-.6-.9-1.08.09-1.86.21.64.14,1.24-.09,1.86ZM57.05,111.39c.25,1.08,1.06,1.92.99,3.12-.66-1.3-1.41-3.8-1.73-5.37l-.19.63c-.31-.97-.24-1.86-.13-2.84l1.05,4.45ZM61.5,99.61c-.02.34-.19.32-.37.27-.22-.06-.36-.19-.37-.34-.02-.2.09-.37.3-.48.2-.1.35-.06.49.1.08.08-.04.24-.05.44ZM64.88,98.5c-.95.78-1.16,2.25-.78,3.35.07.2-.01.23-.11.34-.1.1-.21-.04-.3-.21-.68-1.28.09-2.98-.36-2.69-.24.16-.54,1.04-1.26.69.42-.39.71-.73.75-1.16.05-.51-.3-.93-.78-1.17-1.28-.65-3.86-.82-4.61.67-.68,1.35-.24,2.65-.91,2.95.02-.59.34-1.05.08-1.64-.23.7-.1,1.43-.49,2.08.02-.73.41-2.62-.1-3.02-.69-.55-.62,6.06-1.19,6.39-.14-.48.09-.89-.13-1.35l-.16,1.79c-.41-3.09.03-6.21,1.22-9.14.35-.87.53-1.78,1.31-2.39l-.51,1.54c1.47-2.63,2.77-3.63,5.08-5.61.97-.82,1.52-2.03,2.76-2.79-.42.97-.98,1.27-1.93,2.35,1.36-.5,1.67-.82,3-1.82-.24-.07-.36.12-.6.1-.03-.62,1.01-.89,1.63-1.28.07.05,0,.25.21.31.27-.79.94-1.2,1.68-1.32-.19.22-.39.28-.42.55.41-.07.47-.37.82-.49-.82,1.74-.67.61-1.59,1.5-2.8,2.71-5.5,3.52-7.32,5.99-.3.41-.69.42-1.06.63-.88.5-1.08,1.66-1.58,2.45-.47.74-1.22,1.27-1.25,2.22.53-.64,1.05-1.47,1.86-1.87.43-.21,2.77-.24,2.84.35.22-.14.51-.22.71.01-.21.12-.35-.05-.49.09.14.33.56-.1.75,0,1.04.49,2.06.48,3.24.31-.38.6-1.09.59-1.04,1.33,1.07-.65,2.11-1.31,3.36-1.33.46,0,.81.04,1.34-.25-.29.84-2.73.78-3.67,1.55ZM63.81,91.32c-.3-.11.12-.33.21-.45.34-.44.6-1.03,1.28-.92.02.55-.04,1.04-.2,1.49-.22-.4-.28-.72-.13-1.01-.44.29-.68.73-1.16.9ZM59.42,94.48c-.23.18-.15.49-.31.77-.18.33-.55.18-.78.25-1.07.93.76-2.32,1.17-1.51.09.17.08.35-.09.48ZM69.22,94.86c.25,1.62-2.92,2-3.6,1.93-.44-.04-.66-.32-1.23-.06-.93.44-3.44-.84-4.9-1.08,1.12-1.15,2.14-2.4,3.35-3.35.33-.26,1.25.16,1.46-.81.47,1.05,1.11,1.53,1.96,2.04-.24.32-.35.67-.18.98.14.27.45.36.86.39.79.06,1.8-.63,1.51-1.49-.21-.65-2.64-1.45-2.45-3.09,1.52-1.25,3.06-2.38,4.67-3.66.34.21.44.5.82.6.22-.4.35-.83.86-.77-.25.51-.47.97-.32,1.54.11.43.46.67.85.73.4.06.74-.22,1.07-.62.92,1.71-.67,3.29-2.16,3.91-.69.29-1.12.81-1.48,1.46-.54.2-1.4.08-1.59.76-.08.29.45.35.49.59ZM66.78,93.17c.45.04.73.32,1.07.71-.23.5-.74.54-1.15.29.27-.3.27-.61.09-1ZM71.33,94.77c-.24-.09-.06-.49-.01-.69-.56-.33-1.12,1.37-1.7,1.71l.21-1.01c.03-.26-.1-.41-.29-.53.47-.13.72-.22,1-.54.37-.43,1.27-.62,1.57,0,.21.43-.35,1.07-.77,1.07ZM76.43,90.31c.44.32.09,1.18-.16,1.56-.72,1.1-2.52.5-4.03.69.65-.58,1.52-.95,2.01-1.65l.42.13c.2.06,1.12-1.2,1.76-.73ZM75.23,89.1c-.22-.31-.2-.63-.29-1.05-.12.09-.08.26-.24.33-.15-.46-.25-.8-.57-1.09-.33-.3-1.05-.3-1.1.18-.02.15.36.3.34.41-.03.18-.14.29-.26.33-.23.07-.39-.07-.5-.29-.19-.38,0-.72.24-.91.3-.24.63-.41,1.06-.14-.08-.54-.6-.77-1.03-.88-.6-.15-1.01.07-1.54.39-.06-.38.27-.44.4-.64-.38-.44-.77-.19-1.25-.29.47-.4.95-.04,1.34-.34,0,.18-.11.21-.06.25.07.06.19.08.23.04.25-.3-.56-.65-.17-.72.46-.08.91,1.06,1.97.3-.51,1.61,1.63,1.02,1.42,4.11ZM76.19,76.39c.23-.1.43-.3.42-.56-.01-.45-.32-.45-.88-.54.31-.32,1.16-.32,1.34.17.18.48-.2,1-.88.93ZM77.29,79.54c.59-.45,1.19-.85,2.06-.98-.63.36-1.23.79-2.06.98ZM86.03,70.58c-.29-.03-.56-.07-.66-.42-.1-.35.03-.68.31-.89.21-.16.52-.25.86-.1.38.17.68.51.45,1.01-.14.3-.45.46-.97.4ZM84.25,76.16c.2-.64.89-.78,1.42-1.13.58-.38.88-1.01,1.47-1.28-.53,1.05-1.85,1.7-2.9,2.42ZM86.87,76.31c-.32.1-.58-.34-.57-.62,1.37-.11.84-.51,2.27-.61.1.45-1.37,1.12-1.7,1.23ZM90.12,68.57c-.13-.99.45-1.77.94-2.45-.26.95-.54,1.65-.94,2.45ZM107.21,60.68c-.21.29-.3.76-.77.83-.16.02-.23-.53-.02-.61.36-.14.55-.37.82-.6.05-.05.25.1.22.15-.04.06-.19.15-.25.23ZM120.46,54.28c-.23.13-.46.13-.58-.07-.13-.21-.03-.47.27-.6,1.24-.5.97-.93,1.37-.43.09-.33.17-.51.55-.64.12.16,0,.38.2.5.11-.3-.1-.57.25-.78.13.27.13.56.36.7-.81.55-1.61.87-2.42,1.32ZM126.54,51.14c-.15-.13-.16-.27-.25-.3-.2-.07-.13.42-.3.67-.11.16-.24-.01-.41-.18-.29.35-.44.79-.88.98-.15-.5-.47-.86-.54-1.28.15-.08.31.04.39.03-.3.03,1.44-1.09,1.54-.93.43.1.57.77.44,1.03ZM127.68,50.63c-.03-.42-.32-.74-.68-.88.04-.23.14-.38.23-.39.44-.04.72.87.45,1.27ZM132.3,48.1c-.98.52-1.86,1.13-2.95,1.4.28-.24.62-.33.8-.7-.45.02-1.61.95-1.59.36,0-.08.07-.17.21-.24l7.29-3.92c.18.23.19.46.31.74-1.28.92-2.65,1.62-4.06,2.37ZM138.94,44.22c-.05-.01-.14.1-.21.12-.15-.08-.08-.32-.27-.39-.06.39-.24.94-.68.84-.13.02,0,.25-.19.34-.22-.34-.36-.63-.49-.95.21-.11.24-.17.32-.19.15-.04.35.1.34.23.19-.52.68-.59.93-1.07.37.43.53.75.49,1.24-.15,0-.14-.16-.23-.18ZM133.4,35.73c.4-.26,1.04-.34,1.25.04-.22.25.04.39.22.67-.32,0-.51-.24-.72-.17-1.21.37-.81,1.7-.74,2.58-.44-.28-.48-.66-.85-.72.14.59-.09.91-.53,1.05-.47.15-.52.83-1.12.77,2.19-1.59.96-3.21,2.49-4.23ZM134.29,37.98c-.08.14-.31.13-.41.04-.15-.14-.18-.72.06-.95.07-.07.21-.1.32-.03.23.14.03.86.02.94ZM128.79,39.95c.34.43.73.53,1.31.5-.38.46-1.09.11-1.12.34,0,.06.15.35.03.35-.55.02-.62-.73-.22-1.2ZM60.22,40.4c.35.01.62.08.85,0,.15-.04.23-.25.31-.49.27.13.32.41.35.62.03.25-.1.54-.38.65-.19,0-.18-.14-.02-.42-.39.33-1.34-.23-1.11-.37ZM55.56,35.74c.11-.16.39-.23.69-.21.72.06,1.34.73,1.48,1.48.19,1.01.49,1.82,1.3,2.67-.55-.1-.9-.48-1.28-.79-.33-.28-.03-.69-.29-1.2-.25.29.03.72-.13,1.06-.07.14-.28.11-.4.08-.33-.1.7-1.95-.7-2.53-.23-.1-.5.15-.68.15-.14-.15-.08-.56.01-.7ZM53.07,45.33c-.38.11-.6-.38-.56-.69.03-.22.19-.56.54-.55.1,0,.21.14.46.21l-.45,1.03ZM61.76,49.3c-.19.38-2.19-1.14-3.03-1.23.39.36.86.46,1.31,1.01-2.13-.9-4.14-2.08-6.14-3.37.13-.22.29-.16.42-.21-.14-.1-.21-.2-.22-.29,0-.09.19-.25.33-.16.76.49,1.52.87,2.32,1.29l4.91,2.58c.17.09.15.28.1.38ZM63.13,50.79c-.36.03-.59-.36-.7-.59-.15-.31.11-.92.5-.88.27.13.57.4.9.64-.39.34-.5.74-.7.82ZM64.5,50.43c.07-.09.38-.13.38.01-.02.46-.26.82-.38,1.24-.71-.25-.11-1.1,0-1.25ZM65.67,52.25c-.2.11-.36-.21-.41-.49-.19.3-.29.25-.23-.07-.01-.36-.16-.29-.23.13-.18-.35-.02-1.01.33-1.21.28-.16.51.28.62.41.84-.13.04.38-.08,1.23ZM66.83,52.66c-.23-.16.04-.74.24-.75.13.42.37.24.71.31-.07.19-.22.22-.3.22-.18,0-.21.3.03.29.2-.02.29-.35.49-.32.09.01.67.5.74.46,0,.11-.11.23-.22.37,0,.34.24.18.29-.09,0-.17.04-.26.09-.25.15.03.17.03.21.07.07.05-.05.69-.06.88-.76-.36-1.51-.71-2.22-1.2ZM75.1,57.09c-1.78-.82-3.34-1.82-5.06-2.73-.32-.17-.64-.32-.96-.48.03-.07.1-.25.21-.61.36-.13.88.27,1.08.58.11-.03.22-.05.27-.07.12-.07.15.25.28.29.68.19,1.62.52,1.65.93.21-.42,1.64.62,1.61.53.05.18-.23.44-.14.58.25.4.14-.41.41-.43.31-.02.37.48.47.5.12.03.22-.15.4-.05-.12.36-.32.59-.22.96ZM75.64,57.52c-.09-.04-.13-.16-.17-.21-.05-.06-.07-.13.02-.17.1-.04.26.1.38.07l.4-.58c.1-.14.42.11.46.27.04.15-.11.36-.14.57-.04.27.24.3.38.3.59-.01.53-.97.96-.42.38.47-.24,1.23.35,1.29.15.02.41-.16.56-.01.07.07,0,.17.02.34.35.24.75.41.93.86-1.44-.8-2.67-1.67-4.16-2.32ZM75.92,53.58c-1.98-1.02-3.82-2.13-5.77-3.19l-3.41-1.87c-.11-.06-.25-.11-.2-.2.03-.06.1-.09.23-.2-2.16-1.21-4.27-2.48-6.63-3.63-.14.1.09.23-.08.45l-1.95-1.1c-.37-.21-.36-.73-.85-.96-.75-.35-1.46-.79-2.13-1.17,1.03.1,1.54,1.09,2.63,1.02l-5.65-3.2c-.23-.13.07-.56-.21-.72-.34.69-.6,1.29-.66,2.09l9.77,5.26,9.34,5.1,7.99,4.48-6.42-3.11,9.28,5.36c-1.53-.47-2.77-1.31-4.14-2.06l-9.23-5.07-5.35-2.84c-.76-.41-1.49-.77-2.12-1.37l1.17.31c-.8-.43-1.51-.99-2.37-1.4-1.78-.83-3.34-1.96-5.11-2.63,1.46,1.04,3.1,1.61,4.48,2.74-2.21-.83-3.98-2.11-6-3.11-.44-.22-.85-.47-1.14-.79.87.44,1.93.65,2.64,1.15-.86-.75-1.93-1.07-2.88-1.69-.06.34.24.35.24.54-1.17-.31.48-4.16,1.49-4.48l6.12,3.29c.89.48,1.71.88,2.6,1.35l6.81,3.6,8.34,4.58,9.16,5c2.87,1.57,5.63,3.06,8.6,4.43-.24.38-.55.31-.84.25-.03.15.04.26-.03.3-.14.07-.29,0-.41-.07-2.34-1.33-4.62-2.67-7.03-3.86-.76-.37-1.59.25-2.34.56-.48-.17-.74-.6-1.26-.61.21.54,1.01.23,1.02.97-2.84-1.27-5.14-2.91-7.9-4.02l6.3,3.66-6.1-3.14ZM89.46,61.3c-1.15-1.5-.71-2.08-2.2-3.71,2.54.7,1.7,2.23,2.72,3.01.07.05.06.21.06.26.01.08-.14.28-.22.17l-.45-.7.08.96ZM87.81,61.2c0,.06-.11.22-.18.17-.73-.57-.17-1.21-1.61-2.79-.32-.35-.78-.23-1.09-.41-.33-.19-.49-.64-1.07-.53.4-.55.85-.6,1.35-.79,0,.18-.08.25-.03.32.35.57,2.06-.76,3.47,3.77.06.19.22.46.15.62-.07.15-.35.45-.48.34-.35-.29-.38-.71-.46-1.03-.22.08-.04.26-.04.33ZM85.31,58.51c1.62,1.28.81,1.19,1.27,2.83-.62-.23-.75-.87-1.28-1.21-.35-.23-.15-.71-.34-1.02l-.89-.19c-.42-.09-.82-.29-1.22-.6,1.37,0,1.29.25,2.26.59.24.09.24.52.56.58.06-.39-.38-.44-.36-.98ZM89.86,58.92c.71.11,1.24.65,1.65,1.42-.12.09-.22-.04-.33-.06-.1-.01-.17.37-.29.39-.72-.15-.85-1-1.03-1.76ZM82.17,59.64c-.08-.45.19-.74.47-.97.83.55,1.91.54,2.32,1.81-.5-.18-.71-.65-1.14-.91-.09-.06-.2.16-.29.16-.25.01-.6-.44-1.02-.46-.15,0-.1.32-.34.37ZM82.76,59.73c.66.38,1.23.94,1.54,1.71-.38.21-.33-.24-.43-.42-.3-.51-.86-.69-1.1-1.28ZM85.89,66.01c-.52.27-.92.7-1.47.9-.94.35-1.72.89-2.72,1.1.47-.43,1.01-.52,1.44-.84-1.05.05-1.6,1.03-1.49.22-.71.25-1.28.79-2.25.84l6.53-3.46,6.93-3.63,5.05-2.59,7.78-4.14,7.86-4.28,9.62-5.29,6.85-3.6,7.52-3.98c1.23,1.16,1.87,2.65,1.84,4.34-1.92,1.06-3.71,2.23-5.69,3.17-.6.28-1.01.76-1.71.91.3-.66,1.02-.78,1.58-1.13,1.81-1.13,3.81-1.76,5.51-3.18l-8.81,4.65c-1.22.64.34.66-1.67,1.52.01-.53.48-.53.74-.75-.73-.06-1.08.52-1.6.75.14.13.22.18.19.24-.19.44-3.73,2.14-4.53,2.58l-4.96,2.76-6.84,3.72-1.48.87c-.56.33-1.11.6-1.77.74.78-.55,1.53-.98,2.35-1.45l1.03-.59,4.29-2.45c-2.1.63-4.3,2.4-6.31,3.11,1.24-.88,2.53-1.49,3.88-2.23l9.05-5.01,16.38-8.93c0-.75-.25-1.19-.55-1.86-.13.82-.57.69-.95.9l-4.7,2.63c.94.18,1.32-.7,2.11-.74-1.36.67-2.42,1.58-3.8,2.22.63-.12,1.03-.68,1.75-.6-1.39.96-2.85,1.6-4.43,2.34l2.37-1.52-3.27,1.5c.74-.49,1.49-.78,2.11-1.38-1.69.74-3.22,1.57-4.88,2.58.92.12,1.55-.63,2.38-.89-.72.39-1.46.75-2.18,1.29-.51.39-1.34.5-1.72.98-.38.48-.61.55-1.21.66-.71.14-1.34.76-2,1,.82.07,1.15-.86,2.06-.67l-6.76,3.76-7.97,4.13c2.22-1.57,5.27-2.76,7.47-4.31-2.68,1.22-5.17,2.65-7.76,4.06-.13.07-.33.03-.37-.05-.03-.06-.01-.13-.03-.25-.12.01-.25.02-.39-.03-.09-.03-.11-.17-.06-.29-.53.26-1.02-.31-1.38-.37-1.89.48-3.77,1.99-5.69,2.76-.39.16-.55.43-.88.61l-4.89,2.75-7.49,3.92ZM91.81,72.38c.61-1.18,1.66-1.93,2.79-2.52.6-.15-2.67,2.59-2.79,2.52ZM92.99,67.39c-.08.09-.26-.02-.28-.08-.03-.1-.09-.32,0-.47,1.98-2.9,3.93-3.56,6.82-5.47.37,1.3-2.73,4.81-3.16,4.66-.09-.03-.37-.13-.26-.28.8-1.07,1.62-1.99,2.28-3.17-2.55,1.26-3.48,2.76-5.4,4.81ZM100.24,59.95c-.95,1.13-2.06,2.04-3.45,2.5-.06.02-.09-.23-.08-.27.02-.06-.21,0-.35.04-.32.8-.85,1.21-1.47,1.67-1.37,1.01-2.54,2.18-3.32,3.68-.07-.66.2-1.23.4-1.76l.42-1.06c.4-1.03,1.32-1.92,2.22-2.61.34-.26.91-.25,1.15-.75-.31.97-1.11,1.48-1.32,2.49.93-.64,1.29-1.62,2.11-2.29,1.7-1.39,2.62-2.06,4.46-2.95-.03.17-.09.23-.18.27-.11.05-.03.14.05.14.16,0,1.47-1.63,2.56-1.73-.66.69-1.22,1.26-1.64,2.08-1.14,2.23-1.07,5.21-3,6.31-.35.2-.65.22-.95.56-1.41,1.6-.86.19-1.67,1.25-.3.39-.83.63-1.26.88,2.66-3.1,5.31-3.82,5.32-8.44ZM95.7,69.92c.79-.34,1.21-1,2.05-1.13.15.08-2.49,1.78-2.05,1.13ZM97.78,68.19l-1.66.97c.35-.68,1.1-.84,1.68-1.23.37-.25.57-.84,1.18-.73-.48.36-.78.75-1.19.99ZM99.34,66.48c.27-.65.73-1.01.95-1.63.34-.96.75-1.84.95-2.84.45-2.18,1.74-4.99,4.37-4.92,1.81.68,2.92,2.43,3.32,4.26-.41-.42-1.04.26-1.62.27.22-.56.67-.67.94-1.16-.24-.15-.33.2-.59.14.13-.32.48-.57.34-.89-.03-.06-.33-.07-.33-.14,0-.07.22-.13.25-.26-.44-.13-.79.28-1.19.43-.89.34-1.2,1.01-1.84,1.75.03-.76.54-1.26.93-1.78.39-.52,1.06-.55,1.66-.99-2.74-.75-3.25,4.76-5.36,5.16.32-1.25,1.11-2.17,1.64-3.28.14-.29-.47-.23,1.05-2.16-.49.1-.96.46-1.17,1.01-.35.9-3.03,6.97-4.3,7.04ZM102,66.98c.54.21.85-.36,1.53-.43-.41.45-1,.66-1.67,1.05-.05-.28.21-.37.14-.61ZM103.12,69.9c-.09-.5.35-.81.7-.88.48-.1.84.08,1.01.44.2.4.16,1.14-.43,1.21-.19.02-.5-.21-.75-.13-.2.05-.5-.44-.54-.64ZM129.33,99.09c.15.09.37.34.16.63-.13.18-.36.19-.45.12-.13-.1-.33-.28-.33-.51,0-.33.42-.36.61-.24ZM143.7,101.25c-.42-.38-.58-.86-.83-1.33.12,1.2,1.12,2.35,1.09,3.7-.38-.31-.26-.82-.73-.9.28,1.07.88,1.91.96,2.96.05.55-.22,1.14-.12,1.82.18,1.25.37,2.41,0,3.6-.23-1.67,0-3.42-.63-5.05-.28-.72-.77-1.3-.83-2.16-.06-.9-.22-1.81-.21-2.7.11-.04.21-.05.25-.07.21-.06-.82-2.96-.55-3.85l.39,1.37-.16-2.83c.32,1.86.82,3.59,1.38,5.45ZM144.02,113.69c-.18,1.09-.13,2.19-.67,3.28.09-1.8.61-3.62.69-5.64.32.76-.08,1.51-.02,2.35ZM142.95,110.33c-.7-2.52-1.24-5-1.43-7.62.37.34.23.84.33,1.29l.52,2.28c.4,1.77.98,3.45.83,5.33-.48-.35-.14-.85-.26-1.28ZM139.6,119.79c-.37.22-.84.03-1.06-.28-.2-.27-.22-1.19.18-1.22.48-.03,1.01.72.99,1.12-.02.31-.4-.12-.4.14,0,.09.2.1.3.23ZM139.75,103.03c.26.64.18,1.26.11,1.87l-.17,1.47c-.16-.36-.26-.77-.13-1.2.21-.71-.18-1.39.2-2.14ZM140.02,106.46c.56-2.53-.21-5.61-.53-8.17.89,1.92,1.07,4.04.98,6.18-.03.74.16,1.46-.02,2.17-.31,1.22-.64,2.38-.89,3.63-.1.49-.12,1.16-.69,1.41.28-1.86.76-3.48,1.14-5.21ZM140.84,103.14c.12,1.42.36,2.59.69,4-.02.3-.05.52-.31.15-.49.19-.45.63-.78,1,.57-2.06.12-3.19.39-5.15ZM139.45,112.86c.12-1.44.4-2.69.77-4.02.36.43.07,3.79-.77,4.02ZM138.91,116.5c-.13-.69.15-2.77.36-3.48.42.29-.04.53.02.82.06.32-.1,2.58-.37,2.67ZM139.16,103.69c-.24-.49-.26-1.01-.26-1.58-.02-1.36-.46-2.57-.59-4.06.51.89,1.05,4.26.85,5.64ZM138.79,96.69c-.36-.89-1-1.67-1.24-2.62.23-.06,1.51,2.44,1.24,2.62ZM137.16,107.71c-.1-1.12.2-2.09.31-3.11.26,1.11-.1,2.09-.31,3.11ZM138.19,113.39c.45.64-.64,3.49-.91,4.14.09-1.49.61-2.78.91-4.14ZM138.17,115.96l.36-1.53c.19-.82.06-1.64.46-2.37-.09,1.55-.42,4.77-1.27,6.04-.14-.79.27-1.41.45-2.14ZM139.18,117.93c.45-.26.81.05,1,.27.23.27.38.66.18,1.06-.26-.54-.57-.94-1.18-1.34ZM140.35,114.45c-.04.22-.46.22-.49.04-.09-.59.53-.91.57-1.38.12-1.34.17-2.68.83-3.86.52.72.22,1.54.48,2.23.3.8.64,1.57.26,2.39l-.87-2.96c-.34,1.23-.54,2.32-.79,3.55ZM141.56,109.24c-.14-.36-.43-.18-.67-.28-.33-.13-.09-.83.24-1.1.22.2.19.51.27.88.22-.12,0-.36.18-.48.28.59.2,1.2.51,1.68.39.6.67,1.26.47,2.09-.03.79.45,1.55-.13,2.25,0-1.81-.25-3.42-.87-5.03ZM142.27,105.15c-.43-1.11-.04-1.82-1.06-3.78-.25-.48-.19-1.04-.54-1.45-.28,1.68.51,1.9.48,3.53-.64-1.69-.42-1.86-1.06-3.96l-1.19-3.91c.48.38.58.89.76,1.58.46-.45-.5-1.97-.72-2.84.59-.53,1.31,2.85,1.39,3.26-.34-.16-.06-.5-.34-.8-.15.19-.16.4-.27.62.34.13.16.28.16.72,1.42-.77.1,1.37,1.28,1.85l-.14-1.3c-.24-2.32-1.39-4.39-2.24-6.53.51.39.48,1.11.88,1.54.29.32.66.45.86.94.03-1.27-1.44-2.96-1.83-4.11.65.66,1.23,1.41,1.68,2.21.17.37.35.72.53,1.08.27.66.44,1.35.48,2.03l.06,1.19c.05.88.43,1.78.52,2.73l.44,4.38c.09.91.48,1.52.85,2.33.37.8.55,4.59.15,5.63.08-2.38-.28-4.68-1.16-6.95ZM140.29,85.82c1.71,1.36,3.73,2.14,5.79,2.92.2.07.03.58-.11.68-.68.52-2.25,0-2.78,1.38-.34.87-.06,1.72.07,2.71-.81-.67-1.36-1.45-1.85-2.43.84.03,1.01.64,1.12-.03.06-.39-1-.27-1.33-.87.16-.09.37-.05.43-.15.04-.06-.21-.16-.25-.41.45-.04,1.09.99,1.93.19-1.29-.26-2.24-.88-2.84-2,.15-.09.18.08.27.13.08.04.2-.12.32-.16.79.58,1.78.99,2.78,1.14.59.09,1.08.45,1.62.21-1.37-.22-3.5-1.05-4.39-1.98-.24-.25-.31-.63-.7-.79-.16-.07-.3-.32-.09-.56ZM141.19,94.32c-.09-.17-.17-.35-.26-.53-.15-.37-.33-.72-.53-1.08-.32-.7-.63-1.43-.93-2.2.77,1.13,1.41,2.33,1.72,3.8ZM132.4,88.53c.21.27.28.54.57.72.17-.34-.29-.32-.27-.74.38.09.52.52.81.87.18.26.34,0,.13-.18-.26-.2-.46-.48-.32-.73.09-.17.37-.47.6-.4.26.09.35.42.44.72l.22-.25c.1-.11.24.16.34.28,1.08-.08,2.32-.45,2.34-1.84,0-.37-.07-.74.25-1.02.38.51.77.77,1.22,1.19-.5.27-.73.66-.83,1.04-.15.56.06.96.59,1.31-.76.86-.65,1.95-.09,2.99-.5.23-.83-.14-1.32-.1-.1.22,0,.45-.06.72-1.13.4-1.06-1.66-3.46-1.55.51-1.05-.42-1.43-.77-2.2,0,.03-.17.41-.34.31-.37-.22-.35-.71-.73-1.1l.67-.06ZM135.98,109.62c-.03-.75.28-1.31.49-1.95.06.7-.05,1.35-.49,1.95ZM113.32,76.12c-.17-.22-.23-.74.08-.93.37-.23.84-.13,1.18.08-.39.17-.74.04-.86.31-.13.29-.09.59.24.85-.26,0-.51-.15-.64-.31ZM113.81,77.17c.25-.27.49-.08.69.11.27.2.47,0,.07-.21l.53-.98c-.16-.09-.3-.13-.36-.24.45-.01.78.27,1,.63l1.29,2.08c.23.36.68.51.82.9l-4.05-2.29ZM115.84,84.89c.94-.27.65-1.34,1.43-.63.37.34-.69.55-.42.84.49.53,1.08-.38,1.66-.34-.33,1-1.69.49-1.77,1.13,1.01-.32,1.88-.71,2.96-.59-.34.3-.74.22-1.23.28l.29.72c-.75-.64-1.82-.41-2.37.33.75.15,1.43.44,1.37,1.04-.02.21-.13.47-.44.51-.22.03-.37-.1-.41-.21-.1-.28.2-.3.4-.44.13-.11-.05-.27-.14-.35-.42-.37-1.5.28-1.65.4-.45.36-.13.96-.31,1.62-.8-3.19,2.84-3.27.62-4.32ZM115.6,92.55c-.59-.01-1.19-.21-1.49-.62-.29-.4-.64-1.1-.34-1.58.21-.34.98-.05,1.16.23.25.39.74.24,1.11.51l2.08,1.5-2.52-.05ZM120.65,95.81c-.39-.12-1.01-1.69-1.49-1.74-.08,0-.22.1-.17.17.04.06.19.4.07.46-.43.22-1.1-.66-.78-1.13.37-.54,1.11-.29,1.41.15.27.38.63.41.99.53-.54.46.04.83-.04,1.55ZM121.04,94.85c.03-.21.57-.31.49-.57-.22-.8-1.34-.47-1.66-.98-.97-1.57-1.85-1.03-3.18-2.54-.64-.73-.88-1.73-.4-2.61.37.34.69.68,1.11.64.4-.03.81-.34.93-.78.15-.56-.13-1.03-.42-1.5.5-.1.53.4.8.63.26.22.57-.11.75-.43.91.5,1.73,1.12,2.52,1.84.7.64,1.64,1.13,2.26,1.79.12,2.28-3.62,2.45-2.1,4.09.55.59,1.66.61,1.98.2.24-.31.13-.69-.09-1.05.78-.55,1.47-1.06,1.88-2.04.39.68.96.77,1.5.68l2.12,2.08c.41.4.72.74,1.22,1.36-1.09.36-2.1.52-3.09.93-.85.35-1.6.17-2.43.06-.31-.04-.67.36-1.12.16-.53-.24-1.15-.17-1.73-.37-.66-.23-1.46-.82-1.33-1.59ZM123.5,94.23c-.24.25-.96.08-.99-.34-.02-.3.58-.59.81-.63-.05.37-.03.54.18.96ZM124.97,89.97c.88-.11-.18.11,1.13.98-.18.05-.5-.33-.69-.13-.26.28-.18.75-.51.96,0,.15,0,.2-.04.25-.06.07-.39-.1-.33-.2.34-.58.55-1.17.44-1.85ZM132.38,97.75c-1.33-.92-3.3-.74-4.55.18-.39.29-.45.74-.34,1.13.08.31.36.57.77.84-.6.61-1-.51-1.44-.72-.11.67.46,2.77-.65,3.07.33-1.44.27-2.68-.64-3.64-.79-.83-2.56-.74-3.24-1.24.95-.62,3.33.52,4.13,1.11-.07-.72-.74-.75-1.07-1.32,2.24.56,2.92-.6,3.91-.12.18-.18-.04-.17-.23-.34,2.83-.73,3.29-.82,5.11,1.3-.49-2.1-1.22-.95-1.73-3.45-.19-.95-1.16-.75-1.62-1.22l-2.25-2.27-3.72-2.59c-1.88-1.31-1.57-1.87-3.01-3.39.77.13,1.12.75,1.51,1.21l.79.95c.24.29,1.92.86,2.86,2.33.4.62,1.33.82,1.89,1.34.18-.53-.4-.37-.51-.73-.38-1.2,3.13,2.12,3.65,2.84l1.71,2.36-.55-1.42c.75.47,1.02,1.37,1.36,2.21,1.13,2.74,1.53,5.59,1.26,8.6-.28-.03-.03-.3-.22-.46-.2.29.11.62-.17.89-.14-.43.06-.86-.29-1.13-.25.83.12,1.52-.27,2.25-.32-.23-.47-.57-.48-.85l-.09-2.46c.53.07.58.48.76,1.01.07-1.78-.08-3.61-.67-5.48-.74.87.24,3.21-.26,3.13-.22-.64-.29-1.3-.4-2.07-.32.52.09,1,.05,1.65-.7-.25-.17-2.7-1.35-3.52ZM130.83,94.02c.18-.15.48,0,.61.15.28.48.71.78.79,1.5-.85-.92-.87.09-1.4-1.64ZM134.17,107.18c.57.05-.54,4.04-.77,3.92.11-1.41.52-2.54.77-3.92ZM131.49,115.14c.3,2.49.94,2.17,2.07,3.98-.6.06-.81-.51-1.23-.84-.84-.66-1.48-1.6-1.41-2.69.43.56.3,1.25.81,1.72.08-.37-.95-1.72-.25-2.17ZM132.23,125.6c.35-.31.83-.4,1.24-.05-.66-.06-1.23.09-1.34.68-.1.53.12,1.12.74,1.14-.22.38-.37.14-.51.08-.38-.19-.71-1.32-.13-1.84ZM133.15,128.44c.62,1.65.71,7.58-.69,8.72-1.12-1.4-.2-7.05.69-8.72ZM134.62,132.15c-.07.4-.34.7-.33,1.18.05,1.23-.16,4.69-1.86,4.64-1.71-.05-1.56-5.63-1.15-6.69l.21.58c.18-.22-.15-.5.23-.59l-.18,4.12c-.04.81-.12,1.64.57,2.24.12.11.36.24.48.19,1.48-.59,1.57-5.4,1.49-6.87-.12-2.22.71.19-.16-2.77-.04-.15-.4-.19-.44-.5-.06-.51-.45-.87-.8-1.24,1.8-1.28,2.09,4.87,1.94,5.71ZM133.36,124.36c-.54-.25-1.05-.2-1.48-.77-1.74-2.28-.59-2.54-2.36-4.28.41-.06.33.4.58.54.52.29.91.75,1.23,1.21.61-.13-.28-.47.01-.67,2.01,1.52,4.12,2.74,6.38,3.91-.54.17-.92-.16-1.34-.13.44.27.78.45,1.19.62-.67.21-1-.34-1.63-.36.38.34.89.36,1.27.8-.52-.03-.81-.5-1.44-.35.15.19,1.63,1.09,1.61.44l1.36.17c-2.02.65-3.74-.38-5.38-1.12ZM144.71,125.35c-.85-.02-1.51-.34-2.19.09-.17.11-.3.6-.6.52l-.52-.9c.24,0,.59-.12.6-.34,0-.25-.39-.32-.46-.57l1.2.65c.1-.53-.49-.6-.74-.89-.34-.4-.49-.68-1.07-.78-.52-.1-1.04-.56-1.65-.1.27,0,.54.04.89.13-.51.71-3.28-.6-3.52-1.23-.35-.95-.63-2-1.8-2.23.38.76.95,1.23.92,2.12l-2.65-1.36c-1-.51-2.04-1.07-2.87-1.84-.57-.54-.99-1.15-1.78-1.48-.15-.06-.18-.54-.51-.33l.74,1.15c-.51-.14-.92-.66-1-1.19-.11-.75,1.58-.2,1.88-.22.33,1.17,1.1,2.11,2.15,2.7-.09-.33-.4-.41-.6-.68.01-.13.16-.2.2-.31-.55-.56-1.25-1.06-1.1-1.99.47.94,1.66,2.6,2.59,3.14.7.41,1.27.96,2.07,1.32-.81-1.63-1.74-3-2.29-4.67.17-.25-.02-.45-.17-.25l.19,1.54c-.87-2.11-.86-3,.28-5.02.22.52-.22.81-.37,1.25.67-.29-.12,3.03.88,2.95-.17-.54-.19-1.45.23-1.48.26-.02.26.41.46.52.1.06.25-.03.45-.02-.5.58-.7,1.29-.54,2.14.31,1.65,2.61,1.85,2.9,3.34.07.36,0,.92.37,1.09.1,0,.15-.23.24-.26.08-.03.3.02.37.09.54.52,1.08.37,1.71.35,1.5-.04,2.32,1.45,3.67,0,.12-.13.66.12.63.31-.17,1.04.07,1.8.79,2.74ZM145.69,102.12c-.37-.83-.8-1.48-.95-2.36.56.87,1.04,1.45.95,2.36ZM144.66,112.1c-.13-1.35-.12-2.69,0-4.13.13,1.35.12,2.69,0,4.13ZM146.11,109.74c-.17-.48-.2-1-.26-1.57-.16-1.59-.57-3.03-.98-4.6.85,1.4,1.04,3.04,1.22,4.67.07.46.22.86.02,1.49ZM145.33,103.47c.79,1.19,1.15,2.67.94,4.33-.09-1.4-.49-2.74-.94-4.33Z"/>
  <path class="cls-1" d="M101.92,62.3c-.4.61-.78,1.24-.98,2.01.49-.6.84-1.19.98-2.01Z"/>
  <path class="cls-1" d="M136,91.75c.58,0,1.27-.46,1.27-1.2v-1.2c-.51-.36-1.13-.46-1.76-.33-.7.15-1.02.84-.89,1.52.14.76.66,1.23,1.38,1.22ZM136.97,90.18c.03.4-.13.95-.61,1.06.21-.51.49-.79.36-1.23-.1-.32-.38-.57-.75-.74.72-.1.97.41,1.01.9ZM135.5,89.62c.17-.09.36-.07.52.19.18.3.29.63.11.84-.16.19-.5.28-.79.14-.34-.17-.26-.95.16-1.17Z"/>
  <path class="cls-1" d="M70.55,50.2c-1.13-.71-2.05-1.35-3.23-1.68,1.08.67,2.1,1.36,3.23,1.68Z"/>
  <path class="cls-1" d="M55.24,99.61c.27-.92.62-1.69.83-2.64-.52.8-.83,1.68-.83,2.64Z"/>
  <path class="cls-1" d="M58.82,40.9c.98.61,1.86,1.24,2.97,1.56-.99-.64-1.86-1.25-2.97-1.56Z"/>
  <path class="cls-1" d="M60.72,100.73h.12c0-.16.01-.31.02-.46-.04-.02-.08-.03-.12-.06,0,.18,0,.35-.03.52Z"/>
  <path class="cls-1" d="M55.08,124.71c-1.76.71-.95-.01-2.19.83.91-.06,1.62-.31,2.19-.83Z"/>
  <path class="cls-1" d="M57.05,97.52c.4.06.54-.34.88-.47.58-.07,1.15.08,1.63-.39-.98-.33-1.96.09-2.51.87Z"/>
  <polygon class="cls-1" points="54.02 42.93 54.02 42.93 54.03 42.93 54.02 42.93 54.02 42.93"/>
  <path class="cls-1" d="M106.45,58.19c-.56-.07-.82.32-1.17.22l-.22.92c.38-.52.91-.78,1.39-1.14Z"/>
  <path class="cls-1" d="M125.01,71.89c-.1-.54-.6-.98-1.16-.84-.4.11-.68.89-.37,1.15.23.18.6.17.64.64.3-.39-.08-.73-.02-1.23.77.76.3,1.87-.54,2.43-.42.27-.69.59-.71,1.05-.02.43.15.76.49,1.04-.58.13-.99.39-1.15.75-.2.45-.36,1.03.08,1.35.46-2.27,1.74-1.01,1.95-2.12.03-.15-.04-.47-.28-.44-.24.03-.45.11-.55-.05-.54-.94,2.08-1.22,1.61-3.72Z"/>
  <path class="cls-1" d="M65.6,81.75c-1.11.24-2.18-.21-2.9-1.08-.67-.8-.29-2.14.57-2.65-.21,1-.2,1.96.54,2.61.56.5,1.6.67,2.29.26.81-.47,1.35-1.54,1.24-2.48-.11-.9-.88-1.53-1.72-1.79-.77-.24-1.56.33-2.05.88-.13.15-.39-.05-.55.08-.71.55-1.16,1.45-1.02,2.37.29,1.88,1.97,2.48,2,2.64.03.17-.03.29.02.49.33-.28,1.05-.38,1.26.12l2.22-1.16c1.66-.86,2.49-4.37,1.37-5.43.37,2.57-1.02,4.65-3.28,5.14ZM66.11,77.57c1.13.81.7,1.8.59,1.78-.37-.05-.09-.95-.66-1.39-.4-.31-.83-.32-1.44-.33.3-.53,1.02-.41,1.5-.06ZM64.45,78.65c.13-.35.43-.69,1.11-.49-.19.54-.33,1.25-.86,1.54-.33-.08-.37-.73-.25-1.05Z"/>
  <path class="cls-1" d="M126.78,77.37c-.63-.33-1.24-1-2.08-.77-.69.19-1.45.71-1.7,1.44-.38,1.11.29,2.48,1.35,2.91,1.13.46,2.32-.08,2.71-1.15.23-.64,0-1.22-.12-1.95.59.53,1.21,1.35.88,2.23-.55,1.47-2.32,2.11-3.7,1.49-1.93-.87-3.07-2.71-2.71-4.83-1.06,1.11-.26,3.72.72,4.72.68.69,1.63,1.22,2.52,1.45.55.14,1.17-.27,1.7,0-.14-.95.18.07,1.41-1.73.68-1,.68-2.07.05-3.07-.28-.45-.59-.53-1.04-.77ZM125.5,79.67c-.18.02-.24-.34-.33-.35-.07,0-.12.25-.27.15-.37-.25-.32-1.12.05-1.31.41-.21.78.29.9.57.12.29.14.89-.35.95ZM124.42,77.78c-.51.32-.72.94-.68,1.67-.59-.54-.23-1.35.35-1.76.34-.24.76-.45,1.19-.32.28.08.78.27.84.7-.61-.43-1.16-.62-1.7-.28Z"/>
  <path class="cls-1" d="M126.48,83.04c3.63,2.67,3.51-.07,5.07.62.41.18.53.54.41.91-.08.25-.57.65-.83.25-.06-.09.28-.27.3-.37.02-.13-.04-.34-.21-.39-.1-.03-.25-.11-.43.06-.36.32-.35,1.19.14,1.42.54.26,1.16-.09,1.38-.43.32-.5.22-1,.13-1.59,1.19.79-.16,2.66.95,2.91.35.08.76-.06.89-.38.11-.29.08-.73-.33-.76.03.23.05.4-.02.53-.08.15-.43.23-.46,0-.12-.76.28-1.61-.17-2.28-1.29-1.94-3.17-1.89-2.66-3.26.37.02.52.48.61.79.72-.56-.86-1.92-1.43-1.96.3,1.31-.17,2.39,1.13,3.11.24.13.26.32.2.54.17,0,.38-.13.5,0,.14.15.41.14.33.47-1.82-.8-2.13,1.44-4.03-.03.84-.71,1.33-1.51,1.28-2.6-.04-.88-.09-1.84-.89-2.35.18.83.49,1.5.37,2.28-.2,1.25-.91,2.2-2.22,2.53Z"/>
  <path class="cls-1" d="M59.98,83.84c1.43.95,2.53,0,3.91-.72-1.45-.38-2.26-1.46-2.34-2.87-.04-.83.25-1.57.48-2.29-1.46,1.53-1.39,3.91.28,5.22-1.62,1.38-2.08-.61-4.09,0,.19-.52.65-.36,1.08-.41-.93-.8,1.27.18,1.19-3.59-.44-.2-1.96,1.14-1.57,1.86.17-.32.36-.58.7-.76.6,1.62-1.96,1.51-2.78,3.69-.26.7.19,1.39-.15,2.06-.37-.17-.12-.77-.49-.74-.33.14-.36.74-.15.98.23.26.59.29.93.15.87-.36-.19-2.18.68-2.64.04.62.03,1.13.5,1.53.26.22.78.5,1.24.22.46-.28.46-1.08.08-1.41-.18-.15-.4-.06-.51.01-.12.08-.19.28-.08.4.07.07.35.14.31.31-.08.37-.57.13-.74,0-.21-.15-.34-.46-.2-.73.36-.67,1.12-.66,1.69-.27Z"/>
  <path class="cls-1" d="M54.93,87.69c.3.11.65-.1.84-.31.18-.19.32-.55.17-.83-.23-.42-.77-.5-1.18-.32-.29.12-.64.48-.54.9.04.16.24.29.33.28.33-.02.08-.94.72-.85.16.02.45.18.32.46-.15.32-.47.38-.65.66Z"/>
  <path class="cls-1" d="M135.29,86.57c.27.11.16.81.43.85.07.01.25-.04.32-.14.2-.29.07-.63-.07-.81-.19-.24-.44-.32-.77-.33-.51,0-.93.3-.91.81.02.38.41.76.96.78.13-.33-.83-.59-.49-1.07.1-.14.34-.17.53-.09Z"/>
  <path class="cls-1" d="M95.14,4.42C49.56,4.42,12.61,41.37,12.61,86.95s36.95,82.53,82.53,82.53,82.53-36.95,82.53-82.53S140.72,4.42,95.14,4.42ZM148,124.4c.52,1.57-.05,2.69-.43,3.22-.38.53-1.28,1.42-2.95,1.42-.21,0-.41-.01-.6-.03-.55.32-1.28.62-2.17.62-.65,0-1.29-.16-1.86-.47-.57.17-1.16.28-1.8.33.37,3.15.1,6.81-1.32,9.58-.91,1.77-2.5,2.83-4.24,2.83h0c-.08,0-.15,0-.23,0-1.94-.11-3.66-1.47-4.4-3.48-1.25-3.39-.45-7.73.38-10.96-.16-.84-.18-1.61-.04-2.29-.7-1.07-.99-2.05-1.18-2.69,0,0,0,0,0-.01-.66-.47-1.72-1.32-2.09-2.85-.04-.06-.1-.14-.14-.2-2.11-3-.29-4.92.32-5.44,1.14-.97,2.36-1.06,3.02-1.11.04,0,.09,0,.13,0,.07-.08.18-.24.32-.49,1.4-2.51,2.02-5.69,1.79-9.04-.02-.04-.05-.07-.07-.11-.17.07-.34.12-.51.17-.35.83-.9,1.7-1.8,2.42-1.25,1-2.79,1.53-4.44,1.53-1.28,0-2.56-.34-3.69-.95h-.14c-1.29-.06-2.4-.87-2.89-2.09-.54-1.36-.2-3.17.8-4.21.33-.34.66-.59.99-.78-.31-.31-.63-.67-.96-1.09-.77-.23-1.46-.66-2.02-1.26-.24-.25-.44-.52-.61-.81-.93-.05-2.57-.31-3.85-1.82-1.22-1.44-1.65-3.23-1.17-4.91.21-.74.62-1.37,1.16-1.85.09-.81.34-1.59.71-2.3-.02-.11-.04-.22-.05-.33,0-.02,0-.04,0-.06-.01,0-.02-.01-.02-.01h-.26c-1.86.01-2.85-1.23-3.21-1.7-.23-.17-.61-.36-.97-.55-.24-.12-.48-.25-.72-.38l-3.02-1.67c-.92-.51-1.98-1.16-3.09-1.84-1.55-.95-3.15-1.93-4.22-2.44-.3-.14-.55-.29-.76-.41-.74.34-2.13,1.13-4.14,2.35-1.13.69-2.24,1.14-3.22,1.54-.65.26-1.26.51-1.79.79l-3.92,2.08c-.2.1-.53.28-.67.38-1.01,1.28-2.19,1.9-3.6,1.9h-.04c-.01.14-.03.28-.06.43.35.69.58,1.43.67,2.19.46.4.82.91,1.06,1.52.66,1.68.32,3.55-.91,5.13-1.27,1.61-2.95,1.91-3.92,1.96-.32.52-.76.99-1.31,1.4-.42.31-.87.54-1.32.69-.31.42-.64.79-.98,1.1.18.1.35.21.54.35,1.34,1.02,1.69,2.88,1.34,4.19-.35,1.32-1.43,2.29-2.75,2.48l-.38.03c-1.1.61-2.35.94-3.62.94-1.58,0-3.13-.51-4.37-1.44-.98-.73-1.57-1.65-1.93-2.51-.19-.05-.39-.12-.59-.2-.27,1.81.05,3.9.41,5.72.21,1.05.59,2.04,1.27,3.3.2.38.35.56.42.64.08.01.18.02.26.03.5.06,1.25.15,2.06.56.94.48,1.62,1.3,1.91,2.29.31,1.05.16,2.2-.42,3.23-.17.3-.37.55-.54.73-.27.83-.8,1.96-2.01,2.77-.18.73-.49,1.88-1.54,3.14-.03.04-.07.08-.1.12.51.5,1.07,1.16,1.49,2.06,1.17,2.52,1.29,5.65.29,7.97-.72,1.67-2,2.89-3.61,3.43-.66.22-1.34.33-2.01.33-1.28,0-2.54-.4-3.64-1.17-1.79-1.25-2.9-3.27-3.2-5.85-.14-1.18.02-2.23.21-3.13-.25-.05-.51-.11-.78-.19-.44.24-1.06.49-1.84.49-.84,0-1.55-.29-2.08-.62-.2.03-.41.04-.65.04-.73,0-1.4-.19-1.97-.56-.93-.6-2.29-2.05-1.06-5.07-.08-.68-.24-1.12-.48-1.8-.22-.63-.5-1.41-.77-2.5-1.58-6.55-1.73-13-.43-19.17.4-1.88.98-3.63,1.9-5.69.17-.38.31-.76.42-1.1-.59-.2-1.23-.56-1.79-1.2-1.17-1.34-1.47-3.19-.78-4.72.49-1.06,1.4-1.79,2.71-2.18,2.16-.64,3.22-1.41,4.84-2.58.79-.57,1.69-1.22,2.81-1.91,1.25-.77,1.37-.89,1.61-1.11.36-.34.76-.7,1.65-1.38.51-.39,1.01-.8,1.53-1.25.98-.81,1.98-1.66,3.17-2.42.09-.06.26-.17.48-.31-.92-.68-1.57-1.57-1.92-2.6-.47-.4-.76-.85-.92-1.19-.9-1.85-.64-4.13.64-5.68.81-.97,2.01-1.53,3.31-1.53,1.05,0,2.08.36,2.89,1.02.57.47,1.03,1.02,1.35,1.63.14-.08.28-.16.43-.24,1.76-1,3.45-1.49,5.17-1.49.38,0,.76.02,1.14.07.21-.04.46-.08.73-.08.99,0,1.94.44,2.58,1.2.12.14.27.34.4.57.03,0,.07,0,.1,0,.26-.13.55-.3.85-.47.49-.28,1.04-.6,1.66-.87-.17-.43-.29-.92-.36-1.5l-1.47-.85-7.4-4.13c-.94-.53-1.91-.99-2.94-1.48-.5-.24-1-.48-1.51-.72l-2.98-1.47c-.17-.08-.28-.14-2.58-1.49-1.92-1.12-5.45-3.19-6.08-3.51l-2.88-1.26c-1.36-.6-2.36-1.81-2.73-3.34-.26-1.09-.04-1.99.23-2.64-.48-2.85,1.22-6.07,3.05-7.68.58-.51,1.33-.81,2.11-.85l.41-.32c.07-.02.13-.03.2-.05.28-.27.61-.49.97-.68.69-.36,1.43-.54,2.19-.54s1.56.2,2.26.59c.97.53,2.18,1.57,2.75,3.55.45.01.88.1,1.28.26,1.23.49,2.15,1.44,2.6,2.65.08.23.15.47.19.71l16.72,9.11c1.72.94,3.35,1.83,5.08,2.67.5.24.95.51,1.35.74.46.27.85.5,1.22.65l.21.09,5.42,2.7,7.82-4.12,21.08-11.41c.24-.13.49-.26.74-.39.02-.01.05-.02.07-.03.09-.52.28-1.06.64-1.59,1.17-1.72,2.65-2.01,3.47-2.03.31-1.06.94-2.64,2.91-3.65.65-.33,1.34-.5,2.07-.5s1.45.17,2.11.49c.4.19.76.44,1.07.73.23.06.46.14.68.25.1.05.2.1.29.16,2.32.37,3.73,3.22,4.23,4.45.71,1.72.78,3.09.59,4.13.23.6.4,1.35.27,2.23-.43,2.89-3.01,3.84-4.4,4.35-.33.12-.73.27-.89.36-2.61,1.56-5.2,2.95-7.61,4.22-.04.03-.08.07-.12.1-.27.23-.69.58-1.27.86l-3.05,1.49c-.37.18-.75.36-1.12.54-1.24.6-2.42,1.17-3.59,1.83l-8.5,4.75c-.07.62-.21,1.14-.4,1.61.28.13.57.26.87.39.53.23,1,.51,1.4.75.08.05.17.1.26.15,0,0,.01,0,.02,0,.59-1.08,1.7-1.76,2.99-1.76.23,0,.44.02.61.05.41-.05.81-.08,1.21-.08,1.79,0,3.55.51,5.39,1.55.09.05.18.1.27.16.45-.86,1.15-1.59,2.05-2.08.66-.36,1.4-.55,2.15-.55,1.67,0,3.18.92,3.96,2.41,1.03,1.97.71,4.38-.76,5.87,0,0-.1.1-.13.13-.34,1.04-1.01,1.96-1.97,2.66.3.21.6.42.9.63,1.51,1.06,3.07,2.16,4.57,3.47.05.04.12.08.19.12.38.24.95.61,1.49,1.25.11.13.58.43.74.53,1.39.87,2.86,1.81,4.35,2.94,1.08.82,2.33,1.44,3.94,1.95.48.15,1.92.61,2.65,2.1.7,1.43.51,3.17-.52,4.55-.6.81-1.34,1.23-2.01,1.46.11.32.25.68.42,1.06.81,1.77,1.34,3.3,1.72,4.94,2.46,10.8.05,19.14-1.11,23.14-.11.37-.23.8-.31,1.11l.31.96Z"/>
</svg>