<?xml version="1.0" encoding="UTF-8"?>
<svg id="Camada_1" data-name="Camada 1" xmlns="http://www.w3.org/2000/svg" viewBox="0 0 190.28 173.89">
  <defs>
    <style>
      .cls-1 {
        fill: #1d1d1b;
        fill-rule: evenodd;
      }

      .cls-2 {
        fill: #fff;
        stroke: #000;
        stroke-miterlimit: 10;
        stroke-width: .25px;
      }
    </style>
  </defs>
  <path class="cls-2" d="M43,99.43c-.72.25-1.43.97-1.8,1.57l-1.12,1.82c-.16.25-.44.49-.77.3-.37-.21-.61-.74-.92-.96-.54-.01-1.08.14-1.72.03-.16,1.09,1.14,1.73,2.34,1.71,3.54-.06-.07-4.92,9.22-4.91.87,0,1.65-.12,2.53.09.55.13,1.19.31,1.72-.02-3.18-.66-6.42-.67-9.47.37"/>
  <path class="cls-2" d="M53.9,112.76c.23-.11.12-.81-.14-.82-.78-.04-1.52.48-1.87.98-.76,1.08-.18,2.58-.09,2.58.56.03-.13-1.68,2.11-2.74"/>
  <path class="cls-2" d="M93.66,31.17c.37-.55.5-.84.94-1.22-1.58.06-2.97.11-4.45.39,2.95,1.22,1.93-.39,3.51.83"/>
  <path class="cls-1" d="M95.14,5.42c45.03,0,81.53,36.5,81.53,81.53s-36.5,81.53-81.53,81.53S13.61,131.97,13.61,86.95,50.11,5.42,95.14,5.42"/>
  <path class="cls-2" d="M133.08,115.58c-.58,2.24-.1,1.16-1.48,2.48.68.42,1.2-.16,1.8-.51.32.35.11.65-.04.9-.13.22-.44.13-.75.3.48.61.94.24,1.45,0,1.03-.46,1.76-1.73,1.04-2.8-.45-.42-1.44-.33-2.02-.38"/>
  <path class="cls-2" d="M123.15,99.26l-4.96.94c-1.11.21-2.13.51-3.24.7-2.97.49-6.97,2.01-9.82,3.06l-3.26,1.2c-2,.74-4,1.44-6.05,2.12l-4.79,1.58c-1.46.48-2.82,1.06-4.27,1.53l-2.3.74c-1.83.59-3.54,1.32-5.41,1.83-1.21.33-2.32.81-3.57,1.07-1.3.27-2.54.67-3.72,1.24-1.3.63-2.66,1.11-3.62,2.19l2.37-1.16c1.03-.5,2.05-.96,3.2-1.15,2.26-.37,7.35-1.98,9.57-2.82l4.34-1.66c.76-.29,1.52-.52,2.31-.74.88-.25,1.64-.64,2.49-.93l5.05-1.7,3.52-1.16,2.68-1.01c1.08-.41,2.12-.8,3.2-1.24,1.53-.61,2.98-1.29,4.6-1.66l4.7-1.08,2.63-.64c.68-.17,4.1-.72,4.5-.9.06-.02-.02-.36-.15-.33"/>
  <path class="cls-2" d="M131.37,113.53c.51.15.94.45,1.53.57.87.18,1.92-.18,1.92-1.2-2.07,1.96-2.77-.54-3.45.63"/>
  <path class="cls-2" d="M133.64,114.69c0,.09.21.17.35.18.45.04.93,0,.89-.57-.38.22-1.23-.07-1.24.38"/>
  <path class="cls-2" d="M135.97,110.96c.53-.25.66-.69.51-1.13-.36.28-.68.63-.51,1.13"/>
  <path class="cls-2" d="M103.88,106.06c1.92.72,3.65.67,5.51,1.32.85.3,1.82.5,2.67.7.13.26-.29.59-.6.51-2.2-.6-4.37-1.05-6.59-1.51-.98-.2-2.44-.9-2.87-.47.58.45,4.61,1.42,5.1,1.48.27.03.75.31.53.58-.15.18-.62.1-.83.04-1.96-.56-5.77-1.7-7.64-1.3.67.41,1.45.34,2.21.55l2.97.85c.52.15,1.06.27,1.45.8-.76.05-1.45-.15-2.15-.36-1.75-.52-3.52-.98-5.29-1.32-.09.03-.08.31,0,.35.58.25,1.94.38,3.6.98,2.52.91,4.79,1.06,5.65,1.37.84.31,1.7.41,2.54.67l3.26.98,4.92,1.66,2.62.92c.16.06.33.22.28.33-.04.11-.22.3-.41.24l-4.34-1.45c-1.96-.65-3.8-1.37-5.8-1.91-1.55-.42-2.99-.93-4.6-1.14-.99-.13-1.99-.21-2.93-.52l-2.86-.93-1.09-.29c-.94-.25-1.79-.61-2.84-.65.96.71,2.07.84,3.11,1.16l3.91,1.17,4.81,1.13,6.19,1.65c1.09.29,2.07.85,3.22,1.18l2.71.8c1.54.45,3.16.57,4.58,1.36.46.26.96.53,1.26.92l.44.55c.22.28.3.56.33.86.02.24-.38.41-.38.65,0,1.17-.21,2.27.53,2.75.37.24.91.62,1.36.27.41-.33-.87-.88-.36-1.1.29-.13,1.9,1.6,3.66.58.61-.35.92-1.17.93-1.8.03-1.91-1.83-1.28-1.94-2.42-.11-1.18,1.9-.56,1.73-2.75-.57-.51-2.32-1.28-1.46-2.43.43-.58,1.24-.67,1.87-.33,1.37.75,2.42-.95,2.44-1.07l.45-1.95c.08-.34.66-.48.76-.85.24-.89-1.43-1.61-2.29-1.75-2.15-.34-3.29.12-4.22,2.29.42.12.58-.23.84-.47,2.15-1.94,3.07-1.01,4.25-.78.22.04.39.17.43.34.03.12-.05.38-.25.4-1,.09-2.05-1.03-3.62.41-.81.75-1.68.9-2.72.96-2.73.17-5.39.1-8.1-.44l-5.61-1.13c-.54-.11-1.02-.39-1.56-.47-.93-.15-4.08-.97-4.93-1.29-.22-.08-4.76-1.45-4.82-.89M127.9,119.24c-1.08.25-.18-.95-.38-1.93.96-.07.49,1.33.38,1.93M127.78,116.85c-.07.14-.41.04-.5-.15-.71-1.52-2.02-1.14-2.09-2.21.89-.16,3.12,1.35,2.59,2.36M113.67,111.18l2.96.89,3.44,1.21c.26.09,3.25,1,2.91,1.39-.38.42-5.06-1.52-5.98-1.82l-5.43-1.76c-.59-.19-1.22-.17-1.8-.65.45-.64,3.1.49,3.91.74"/>
  <path class="cls-2" d="M136.5,113.67c-.18.38-.65-.25-.88-.26-.46-.01-.5.79-.51,1.18-.02.55.53,1.29,1.17,1.17,1.81-.37,2.5-2.58,1.92-1.96-.55.59-.93,1.35-1.47,1.36.27-.78.81-1.31,1.39-1.84.15-.14.06-.46.18-.69.29-.56.35-1.13.02-1.71-.23-.4-.65-.84-1.29-.84-.06.6-.24,1.09-.42,1.61-.21.62.18,1.39-.1,1.99"/>
  <path class="cls-2" d="M108.66,103.5c-.47.48,5.11-.93,3.51-1.04l-3.51,1.04Z"/>
  <path class="cls-2" d="M37.44,99.84c.64-.28,1.21.51,1.39.41.15-.08.27-.19.26-.36v-1.45c0-.32,1.74-2.36,2.36-1.75-.44.78-1.75,1.26-1.64,2.3.02.22.26.33.43.31.14-.02.08-.22.13-.39,1.3-1.66,6.31-2.09,8.34-2.03,5.03.15,6.42,1.3,10.46,1.92.86.13,1.71.27,2.59.46,2.93.63,5.8,1.09,8.74,1.62l3.88.7c1.73.31,3.46.45,5.15.87l4.37,1.11c.34.09.76.12,1-.29l-6.01-1.4c-2.23-.52-4.06-.77-6.08-1.31-.16-.04-.24-.25-.31-.32-.07-.06.11-.35.24-.32l5.87,1.25,6.52,1.43c1.11.24,2.2.43,3.35-.1-.38-.45-.95-.39-1.46-.51-2.46-.56-3.7-.51-6.05-.94-.35-.07-2.17-.06-2.03-.53.04-.13.24-.21.42-.19l4.16.49c1.85.22,3.62.61,5.47.95.63.11,1.24.3,1.85,0-.21-.44-.59-.3-.91-.36l-3.99-.78c-.41-.08-.76-.13-1.16-.21l-7.16-1.41c-2.8-.55-5.44-1.23-8.28-1.59-1.08-.14-2.13-.43-3.17-.7-.41-.11-.54.4-.74.38-3.11-.2-6.1-.82-9.13-1.44-.61-.13-1.29-.16-1.73-.7,1.45-.1,2.72.24,4.05.49l4.08.79c.51.1.99.34,1.53.06-.57-.38-1.19-.38-1.79-.62-3.97-1.53-7.94-1.79-11.89-2.8-1.24-.32-2.32-.81-3.49-1.28-1.24-.51-2.38-1.04-3.26-2.19-.2.63-.19,1.06-.62,1.45-.14.13-.33-.06-.38-.2.02.05.95-2.12-1.1-3.91-1.24-1.08-1.12-.37-2.29-.79-.89-.32,1.31-.84,1.9-.46,1.25.81,2.02,2.09,2.91,3.25.36.47.58.98,1.2,1.21.43-1.12-.12-2.04-.83-2.78-.56-.58-1.08-.81-1.81-1.15-.99-.45-1.86-2.56-3.54-2.25-1.18.21-2.09,1.05-2.58,2.19-.27.63-.09,1.42.24,2.03.5.91-1.33,1.02-1.26,3.15.03.84.44,1.52,1.32,1.58.12,0,.32.29.47.12.07-.07.19-.13.23-.24-.27-.18-.5-.15-.78-.14-.43.02-.61-.4-.68-.78-.19-1.11.39-2.06,1.21-2.74.17-.14.22-.47.48-.37.7.27.18,1.33.32,1.64.25.37.89.62.93,1.11.06.87-.73,1.57-1.49,1.93-2.33,1.1-.23,2.69-1.4,4.11-.27.33-.58.54-.52,1.04.07.66-.45,1.51-.77,1.32-.55-.33.25-.57.03-1.57-1.17,0-1.95.8-1.97,1.9-.02.81.23,1.48.85,1.92.81.58,1.61.56,2.39-.08.39-.32.76-.54.73-1.18-.01-.31.2-.74.45-.85M57.95,97.22c.7-.15,1.44.15,2.16.33,1.92.49,3.78.87,5.83,1.05.25.02.35.16.36.27.01.11-.15.32-.34.3-2.54-.24-5.02-.75-7.5-1.45-.15-.04-.32,0-.41-.06-.09-.06-.24-.41-.1-.44M50.8,95.62c.69.07,4.38.57,4.45,1.05.06.41-1.27-.01-1.24,0-.96-.08-1.82-.24-2.73-.58-.23-.09-.66-.05-.49-.47M43.56,96.36c.41-.3.89-.57,1.36-.22-.39.39-.9.46-1.36.22M38.51,95.34c3.58-3.04,10.8-1.15,10.76-.45-.01.18-.19.27-.41.2-2.01-.58-4.05-.84-6.14-.61-1.49.16-4.41.75-4.02,2.82.06.34.15.75-.18.98-.76-.75-.89-2.19-.01-2.94"/>
  <path class="cls-2" d="M156.47,86.11c.05.06.32.16.36.04.1-.3.35-1.94-.36-1.87-.07,0-.13.05-.18.21.67.64.08,1.51.18,1.62"/>
  <path class="cls-2" d="M155.09,95.02c.66.21.46,1.42,2.24,2.19-.2-.74-.88-.94-1.15-1.53.21-.15.56-.25.79-.06.35.27.4.73.85,1.02.12-.79-.44-1.41-1.12-1.71-2.52-1.12-5.46-.66-8.11-.23l-4.04.67c-1.1.18-2.15.43-3.26.58l-5.54.75c-.44.06-.88.14-1.29.35.76.23,1.52-.05,2.32-.1,1.01-.06,1.97-.21,2.99-.36l3.71-.55c1.49-.22,2.87-.56,4.43-.7,1.82-.17,5.73-.77,7.18-.32"/>
  <path class="cls-2" d="M119.85,116.09l-6.54-1.96c-1.33-.4-2.58-.73-3.9-1.13-1.23-.38-2.45-.75-3.71-.95-1.44-.23-2.72-.79-4.11-1.17-1.28-.35-2.52-.58-3.78-.99-.85-.28-1.72-.63-2.67-.58.86.75,1.93.69,2.88.99,2.22.71,4.41,1.18,6.68,1.73,1.78.43,3.47.95,5.2,1.52,2,.66,3.94,1.19,5.99,1.71,1.5.38,2.86,1.05,4.4,1.32,1.28.22,3.78.93,4.78,1.6.06.04.25-.03.31-.03.05,0,.08-.06.04-.12-.57-.73-4.4-1.6-5.57-1.95"/>
  <path class="cls-2" d="M133.57,120.57c-.11.19-.75,2.93-2.35,3.07l-1.43.12c-.04.22.27.33.18.58-.46.04-.78-.45-1.21-.37-.27.05-.14.61,0,.84.2.31,1.74,1.09,3.18.09.42-.3.63-.79.24-1.22.3-.41.7-.62,1.03-.98.66-.74.72-2.75.35-2.13"/>
  <path class="cls-2" d="M56.85,116.45c.02-.24-.22-.47-.22-.71,0-.26.2-.51,0-.65-.63-.44-1.21.97-2.3-.21-.38-.41-.54-.78-.27-1.49-.69.15-.88.83-.74,1.43.16.72.66,1.15,1.19,1.36.72.28,1.21-.06,1.94-.39-.06,1.05-1,1.37-1.87,1.3-1.31-.1-1.45-1.45-1.74-1.74-.11-.11-.51,1.12.56,1.83,1.74,1.14,3.45-.22,3.48-.73"/>
  <path class="cls-2" d="M76.85,102.54l-2.25-.26-5.16-.95-2.43-.38c-1.19-.18-2.3-.49-3.49-.71l-6.26-1.16c-5-.93-6.29-2.39-13.35-1.09-4.27.79-3.93,2.97-5.06,3.01-.46.02-.82-.12-1.22-.54-.2.16-.5.86-.2,1.05.4.25,1.05.27,1.5.28.96.02,1.2-1.46,2.07-2.01.42-.26.82-.6,1.26-.79,1.3-.58,2.72-.65,4.12-.84,4.48-.61,8.28.87,11.65,1.58l1.77.37,4.38.9c1.69.35,3.32.54,5.02.78l2.54.35,6.82,1.01c1.05.15,2,.68,3.11.39-1.61-.36-3.18-.8-4.85-.99"/>
  <path class="cls-2" d="M57.4,115.38c-.14.63.41,1.17.94,1.34.57.18,1.32.22,1.73-.28-.75-.05-1.44.15-2.01-.26-.28-.2-.19-.72-.66-.8"/>
  <path class="cls-2" d="M159.97,91.18c.89.92.86,3.28.13,2.74-.61-.44.39-2.61-1.82-3.07-1.25-.27-3.94-2.19-2.47-2.58.08.33,1.24,1.95,1.7,1.32-.24-.35-.62-.4-.75-.76.16-.23.52-.09.64-.23.78-.95-1.66-1.03-1.52-3.41.06-1.12-.63-1.93-1.65-2.23-2.09-.6-2.31,1.12-3,1.41-.15.06-.33-.15-.5-.17-.41-.03-1.55,1.6-1.46,2.18,1.21.31,1.47-2.01,2.22-1.45.09.07.25.21.19.36-.71,1.63-2.94,2.13-4.59,2.6-1.06.3-2.03.79-3.07,1.14l-3.11,1.04c-1.62.54-3.16.99-4.83,1.36l-4.91,1.08c-.15.39-.35.71-.76.82-1.02.27-2.03.51-3.08.76l-6.85,1.62-2.57.59-3.97,1.12c-1.66.47-3.19,1.03-4.84,1.48l-4.14,1.12c-1.12.3-2.16.68-3.29.95l-3,.74-6.3,1.65c-1.05.28-2,.69-3.11.89-.44.08-.91.28-1.36.42-2.71.85-5.34,1.65-8.1,2.3-.87.2-1.76.84-2.71.22l10.01-2.96c1.42-.42,2.76-.77,4.18-1.14l4.37-1.15,4.79-1.26c2.17-.57,4.25-1.17,6.4-1.81,1.05-.32,2.08-.47,3.13-.86,1.81-.67,3.65-1.02,5.5-1.56l1.7-.5c1.18-.35,2.32-.64,3.53-.85,1.57-.27,3.96-1.12,6.14-1.51,1.22-.22,2.31-.57,3.48-.93-1.73-.07-3.25.32-4.87.66l-6.81,1.42c-.86.18-1.71.38-2.52.65-1.1.37-2.18.54-3.25.89l-3.71,1.21-5.98,1.78-3.1.84c-1.12.3-2.18.6-3.32.89l-4.47,1.17c-2.06.54-4.04,1.01-6.07,1.62-1.55.46-3.11.68-4.61,1.32-1.16.49-2.39.67-3.6,1.09-2.23.78-4.43,1.4-6.72,2.05-.92.26-1.73.57-2.67.76l-3.2.65c-1.11.23-2.22.41-3.35.48-.49.03-.96-.03-1.44.21-1.43.71-1.86-1.04-2.17-.57.35,1.65,2.33,1.28,2.25,1.92-1.08.17-2.3-.29-2.78-1.35-.16-.35-.02-.72-.1-1.12-.87-.78-2.14-1.21-3.3-.72-.87.37-1.45,1.54-1.33,2.41.05.37.67.2.85.3,1.42.86-.03,2.92.86,3.49,2.31-1.05,2.29,1.29,3.07.03,1.18.48,2.54.27,3.61-.46.38-.26.82.09,1.09.28,1.05.74-.43,2.53-.81,3.27-.43.84-.58,1.92-.17,2.71.49.94,1.61,1.27,2.33.63,1.72-1.54.32-1.79,2.71-4.88,1.19-1.53,3.62-2.66,3.59-2.05,0,.07-1.61,1.1-1.43,1.01-.85.45-1.41,1.04-1.96,1.82-1.78,2.53-.24,1.87-1.97,4.05-.71.89-1.79,1.54-2.95,1.02-1.52-.68-1.5-3.26-.68-4.77.24-.45,1.8-2.05.58-2.61-.26,1.11-1.21,1.75-1.31,2.55.07,1.03-.05,1.97-.81,2.73-.17.17-.28.88-.65.66-.76-.44,1.1-1.36.61-2.2-.33-.56-1.44-1.84-2.3-1.33.42,1.88-1.4,1.54-.99,2.6.57,1.48,2.45.72,2.15,1.15-.13.35-.28.59-.49.91-.54.82-.45,2.1.36,2.76.5.41,2.39,1.01,2.57.11.07-.36.01-.73-.36-.86l-.3.85c-2.02-1.1-.83-2.1-1.25-2.44-.22-.18-.83,1.48.39,2.31.19-.05.16.16.08.14-.7.01-.9-.42-1.15-.9-.39-.75-.2-1.56.48-2-.02-.2-.11-.5.06-.55.93-.31,1.33,1.18,1.55,1.79.3.16.82.23.96.56.13.31-.01.67.01,1.06.02.3.69.66.98.58.53-.14.89-.66,1.06-1.1.44-1.16,1.22-.01,2.02-1.97.09-.21.18-.33.36-.31.6.06-.28,1.16-.19,1.4.67-.05,1.13-.53,1.32-1.12.25-.76.24-1.52-.19-2.23-.93-1.55,1.2-1.58.79-2.81,1.54-1.61,5.47-3.21,7.6-3.7,1.36-.32,2.64-.79,3.99-1.19,1.66-.49,3.22-1.03,4.86-1.61l4.17-1.47,4.83-1.61,3.93-1.22,4.13-1.5,5.25-2.01c.8-.31,1.55-.55,2.38-.8l3.43-1.06c1.28-.39,8.66-2.01,9.93-2.15l1.71-.19c1.04-.12,2.02-.22,3.05-.43l7.89-1.58,4.55-.91,4.28-.68,7.51-1.3c1.93-.33,3.7-.19,5.46.61.93.42,1.77.95,1.93,2.04-.14.25-.2.56-.45.79.24.19.56.19.74.07.68-.46-.18-2.34-.68-2.63-1.52-.89-3.27-1.39-5.05-1.48-1.29-.06-2.49.33-3.73.53l-3.55.57-5.24.78c-.47.07-.87.2-1.35.23-1.08.07-2.1.43-3.2.58-2.88.4-5.62,1.13-8.47,1.66l-3.98.73c-.17.08-.14-.12-.04-.25,1.55-.57,3.14-.91,4.8-1.19,1.98-.33,3.84-.76,5.79-1.22,2.07-.48,4.08-.81,6.19-1.11l8.55-1.23c3.76-.54,4.41-1.06,7.88.01,1.63.5,2.16.27,2.83,2,.25.65.5,1.24,1.07,1.68-.17.23-.41.25-.44.55.55.21.95-.16,1.26-.56.68-.89.4-2.04-.18-2.95-.39-.61.11-2.85-1.31-2.71M65.02,112.74c-.16.48-2.09-.16-3.22.32-.88.83-3.93,1.26-3.73.39.16-.7,1.02.16,3.27-.93,1.77-.86,3.84-.23,3.68.22M72.61,110.15c.36-.49,1.05-.48,2.11-1,.18-.09.73-.15.74.08.02.49-3.54,1.84-2.85.92M70.27,111.33c-3.8,1.87-3.47.72-3.01.56l2.88-.99c.13-.04.26,0,.32.11.05.09-.01.24-.18.32M82.97,108.7l-.25.25c-1.04,1.02-3.09,1.09-4.68,1.61l-2.07.68c-.81.27-4.63,1.68-5.1,1.35-.22-.15.1-.48.32-.53,1.92-.41,3.69-1.12,5.54-1.73,1.17-.39,2.29-.72,3.41-1.25,1-.47,3.41-.96,2.83-.39M84.44,108.04c.45-.41,1.09-.73,1.55-.31-.48.45-1.03.58-1.55.31M93.19,106.02c-.09.06-.17.23-.32.3-.51.22-3.94,1.45-4.03.81-.01-.1.09-.3.26-.32,1.37-.23,2.61-.74,3.94-1.06.1-.02.23.23.15.28M95.72,105.12c-.12-.48,1.14-.73,1.12-.27-.01.44-1.05.56-1.12.27M97.89,104.28c.24-.6,1.01-.62,1.5-.58.4.55-1.28.86-1.5.58M126.22,95.92c-.06.03-.11.19-.24.22-.71.17-1.41.47-2.14.56-.48.06-.82.17-1.26.29l-4.64,1.3-1.73.57-4.02,1.11-3.56,1.3c-.53.19-5.03,2.09-4.68,1.33.03-.07.11-.19.25-.24l4.34-1.67c1.59-.61,3.15-1.21,4.8-1.66l4.09-1.11c1.27-.35,2.46-.76,3.75-1.07l4.98-1.22c.08-.02.14.27.08.3M134.11,94.39l-2.91,1.02c-.18.07-.35.04-.44.02-1.18-.25,3.03-1.5,3.23-1.55.2-.05.33.05.37.2.04.14-.06.26-.25.32M137.07,93.23c.18-.11,2.3-1.07,2.25-.43,0,.34-2.13,1.17-2.25.43M148.75,90.51c-.13-.13-.04-.37.09-.42.14-.06.29-.1.48-.15l.26-.06c.15-.03.26.06.25.21-.02.3-.81.7-1.09.42M151.58,89.65c-.27-.12.22-.58.41-.62,1.49-.33,1.45-1.4,1.68-2.35.03-.11.45-.14.48-.03.31,1.58-1.24,3.61-2.56,3.01"/>
  <path class="cls-2" d="M164.29,93.59c-.15-.34-.23-.5-.23-.81-.05-3.01-2.29-4.11-3.73-4.56.06-.8-.19-1.47-.51-1.99.32-1.74-.25-3.49-1.59-4.62-.47-.4-.98-.53-1.37-.58-.46-.34-.91-.49-1.24-.61-.06-.02-.12-.04-.19-.07-.66-.25-1.34-.37-2.01-.37-1.33,0-2.56.52-3.45,1.44-2.13.86-2.9,2.61-3.29,3.62-.66.22-1.3.45-1.92.68-.58.22-1.14.42-1.7.61l-2.82.95c-3.67,1.23-7.64,2.12-12.14,2.7-1.37.18-2.63.47-3.84.74-.71.16-1.38.31-2.07.45l-4.87.94c-.53.1-.97.28-1.32.42-.17.07-.31.12-.43.16l-5.05,1.55c-.69.21-1.38.43-2.06.65-1.46.46-2.84.9-4.28,1.29l-6.6,1.79c-.61.16-1.22.3-1.86.43-1.07.23-2.18.47-3.31.87h-.01c-.27,0-.78-.16-1.24-.31-.37-.12-.75-.24-1.15-.33l-.43-.1c-1.25-.29-2.53-.58-3.88-.76-1.01-.13-1.97-.34-2.99-.56l-8.2-1.75-6.87-1.33c-1.96-.38-3.9-.93-6.09-1.73-.97-.35-1.98-.56-2.88-.75l-4.24-.89c-1.99-.42-4.08-.89-6.05-1.67,0-.5-.04-1.08-.27-1.69-.61-1.65-1.97-3.08-3.56-3.73l-.07-.03c-.14-.06-.31-.13-.38-.16,0,0,0-.01-.01-.02-1.1-1.62-2.87-2.62-4.64-2.62-.31,0-.62.03-.92.09-2.15.44-3.88,2.09-4.63,4.42-.33,1.03-.24,1.95-.1,2.73-1.03,1.7-1.08,3.81-.08,5.57-.19.73-.18,1.36-.11,1.84l-.63.32c-2.68,1.35-2.95,3.39-2.87,4.48.19,2.74,2.28,4.76,5.02,4.95.82.85,1.98,1.39,3.32,1.5.13.01.26.02.38.02,2.06,0,4.05-1.41,4.85-3.43.33-.83.84-1.39,2.3-1.41h.37c.7-.02,1.39-.03,2.09-.03,1.5,0,3.27.05,5.06.4,2.94.57,5.73.99,8.56,1.41l3.93.57c1.21.18,2.42.34,3.62.5.74.1,1.48.2,2.2.3-.37.11-.73.23-1.09.35-.27.09-.54.18-.82.26-1.65.52-7,1.56-8.78,1.65-.31.02-.58.06-.81.11-1.46-1.31-2.98-1.95-4.85-2.05-.07,0-.15,0-.22,0-1.3,0-2.53.59-3.46,1.66-.86.99-1.38,2.29-1.48,3.58-1.89,2-2.26,4.56-.87,6.61,1.24,1.83,2.63,2.88,4.14,3.12.01.06.03.12.04.18.26,1,.93,1.58,1.38,1.92-.04,1.05-.11,3.76,2.91,5.03.85.35,1.65.4,2.3.43.26.01.5.03.71.06.32.05.63.07.92.07,1.31,0,2.42-.46,3.32-1.36.17-.06.36-.13.56-.19.96-.32,2.16-.72,3.07-1.72,1.49-1.64,1.32-3.66,1.1-4.95.08-.09.2-.2.34-.3.34-.25.79-.44,1.31-.66.39-.16.83-.35,1.27-.58.43-.23,1.03-.35,1.6-.45,2.98-.54,6.8-1.75,9.1-2.64l4.1-1.6,4.8-1.52c.21-.07.53-.17.66-.18l3.87.98,5.05,1.38,2.3.57c1.52.37,2.95.72,4.39,1.23,2.19.77,4.28,1.38,6.49,2.03l.23.07c.48.14.95.31,1.46.49,1.04.37,2.11.75,3.36.93.37.05.78.19,1.26.35.29.1.59.2.89.29.51.15.94.34,1.22.5-.15,2.62,1.05,3.99,2.29,4.69.4,1.18,1.37,2.08,2.78,2.53.54.17,1.12.26,1.71.26,1.5,0,2.9-.59,3.83-1.61.51-.56.81-1.18,1.06-1.67.13-.26.25-.51.36-.65.85-1.14.88-2.4.89-3.24,0-.05,0-.1,0-.15.54-.68,1.27-1.59,1.56-2.81.53-.22,1.04-.51,1.53-.92,1.27-1.07,1.34-2.47,1.38-3.31,0-.14.01-.28.03-.39,0-.02.02-.05.02-.07.7-2.16.14-3.95-1.66-5.34-.55-1.9-2.15-3.32-4.27-3.69-.89-.16-1.59-.23-2.22-.23-2.76,0-4.08,1.52-5.25,3.33-.99.09-1.94.16-2.86.16-.54,0-1.03-.03-1.49-.08-.69-.08-1.37-.25-2.1-.43-.4-.1-.8-.2-1.21-.29-.6-.13-1.19-.25-1.79-.38-1.7-.35-3.31-.69-4.95-1.13l-.2-.05c1.58-.48,3.1-1.03,4.68-1.61l.06-.02c.59-.21,1.27-.39,2.04-.51.96-.16,1.85-.37,2.71-.58.51-.12,1.02-.24,1.54-.35l2.71-.57,4.8-.91,2-.31c.49-.08.96-.17,1.41-.26.64-.13,1.24-.25,1.83-.31,2.43-.23,4.73-.59,6.96-.94.5-.08.99-.16,1.48-.24,1.81-.3,3.54-.58,5.3-.7.36,1.27.97,2.72,3.26,3.78.9.42,1.84.63,2.8.63,1.82,0,3.49-.79,4.63-2.15,1.21-.35,2.2-1.11,2.76-2.11,1.18-2.13.79-3.4.29-4.51M162.17,97.08c-.39.71-1.24,1.15-2.16,1.24-1.12,1.9-3.36,2.42-5.32,1.51-2.19-1.01-1.94-2.21-2.57-4.03-2.99.02-5.79.57-8.69,1.02-2.3.36-4.5.7-6.83.93-1.15.11-2.25.41-3.37.59l-2.04.32-4.86.93-2.72.57c-1.41.3-2.72.68-4.16.92-.81.13-1.64.33-2.41.61-2.24.81-4.38,1.59-6.71,2.17-1.83.46-3.68.66-5.46,1.41.21.41.64.19.97.27l6.84,1.84c2.29.61,4.52,1.03,6.84,1.53,1.19.26,2.28.61,3.51.75,1.91.22,3.87,0,5.83-.17,1.78-2.9,2.41-3.64,5.88-3.03,1.5.26,2.63,1.33,2.73,2.87,2.66,1.56,1.55,3.19,1.47,3.79-.12.86.07,1.83-.69,2.47-.61.51-1.33.75-2.19,1,.25,1.53-.82,2.51-1.59,3.54-.15.9.12,2.07-.53,2.93-.49.66-.72,1.55-1.29,2.17-.83.92-2.25,1.11-3.34.76-.98-.32-1.6-.93-1.53-2.01-1.88-.53-2.28-1.81-2.04-3.59.15-1.12-1.92-1.89-2.77-2.14-.81-.24-1.58-.59-2.44-.71-1.6-.23-2.99-.91-4.52-1.36-2.25-.65-4.4-1.28-6.61-2.06-1.8-.64-3.57-1.03-5.41-1.49l-1.42-.35-5.07-1.38-3.93-1c-.65-.17-1.3.07-1.93.27l-4.71,1.49-4.16,1.62c-2.46.96-6.13,2.07-8.71,2.53-.77.14-1.53.3-2.21.66-.96.51-1.98.76-2.85,1.41-.56.41-1.36,1.21-1.23,1.93.23,1.25.42,2.58-.51,3.6-.82.9-2.32,1.08-3.32,1.58-.7.87-1.55,1.12-2.69.95-.87-.13-1.72-.01-2.5-.34-2.56-1.08-1.17-3.5-1.81-4.23-.39-.46-1.1-.66-1.27-1.31-.13-.5,0-1.08-.26-1.56l-1.36-.14c-1.18-.12-2.16-1.22-2.85-2.24-1.1-1.63-.18-3.38,1.25-4.54-.25-1.78,1.04-4.14,2.94-4.04,1.69.09,2.84.77,3.97,1.9.55.56,1.06.07,1.9.03,1.94-.09,7.44-1.16,9.31-1.75,1.14-.36,2.19-.73,3.34-1.02,1.19-.3,2.3-.74,3.47-1.07l3.71-1.05c-.86-.56-1.78-.37-2.71-.55-4.02-.78-8-1.22-12.05-1.81l-3.93-.58c-2.87-.42-5.62-.84-8.47-1.39-2.67-.52-5.29-.45-7.96-.4-1.98.03-3.47.84-4.22,2.74-.49,1.24-1.78,2.2-3.1,2.09-1.08-.09-2.03-.59-2.44-1.55-1.88.32-3.83-.78-3.98-2.95-.08-1.16.67-1.93,1.72-2.46l1.06-.54c.32-.16.65-.3.79-.52.42-.65-.43-1.26.03-2.64.08-.25.22-.41.24-.65.02-.28-.26-.35-.41-.59-.84-1.34-.66-3.03.41-4.19-.17-.9-.43-1.71-.15-2.58.46-1.44,1.5-2.69,3.05-3,1.31-.27,2.68.58,3.4,1.65.39.57.79.72,1.4.97,1.08.44,1.99,1.43,2.39,2.51.28.75.04,1.5.06,2.3,2.48,1.21,5.12,1.83,7.8,2.39l3.86.81c.98.21,2.03.4,2.97.74,2.12.78,4.18,1.39,6.42,1.82l6.83,1.32,7.67,1.63c1.26.27,2.42.54,3.69.7,1.4.18,2.74.51,4.11.82,1.15.26,2.49.96,3.55.58,1.65-.6,3.34-.81,5.05-1.27l6.6-1.79c2.18-.59,4.25-1.3,6.41-1.96l5.05-1.55c.51-.16.98-.42,1.53-.52l4.87-.94c1.97-.38,3.77-.91,5.79-1.17,4.28-.56,8.46-1.42,12.53-2.79l2.82-.95c1.47-.49,2.86-1.07,4.35-1.52.63-.19.49-2.86,3.12-3.58.83-1.18,2.22-1.37,3.5-.9.47.17.84.24,1.19.65.19.23.73.02.98.23,1.02.86,1.15,2.29.62,3.45.4.43.85.92.72,1.53-.09.43-.38,1.32.14,1.65.55.34,3.55.32,3.6,2.98.03,1.96,1.45,2.03.21,4.26"/>
  <path class="cls-2" d="M59.84,115.46c-.53.1-.96,0-1.47-.14-.01.49.33.69.76.72.3.02.7-.15.72-.57"/>
  <path class="cls-2" d="M154.97,96.08c.33.69.81,1.31,1.61,1.6.31-.16-1.42-1.73-1.61-1.6"/>
  <path class="cls-2" d="M157.24,97.81c-.03.27.03.63-.1.69-.1.05-.31-.01-.47-.1-1.73-.91-2.63-2.76-3.19-2.53-.72.29-.11,1.98.54,2.68.42.46,1.03.63,1.63.83,1.15.39,2.55-.24,3.08-1.35-.43-.35-1.09-.4-1.5-.23"/>
  <path class="cls-2" d="M118.32,74.13c-.26.26-.67.67-.76,1.04.06.41.01.67-.4.92l-1.25.77c-.62.38-1.29.54-1.87,1.09.5.13.8-.3,1.25-.43l.76-.22c.84-.24,2.2-2.23,2.57-2.95.03-.06-.23-.27-.29-.21"/>
  <path class="cls-2" d="M102.2,64.39c.07-.01.22-.09.2-.23-.12-.93.05-1.8.31-2.73-.67-.57-1.18,3.06-.51,2.96"/>
  <path class="cls-2" d="M120.36,61.89l-1.37-.96c-1.18-.83-2.42-1.48-3.68-2.19-1.29-.73-2.8-1.1-3.84-2.27,2.12.51,3.76,1.67,5.54,2.55,1.17.58,2.16,1.41,3.27,2.11.17.07.39-.54.13-.66-.56-.26-1.08-.54-1.58-.88-.88-.6-1.79-1.05-2.73-1.55-.82-.43-1.53-.95-2.37-1.33-.14-.06-.03-.38.06-.41.51-.16,5.37,2.86,6.17,3.3.32-.62-4.21-2.84-4.85-3.34.3-.37.7-.18.99,0l2.31,1.37c.03-.53.37-1.09.25-1.64-.56-.53-1.13.45-1.59.35-.53-.11-.47-1.15-.65-1.45-.39-.12-.76.4-1.06.34-.47-.09-.19-.79-.34-1.19-.29-.02-.34,1.87-.94,1.32-.24-.22.1-1.05-.12-1.48-.28.47-.6,1.92-1.43,1.71-.5-.12-.43-.91-.85-.94-.39-.03-.86.95-.9,1.1-.15.59-.82.56-1.03.87-.44.65-.9,1.35-1.17,2.05-.24.64-.56.91-1.04,1.33-.54.47-.43,1.45-.68,2.05-.3.72-1.18.7-1.68,1.13-.69.58-.54,2.54-.57,2.53.08.02.19.18.27.18.94.07,1.65.61,2.47.92,1.58.59,3.15.98,4.58,1.9.1.06.35-.13.3-.19-.32-.45-1.93-.75-1.29-1.21.08-.06.15-.04.31.04l3.99,2.05c1.04.53,2,1.11,3.09,1.57.59.25.84,1.06,1.59,1-.97-1.18-2.25-1.76-3.45-2.44l-3.15-1.79-1.71-1.04c-1.11-.68-2.19-1.35-3.45-1.77-.34-.12-2.36-1.08-2.27-1.47.03-.11.2-.16.3-.16.09,0,.15.12.26.17l2.16,1.03c1.09.52,2.08,1.12,3.17,1.66,1.28.64,2.49,1.4,3.63,2.24.67.49,1.39.71,2.09,1.08.7.37,2.62,1.84,2.76,1.62.31-.49-2.67-2.07-3.17-2.3-1-.46-1.88-.98-2.76-1.65-.82-.63-1.92-.9-2.67-1.58-.25-.23-.29-.65-.79-.88-1.21-.56-2.33-1.28-3.59-1.75-.16-.06-.02-.49.14-.47.09,0,.21-.04.38,0,1,.21,1.75,1,2.67,1.39,1.06.46,1.98.98,3.02,1.48l4.64,2.23c1.01.48,1.74,1.39,2.87,1.63-1.14-1.04-2.4-1.79-3.69-2.41l-3.08-1.48c-.75-.36-3.28-1.52-3.5-2.01-.02-.04.16-.14.21-.1,1.08.66,2.27.95,3.39,1.47.76.35,1.48.74,2.27,1.05,1.23.48,3.32,1.95,4.37,2.91.97-.22-3.91-3.14-3.97-3.16l-5.73-2.53c-.97-.43-1.84-.94-2.84-1.31-.16-.06-.24-.16-.25-.24-.14-.75,1.86.47,2.12.55,1.48.5,2.8,1.18,4.24,1.8,1.86.8,3.65,1.6,5.22,2.92.42.35.83.68,1.31.92.16-.32-2.21-2.13-2.54-2.35-1.7-1.15-6.13-2.91-8.21-3.86l-1.67-.76c-.2-.09-.25-.29-.24-.41,0-.1.16-.35.32-.26.9.51,1.83.82,2.76,1.25.93.43,1.78.99,2.75,1.28.92.27,1.68.83,2.57,1.2,1.8.74,3.17,1.9,4.59,3.36-.18-1.12-1.22-1.62-1.95-2.26-.97-.86-2.08-1.3-3.18-1.92-1.04-.58-2-1.11-3.06-1.61l-2.7-1.26c-.44-.21-1.03-.27-1.1-.86,1.21.11,2.13.78,3.18,1.22,2.48,1.06,5.3,2.63,7.52,4.18.58.4.9,1.1,1.55,1.45.12-.01.08-.29-.01-.39-1.6-1.78-4.31-3.5-6.47-4.52l-5.17-2.44c.35-.79,4.62,1.55,5.28,1.88.78.39,1.53.71,2.25,1.2.67.46,1.43.77,2.07,1.27.49.38,1.89,1.58,2.1,2.01.05.1.4-.09.35-.15-1.1-1.51-2.62-2.58-4.25-3.51-2.3-1.33-4.58-2.49-7.01-3.53-.13-.05-.21-.22-.28-.26-.07-.04.01-.32.12-.3,1.99.38,10.67,4.98,11.25,6.61.03.07.18.2.24.18.24-.07.1-.45.12-.44-.74-.44-1.18-1.18-1.88-1.67M105.94,64.76c.9.53,3.74,1.75,3.87,1.88.05.05.05.16,0,.23-.08.13-.2.03-.35-.01-1.37-.37-2.59-.94-3.8-1.66-.14-.08-.09-.25-.03-.32.05-.07.15-.2.31-.11"/>
  <path class="cls-2" d="M113.13,77.86c-.01.36.32.67.52.87.44.43,2.47-.08,2.09-.61-2.34.96-1.47-.3-2.61-.26"/>
  <path class="cls-2" d="M110.3,76.91c-.11.13-.14.45-.02.52.43,0,1.04,0,1.38-.5-.49-.2-.9-.02-1.35-.02"/>
  <path class="cls-2" d="M101.64,58.52c.49-.37.76-1,.3-1.23-.16.24,0,.7-.15.7h-.56c-.12.15.2.69.41.53"/>
  <path class="cls-2" d="M101.53,55.53c0-.12-.21-.22-.29-.2-.02,0-.49.87.12,1.04.07-.26.18-.51.18-.84"/>
  <path class="cls-2" d="M106.04,68.58c.41.78,1.35.39,2.5,1.41.42,0,.35-.24.03-.26-.8-.5-1.55-1-2.53-1.15"/>
  <path class="cls-2" d="M111.53,70.14l-1.87-1.14-2.61-.95-3.8-1.56c-.13.29-.02.46.15.59-.06-.04,5.51,2.12,6.05,2.3.7.24,1.28.97,2.08.75"/>
  <path class="cls-2" d="M104.64,61.47c-.2.13-2.28,2.15-1.8,2.69,1.38.12.65-1.24,2.14-2.28.11.32-.19.47-.22.79,3.04-1.02.71-2.03,3.16-3.64.28-1.49,1.33-1.99,1.28-2.65-.03-.36-.68-.32-.89-.15-.27.22-.53.34-.83.24-.17-.06-.37-.38-.59-.54-.51.29-1.1.49-1.66.03-.64,2.17-1.97.74-2.24,1.85-.04.16.27.23.35.42-.26.19-.68.15-.81.44-.21.46-.51.91-.49,1.44.58-.45.59-1.11,1.28-1.43-.02.44-1.06,1.69-.85,1.93.04.05.17.13.24.04.28-.37,1.83-2.32,2.22-1.68.15.25-1.24.94-1.35,2.38.47.14.66-.27,1.02-.47.15-.08.3.24.21.31-.06.05-.07.23-.17.29"/>
  <path class="cls-2" d="M113.86,66.4l5.55,3.05c.44.24.74.73,1.24.77.4-.63-6.34-4.2-6.79-3.82"/>
  <path class="cls-2" d="M105.87,68.52c-.6-.45-1.34-.47-2.03-.75.06.48.51.36.8.51.39.21.77.56,1.23.24"/>
  <path class="cls-2" d="M103.86,68.8c.38.49.93.69,1.47.47-.45-.43-.95-.64-1.47-.47"/>
  <path class="cls-2" d="M85.75,61.99c-.1,0-.16-.01-.28.17.54.73.86,1.64,1.81,2.09-.21-.85-.95-1.3-1.31-2.02-.07-.14-.13-.23-.22-.23"/>
  <path class="cls-2" d="M118.97,55.42c.15.67.27,1.15,0,1.81.34.18.74-.01,1,.21.54.47-.13,1.77.47,1.84.14.02.44.06.46-.2-.33-.14-.52-.61-.23-.74,1.03.55,1.68,1.51,2.37,2.34.62-.74-2.96-3.61-3.4-3.85-.16-.08-.19-.28-.13-.36.33-.5,2.69,1.78,2.69,1.78l.96,1.21c.38-.81-3.19-3.68-4.21-4.04"/>
  <path class="cls-2" d="M101.76,53.48c-.06.15-.08.43.24.44.22,0,.41-.59.18-.73-.33-.19-.36.14-.42.29"/>
  <path class="cls-2" d="M102.82,52.43c.07-.15-.13-.4-.32-.4-.19,0-.41.52-.26.67.32.31.49-.08.58-.27"/>
  <path class="cls-2" d="M112.27,69.4c-1.19-.79-2.49-1.06-3.69-1.63-1.79-.85-4.13-1.47-5.03-2.02-.08-.05-.22.28-.11.29-.19-.02,1.56.78,1.44.74l3.3,1.26c.34.13,3.63,1.65,4.1,1.36"/>
  <path class="cls-2" d="M121.39,59.68c-.07.31-.23.74-.13,1.04.49.45,1.02.79,1.45,1.33.6-.52-.88-2.26-1.32-2.36"/>
  <path class="cls-2" d="M120.77,61.07c-.55.27,1.49,1.9,1.69,2.05.69-.46-1.47-1.87-1.69-2.05"/>
  <path class="cls-2" d="M123.3,52.72c.17-.56-.33-.89-.55-1.31-.71-1.35-1.77-2.23-3.08-2.99-1.05-.62-2.03-1.4-3.16-1.86.11-.95,2.09.59,2.46.8,1.09.6,2.04,1.31,2.99,2.04-.17-1.13-5-3.95-5.34-3.99l-1.63-.22c1.25.17-3.67-.76-4.87-1.14.42.57.59,1.22.1,1.55-.33.23-.88.05-1.1.4-.57.9-.03,2.63-1.88,3.12-.87.23.55.93-.35,2.79-.24.5-.43,1.17-.97,1.38-.22.08-.81-.07-.84.27-.05.59.07,1.31.16,1.87,1.32.91,1.12-.84,2.43.49,1.7-.81,2.05.77,2.77-.57.25-.46.46-1.16,1.03-1.29.58-.14.93.53,1.1,1,.88-.35.69-2.08,1.41-1.83.2.07.29.3.3.57.04,1.34.22-.94.83-.5.4.29.23.86.41,1.3.42-.28,1.03-.44,1.27-.03.23.41.08.88.41,1.3l1.57-.63-1.4-.79c-.23-.13-.72-1.41,2.92,1.16,1.11.78,2.17,1.53,2.94,2.75.34-.42,0-.65-.22-.9-1.39-1.63-3.93-3.44-5.91-4.4.24-.74,1.45.22,1.96.49,1.63.88,3.08,2,4.21,3.5.15-.13.16-.45,0-.57-.46-.35-.65-.9-1.06-1.27-.48-.45-.99-.92-1.57-1.27l-2.22-1.36c-.89-.55-1.74-.84-2.71-1.17-2.32-.78-4.64-1.41-7.1-1.54-.17,0-.27-.18-.24-.28.02-.06.07-.21.22-.2,2.04.09,3.99.47,5.91,1.17.34.12.69.07.99.15,1.41.35,2.58,1.08,3.86,1.77,1.08.58,2.04,1.31,2.95,2.12.42.37.55.97,1.14,1.18-1.45-2.54-2.79-3.1-5.19-4.51-1-.59-1.95-1.1-3.08-1.37-1.95-.47-3.79-1.13-5.8-1.27-.09,0-.19-.23-.19-.3,0-.63,5.03.8,5.77,1.05.56.19,1.18.12,1.81.45l2.71,1.45c.96.51,1.8,1.2,2.63,1.9.57.48.64,1.32,1.38,1.7-1.02-2.16-2.38-3.17-4.36-4.32-.4-.23-3.7-1.79-3.16-2.01.55-.22,3.59,1.65,4.28,2.06,1.4.82,2.3,1.9,3.17,3.31-.2-.95-.81-1.64-1.34-2.37-.65-.91-3.45-2.59-4.55-3.16-.41-.21-.88-.36-1.12-.88,1.22.11,2.16.82,3.2,1.42,1.59.91,2.84,2.04,3.72,3.81M105.85,54.47c-.02-.09.1-.23.26-.21l2.48.44c.19.07.47.02.51.4-.56-.09-3.17-.24-3.26-.63M106.59,53.86c-.11-.02-.19-.11-.22-.17-.03-.07.01-.16.11-.15.6.09,3.35.46,3.5.83.18.43-2.55-.35-3.4-.51M108.03,52.97c.91.18,1.87.11,2.75.78.2.29-4.3-.61-2.75-.78M107.46,52.45c-.06-.14-.06-.15-.02-.2.07-.09.13-.13.27-.1l4.07.88c.09.02.17.2.18.25.03.5-4.1-.68-4.5-.82M107.68,51.69c-.13-.02.04-.36.13-.33.07.02.14-.05.29-.02.34.05,6.04,1,6.14,1.58-2.23-.22-4.34-.86-6.56-1.23M110.82,50.82c2.89.43,5.24,1.54,5.51,1.57.11.01.12.34-.02.41-1.62-.61-3.16-.95-4.8-1.3l-3-.64c-.1-.02-.17-.16-.19-.21-.17-.54,2.19.12,2.5.17M115.06,46.86c.09.03.13.14.19.16.08.03.02.16-.18.28-1.73-.39-3.37-.6-5.09-.83-.15-.02-.29-.11-.29-.21-.04-.68,4.57.35,5.36.6M114.96,48.54c-1.88-.45-3.61-.91-5.46-1.16-.09-.01-.18-.09-.23-.11-.04-.02-.04-.09-.02-.13.18-.39,5.97.62,6.08,1.21.01.08-.13.24-.36.18M115.93,46.52c-1.55-.61-3.25-.92-4.91-1.07-.85-1.09,6.14.42,4.91,1.07"/>
  <path class="cls-2" d="M108.74,78.19c.59.76,1.44.63,2.1.24.27-.16.55-.31.39-.65-1.21.62-2.23-.01-2.5.41"/>
  <path class="cls-2" d="M89.16,66.04c-.4-.42-.78-.74-1.29-1.06.12.67.69,1.08,1.29,1.06"/>
  <path class="cls-2" d="M76.08,69.27c-.42,1.26-.49,2.44-.8,3.67-.21.82-.43,1.87.16,2.6.18.18.59-.35.55-.59l-.27-1.5c-.27-1.52.97-3.34.37-4.17"/>
  <path class="cls-2" d="M89.7,64.56c.38.12.62.7,1.1.47-1.15-.94-2.22-1.8-2.83-3.04-.07-.15-.15-.25-.25-.34-.09-.07-.22.03-.37.11.23.54.73.93,1.03,1.45.33.57.63,1.12,1.32,1.35"/>
  <path class="cls-2" d="M76.78,70.35c-.3.96-.36,1.95-.54,3-.06.37-.49.92.15,1.08.42-1.07.41-2.09.32-3.11-.03-.34.27-.62.06-.97"/>
  <path class="cls-2" d="M79.34,74.07c.44.16.72.55,1.32.56-.08-.25-1.82-1.46-1.32-.56"/>
  <path class="cls-2" d="M78.45,83.27c-.3.15-.68.44-.8.77-.44,1.26-.54,2.52-.76,3.83.21.62.77.91,1.4,1.02.71.13,1.34-.11,1.53-.91.25-1.07.12-3.32-.14-4.09-.17-.5-.7-.89-1.23-.62"/>
  <path class="cls-2" d="M72.5,67.6c.4.44.96.55,1.49.24-.44-.2-.92-.44-1.49-.24"/>
  <path class="cls-2" d="M70.18,67.05c.37.81,1.16.96,1.85,1.3.51.03.98.67,1.51.14-1.33-.32-2.3-.78-3.36-1.43"/>
  <path class="cls-2" d="M72.78,68.81c-.9-.12-1.59-.5-2.41-.87.3,1.08,2.38,1.19,3.18,1.33-.15-.35-.49-.42-.76-.46"/>
  <path class="cls-2" d="M71.36,67.09c.21.19.54.26.65,0l-1.53-1.19c-.46-.36-.76-.96-1.44-1.01l2.33,2.2Z"/>
  <path class="cls-2" d="M72.41,66.87c.5.45,1.25.66,1.93.24-.63-.24-1.23-.33-1.93-.24"/>
  <path class="cls-2" d="M70.36,68.99c.64.51,1.3.51,1.95.87.39-.28-2.11-1.19-1.95-.87"/>
  <path class="cls-2" d="M69.88,64.02c-.05-.08-.17-.23-.23-.19-.5.34.16.43.67,1.26.46.75,1.21,1.17,2.1,1.1-1.01-.9-1.86-1-2.55-2.18"/>
  <path class="cls-2" d="M73.41,65.6c.43.07.78.33,1.27.18-.69-.53-1.88-.62-2.97-.98.33.78,1.08.69,1.7.8"/>
  <path class="cls-2" d="M75.57,64.68c-1.26.11-2.31-.11-3.5-.49-.24.71,3.67.91,3.5.49"/>
  <path class="cls-2" d="M75.62,64.09c-.52-.58-1.11-.21-1.64-.34-.49.02-.91-.16-1.4-.22-.13-.01-.15.25-.09.29.05.03.16.02.24.12.95.16,1.86.32,2.89.15"/>
  <path class="cls-2" d="M69.82,69.13c.36-.62.3-1.67-.29-2.12-.64-.49-1.22-.89-1.79-1.6-.01,1,.97,1.35,1.54,1.92.46.45.16,1.23.53,1.8"/>
  <path class="cls-2" d="M72.44,74.78c-.28-.16-1.9.21-1.89.21-.49.61,1.85.3,1.89-.21"/>
  <path class="cls-2" d="M69.65,71.01c.53.4,1.07.31,1.55.27-.63-.29-1.04-.48-1.55-.27"/>
  <path class="cls-2" d="M70.27,70.24c-.38-.19-.82.66,2.12.72-.75-.49-1.45-.39-2.12-.72"/>
  <path class="cls-2" d="M70.41,69.62c.25.67.94.68,1.48.72.33.03.59.47.94.42.99-.51-2.05-.91-2.42-1.14"/>
  <path class="cls-2" d="M96.28,80.48c-.06.5-.47.98-.01,1.5.27-1,.52-1.84.29-2.79-.41.41-.04.89-.28,1.29"/>
  <path class="cls-2" d="M94.35,84.56c-.1-.07-.32-.22-.5-.02-.47.51-.64,1.81-.12,2.28.96.13,1.07-1.96.62-2.26"/>
  <path class="cls-2" d="M92.42,80.4s.08-.07.02-.13c-.41-.42-2.07-1.2-2.76-2.11-.26.11-.26.4-.14.47l.32.18c-.52-.3,2.01,1.93,2.56,1.59"/>
  <path class="cls-2" d="M71.94,75.38c-.4.37-.82.15-1.35.29-.35.25,2.27.23,1.35-.29"/>
  <path class="cls-2" d="M93.15,79.63c-1-.65-1.83-1.4-2.91-1.92-.25.67,1.18,1.27,1.52,1.53.23.17,1.43,1.36,1.64,1.26.44-.23.01-.69-.26-.87"/>
  <path class="cls-2" d="M116.97,75.4c-1.03.39-1.78,1.23-2.94,1.25.9-.91,3.49-1.51,3.79-2.99-.37.26-.49.6-.87.82-1.51.88-1.96,1.45-3.84,1.96-.1.2,0,.43-.14.64-1.86.36,0,1.17-2.31,1.86-.67.2-1.18.21-1.84-.04-.49-.19-.69-.85-.99-1.3-.69-.22-1.52,0-2.28-.07.46.54,1.68.05,1.98.44-.02-.02-.04,1.43.89,1.74.87.29,1.92.33,2.77-.03.41-.18.81-.48,1.16-.7.34-.2-.02-.85.18-1.07.8-.85,1.91-.62,2.52-1.09.62-.48,1.34-.79,1.91-1.42"/>
  <path class="cls-2" d="M107.69,76.74c-.59-.21-1.12-.3-1.58.09.54.34,1.1.16,1.58-.09"/>
  <path class="cls-2" d="M93.3,78.51l-1.44-.87c-.16-.1-.28-.19-.36-.01-.19.39,1.32,1,1.61,1.22l1.43,1.1c1.2.44-2.02-1.92-1.23-1.45"/>
  <path class="cls-2" d="M92.78,77.69l2.72,1.81c.88.08-3.23-2.86-2.72-1.81"/>
  <path class="cls-2" d="M75.52,82.94c-1.51.69-1.69,3.13-2.03,4.51.3.52.61,1.18,1.4,1,.58-.13,1.29-.68,1.47-1.21.36-1.09.19-3.95-.23-4.24-.16-.11-.4-.15-.6-.05"/>
  <path class="cls-2" d="M90.1,67.6c.72.28,1.26.77,2,.96-.65-.48-1.22-.9-1.88-1.24l-1.92-.98c.35.8,1.13.99,1.81,1.25"/>
  <path class="cls-2" d="M72.25,83.65c-.38.28-.84.61-1.11,1.01-.5.76-1.86,3.06-.23,3.51.77.21,1.69-.39,1.83-1.13.15-.85-.01-1.69.23-2.54.07-.24.01-.53-.14-.67-.11-.1-.37-.34-.58-.18"/>
  <path class="cls-2" d="M89.06,85.94c-.74-.52-1.67.45-1.71,1.23-.03.6-.42,1.52.16,1.9.54.25,1.6-.24,1.85-.87.25-.63.25-1.86-.31-2.26"/>
  <path class="cls-2" d="M83.2,83.88c-.81-.51-2.36.69-2.54,2.67-.06.64-.33,1.29-.02,1.9.25.49,2.37,1.58,2.69.51.37-1.21.51-4.68-.13-5.08"/>
  <path class="cls-2" d="M90.18,88.11c-.08.15-.03.47.09.49.95.12,1.67-.86,1.86-1.55.15-.52.07-1.26-.2-1.67-1.58.15-.68.68-1.75,2.73"/>
  <path class="cls-2" d="M85.85,84.67c-.47-.08-.82.22-1.12.62-.49.66-.46,1.54-.41,2.34.08,1.38.98,2.28,1.62,2.05.17-.06.49-.25.53-.54.16-1.19.36-2.42.22-3.62-.06-.48-.54-.8-.84-.85"/>
  <path class="cls-2" d="M80.6,73.02c-.39.28.47,1.06.68.82.24-.35-.39-1.03-.68-.82"/>
  <path class="cls-2" d="M97.16,65.27c.11-.4-1.92-.53-2.29-.58.57.65,1.45.71,2.29.58"/>
  <path class="cls-2" d="M94.95,63.28c.51.35,2.57.87,3.15.65.24-.23-3.47-.98-3.15-.65"/>
  <path class="cls-2" d="M66.3,68.9c.03.11.04.34-.13.51-1.26,1.23-1.88,2.96-1.65,4.65.35,2.59,2.07,3.78,3.55,4.37-.14.23-.29.47-.45.7-1.5,2.22-1.53,4.85-.09,6.93,0,.01,0,.02,0,.03-.14.55-.4,1.58.21,2.71.74,1.37,2.14,2.23,3.64,2.23.48,0,.95-.08,1.39-.25.61.38,1.32.58,2.02.58.45,0,.9-.08,1.31-.25.49.32,1.22.63,2.27.63.48,0,1-.06,1.57-.2.67.38,1.44.75,2.38.75.5,0,.99-.1,1.46-.3.47.29,1.09.56,1.85.56.48,0,1.15-.11,1.86-.58.18.03.36.05.54.05.81,0,1.39-.32,1.72-.51.12,0,.25.02.38.02,1.16,0,2.22-.51,3.52-1.73,2.28-.19,3.16-1.5,3.5-2.61l.54-1.76s.01-.01.02-.02c.5-.64,1.5-1.95,1.78-4.63.2-.03.38-.05.52-.05.08,0,.11,0,.13,0l2.36.54c.39.09.79.13,1.19.13.62,0,1.25-.1,1.91-.32.34.39.78.8,1.39,1.1.92.46,1.99.71,3,.71s1.91-.24,2.67-.69l.87-.52c.28.03.55.05.81.05,1.45,0,2.68-.5,3.56-1.44,1.33-1.42,2.42-2.89,3.33-4.5.11-.19.22-.38.33-.57.65-1.12,1.38-2.38,1.75-3.81l1.83-6.96c.56-2.15.87-3.87.99-5.58.18-2.55.11-4.93,0-7.11-.1-2-.34-3.51-.83-5.05-.92-2.94-2.32-5.65-4.16-8.07-3.1-4.07-9.13-8.17-14.02-9.56l-2.47-.7c-1.92-.54-3.84-.73-5.69-.92-.46-.05-.93-.09-1.39-.15-.68-.08-1.37-.11-2.11-.11-.82,0-1.6.04-2.52.1-6.07.37-11.85,2.3-16.71,5.59-3.32,2.25-5.87,5.21-7.79,9.03-1.51,3.01-2.36,5.37-2.86,7.89-.26,1.34-.29,2.61-.32,3.84-.01.56-.02,1.09-.06,1.62-.09,1.44-.84,3.88-1.49,5.45-1.13,2.7-.65,5.46,1.22,7.04l1.38,1.16ZM65.64,61.52c.71-1.69,1.54-4.35,1.65-6.13.11-1.76,0-3.47.34-5.19.52-2.65,1.48-4.97,2.67-7.35,1.68-3.34,3.97-6.12,7.09-8.24,4.65-3.15,10.04-4.89,15.66-5.23,1.48-.09,2.8-.16,4.28,0,2.27.26,4.55.38,6.74,1l2.47.7c4.43,1.25,10.11,5.13,12.92,8.81,1.71,2.24,2.98,4.73,3.82,7.42.48,1.52.66,2.94.73,4.53.11,2.32.17,4.53,0,6.86-.13,1.77-.47,3.47-.93,5.19l-1.83,6.96c-.36,1.37-1.19,2.66-1.88,3.88-.85,1.51-1.87,2.85-3.03,4.1-.83.89-2.13.88-3.25.63l-1.54.92c-1.04.62-2.55.45-3.65-.1-.77-.39-1.09-1.19-1.68-1.8-1.04.57-2.16.96-3.28.71l-2.36-.54c-1.01-.23-2.11.25-3.16.19-.25.48.02.86-.01,1.32-.22,3.11-1.52,3.88-1.67,4.38l-.61,2.01c-.32,1.07-1.33,1.18-2.37,1.14-2.52,2.63-2.7,1.3-3.78,1.82-.42.2-.73.54-1.32.32-.38-.14-.8-.08-1.09.17-1.45,1.32-2.39-.85-2.87-.44-1.38,1.16-2.14.47-3.48-.28-3.96,1.27-2.95-1.35-4.64-.26-.68.44-1.53.23-2.08-.31-.3-.29-.65-.4-1.02-.14-1,.69-2.3.35-2.9-.77-.49-.91.6-1.72-.22-2.79-1.1-1.45-1-3.24,0-4.7.6-.88,1.03-1.79,1.78-2.58.11-.12.1-.4.06-.5-.21-.53-4.15-.14-4.6-3.45-.14-1.04.26-2.11,1.03-2.86,1.12-1.09.93-2.86.11-3.54l-1.48-1.24c-1.34-1.13-1.29-3.05-.63-4.61"/>
  <path class="cls-2" d="M95.38,64.14c.91.37,1.73.62,2.7.62.69-.13-3.54-1.06-2.7-.62"/>
  <path class="cls-2" d="M94.55,67.08c.44.68,4.52.87,4.2.25-.05-.09-.15-.12-.3-.09-1.31.26-2.54-.04-3.9-.16"/>
  <path class="cls-2" d="M97.15,63c-.89-.58-1.77-.88-2.72-.99-.29.31,2.92,1.22,2.72.99"/>
  <path class="cls-2" d="M94.89,67.98l-3.72-1.92c-.97-.5-1.94-1.04-2.66-1.85-.6-.68-.93-1.57-1.76-2.07,0,.57.54.81.77,1.24,1.17,2.14,5.41,4.3,7.81,4.97.04.01,3.62.56,3.11-.23-1.2-.05-2.41.04-3.56-.14"/>
  <path class="cls-2" d="M100.45,58.04c.26.5-.24-1.7-.25-2.16-.03-.02-.05-.04-.08-.07-.14.75-.1,1.53.33,2.22"/>
  <path class="cls-2" d="M93.93,62.87c-.49-.14-.87-.47-1.43-.43l1.68.92c.02-.22-.12-.32-.25-.49"/>
  <path class="cls-2" d="M95.39,71.62c-2.52.14-4.33-.92-6.48-2.16-.5-.29-.78-.96-1.53-.82,1.72,1.97,1.94,1.67,3.94,2.56,1.3.58,2.62.94,4.07.81.11,0,.27-.09.27-.19,0-.08-.14-.21-.28-.2"/>
  <path class="cls-2" d="M67.18,63.19c.53-.75,1.27-1.49,2.16-1.71,2.3-.57,3.85.57,5.63,1.17.58.2.89-.07,1.36-.34.35-.2.91.05,1.24-.32.23-.26,1.08-.46,1.08-.02,0,.53-.76.33-1.07.38-.42.07-.98.42-1.29.68-.06.56-.18,1.09-.28,1.63l-.26,1.37c-.11.61-.32,1.02-.54,1.56-1.18,2.91-.76,4.56-4.12,6.21-.45.22-.91.48-1.4.2-.14-.08-.26-.26-.2-.39.19-.46.64.17,1.84-.67.29-.2,1.47-.86,1.4-1.1-.28-.92-1.14.65-3.16.12-1.44-.38.69-1.52.05-2.29-.41.29-.45.85-.77,1.19-1.09,1.17-1.98,2.44-1.03,3.93.14.22.22.5.43.58.22.08.45.07.68-.05,1.52-.86,2.65-.98,4.19-1.66.2.4-.13.7-.15,1.02-.13,2.25-1.32,3.32-2.53,5.33-.48.8-1.58,2.45-.9,3.25.34-.13.38-.49.6-.67.36-.29,2.07-1.38,2.43-.76-.34.43-3.71,1.43-2.44,2.67.76-.7,1.41-1.46,2.38-1.7.38-.09,1.15-.14,1.02-.74-.2-.87-.14-1.9.77-2.45.16-.02.18.45.07.61-.78,1.08.51,1.64-.57,2.61-.11.1-.16.26-.16.38,0,.07.1.26.2.19l1.35-.99c.38-.28.94.02,1.48.08-.55-.89-.33-3.08.25-2.45.26.28-.06,2.09.36,2.38.66.46,1.5-.67,2.61.61.13.15.65.39.67.16.06-.88-.74-1.94-.4-2.58.04-.08.25-.23.33-.1.83,1.43.19,2.76.67,3,.61.31,1.18-1.25,2.98.22.53.43,1.27-1.67.14-3.04-.08-.09-.1-.52.08-.48,1.24.3,1.43,2.35,1,3.13-.6,1.1,1.68,0,1.85,1.87,1.19.37,1.67-.43,2.23-.16.37.17.44.62.68.93,1.11-1.56-.94-2.62.04-4.13.65.13.37,1.23.88,2.41.22.52.82.18,1.16.09.4-.11.46.45.82.64.26-1.92-.34-1.47-.68-3.04,1.21-.21,1.04,1.48,1.42,1.77.31.24.87.08,1.19.22.41-.47.3-1.03.45-1.53.14-.43.12-.6-.24-.93-.47-.42-.61-1.13-1.2-1.55-.31.28-.03.55.08.81.3.71.47,1.45.71,2.21-1.24.23-.48-1.74-1.44-1.88-.82-.13-1.48-.4-2.17-.86-.53-.35-1.08-.59-1.52-1.06-.11-.12-.36-.1-.39.03-.12.48,2.19,1.78,2.55,2.34.02.91-2.74-1.39-2.89-1.53-.53-.48-.34-1.3.02-1.84.86-1.29-.06-1.55.45-2.19l1.56,1.06c.18.12.39.14.5-.02.45-.65-1.97-1.12-1.73-2.35.03-.17.57-.11.62.03l.19.55c.18.51,3.43,1.46,4.14,1.66,1.88.53,3.84,1,5.77.54l1.49-.35c1.01-.24,1.88-.78,2.87-1.08,3.51-1.07,5.19.26,7.29-.69.2-.09.53,0,.56-.18l.08-.54c0-.06,1.28-1.88,1.58-1.32.23.42-.79.8-.93,1.72-.05.33-.11.61-.41.85,1.76.76.11-1.3,3.32-2.04-.09.66-1.81,1.13-1.75,1.69.61-.04,1-.4,1.39-.74.53-.47,1.16-.73,1.79-1.12-.25-.58-1.46-.63-1.08-1.25.91.13,1.56.77,2.2,1.38.16.15.53-.39.37-.54-.77-.71-2.47-1.59-2.23-2.02.29-.53,2.19,1.59,2.62,1.49-.33-.59-.92-1.05-1.48-1.35l-.9-.49c-.91-.5-3.37-1.54-4.47-1.61-.09.23-.08.72.24.84l1.85.66c.39.14.8.31.87.8-.92.07-2.26-1.3-2.39-.49.48.47,1.16.54,1.86.91-.03.29-1.37-.16-1.34.18.03.33,1.31.11,1.39.67-.89.69-1.36-.62-2,.35-.34.5-.72,1.08-1.28,1.36-1.48.75-3.5-.13-5.16.17-2.35.42-2-.03-4.65,1.32-.17-.04-.28-.34-.47-.34-.82,0-4.63-.07-5.24-.77,1.88-.03,2.21.68,4.33.18.39-.09.89.19,1.24-.34.22.16.22.45.36.48.6.14.59-.52.87-.77,2.39-2.06,5.9-2.07,5.43-1.21-.15.28-2.8-.24-2.52.63.07.23.24.32.48.29,2.52-.25,4.16.88,5.79-.92.26-.29.11-.83.27-1.14-1.15-1.49-2.13.49-3.56-1.03-.64-.68-1.85-1.16-2.68-.57-.5.36-.8.48-1.43.55-.83.09-1.6.14-2.23-.45-1.2-1.12-.16-2.79-.46-4.15-.14-.62-.62-1.11-.73-1.73l-.59-3.2c-.1-.53-.47-.95-.97-1.1-.66-.19-.87-.72-1.13-1.27-1.01-2.14.63-2.46.81-4.56.08-.88.3-1.68.71-2.46.24-.46.27-1.09.87-1.28l-.83,3.04c.39-.46.57-1.06.73-1.7.09-.37.44-.6.47-1-.26-.21-.19-.31.08-.2.41-.21.67-.65.92-1l.53-.76c.19-.26.59-.43.68-.83.74.09,1.53.5,2.13.9-.5.4-1.63-.75-2.05-.33-.11.11-.08.23.06.34-.34-.27,1.86.64,1.62.79-.76.18-1.34-.32-1.95-.62-.12.09-.25.27-.36.49.77.41,1.61.55,2.3,1.15-.73.24-3-1.59-2.84-.35.3.37,2.33.82,2.17,1.26-.78-.07-1.25-.43-1.9-.56-.1-.02-.35.19-.26.24l1.91,1.18c-.41.39-1.26-.54-1.47-.27-.06.07-.23.27-.18.39.13.32.5.39.86.75-.53.52-1.34-.92-1.39.23-.02.45.98.42.71.7-.21.22-.58-.12-.88-.03-.22.07-.17.72.03.87.35.26.77.25.99.68l-.7-.07c-.06.46-.07.85,0,1.3.43-.12.36-.5.46-.93.42.22.63.45.93.38.29-.07.43-.29.6-.54.77-1.12-.1-1.38.02-2.71.11-1.26,1.31-.28,1.57-1.18.15-.5.5-.88.69-1.33.19-.47-.7-1.6-.35-1.98.1-.11.29-.34.49-.41,1.47-.53.99-1.55,1.57-2.68.48-.94,1.26-.52,1.38-.77.34-.69-.74-1.62-1.55-1.89-.21-.07-.33-.1-.34-.3-.03-.47.94-.28,1.09-.68-.57-.52-1.31-.68-1.83-1.23-.18-.19,0-.9.2-.98l.82-.34c-.17-.2-.43-.21-.66-.42.1-.17.3-.23.48-.42-.4-.42-1-.48-1.53-.25-.25.11-.5-.43-.34-.46.54-.11.9-.33,1.38-.63.15-.05.18.34.02.4-.07.02-.14.11-.27.23.47.25,1.02.27,1.43.75-.15.22-.42.15-.51.35.35.2.65.17.84.48-.29.25-1.49.76-1.49.78-.05.35,2.04,1.35,2.5,1.53.2.08.13.52-.05.57-.5.14-.88.13-1.4.22.43.1.94.48,1.32.93.2,0,.61.02,1.33.1,1.55.16,3.12.34,4.56.94.3.13.54-.04.76-.08,1.5.73,3.6,1.92,4.75,3.09.84.85,1.2,1.98,1.9,2.91-.75-2.43-2.45-4.27-4.51-5.64-.74-.49-1.53-.86-2.06-1.62.74-.09,1.16.42,1.67.74,1.95,1.21,3.49,2.84,4.68,4.78,0-.69-.57-1.02-.93-1.51-.68-.94-1.35-1.81-2.2-2.58-.85-.77-1.85-1.25-2.65-2.23,1.8.79,3.07,2.24,4.5,3.54-1.15-1.88-3.73-3.49-5.69-4.85.78-.06,1.32.49,1.93.9,1.61,1.06,2.96,2.33,4.11,3.83.42-.18-1.69-2.3-1.79-2.4-1.59-1.48-3.35-2.46-5.22-3.68,2.4.61,4.12,2.31,5.98,3.82-1.64-2.08-3.9-3.47-6.32-4.49-.13-.05-.19-.16-.26-.2-.05-.03.01-.24.12-.2,2.26.77,4.19,2.04,5.88,3.65-1.49-2.42-4.85-3.53-7.14-4.69,2.35.3,4.21,1.66,6.06,2.9-1.38-1.88-5.14-3.24-7.24-3.72-.12-.03-.2-.2-.14-.25.31-.27,2.36.56,2.84.72,1.18.4,2.19.97,3.23,1.57-1.46-1.39-3.34-2.02-5.14-2.64-.35-.12-.75-.12-.99-.48,1.52.12,2.87.67,4.16,1.4.04.27.18.08.08-.1-1.69-1.21-3.6-1.68-5.67-1.98,1.46-.52,2.69.27,4,.65-1.36-1.1-3.08-1.21-4.74-1.42-.24-.03-.48.02-.52-.28,1.13-.14,2.17.04,3.34.38-.71-.94-3.58-.82-4.89-.91.95-.69,1.97-.04,3.07-.23-1.61-.61-3.32-.35-5.06-.56,1.08-.54,2.15-.12,3.33-.21-.14-.29-.58-.35-.93-.36l-3.9-.09c.91-.56,1.92-.22,3.03-.32-1.24-.97-4.05.01-5.66-.29-.07-.48,3.98-.39,3.19-.62l-.23-.07c-1.36-.4-2.76.22-4.17.25-.12-.54,2.94-.45,1.99-.7-.12-.03-.18-.03-.28-.02l-3.5.43c.57-.61,1.35-.27,1.97-.73-.67-.25-3.18.74-3.13.24.02-.23,1.15-.23,1.24-.44-.91-.21-1.62.23-2.49.38-.04-.35.28-.36.55-.49-.23-.36-2.05.22-2.5.44.77.41,1.18-.38,1.66.74.51-.16,1.14-.56,1.55-.04-1.05.03-1.5.76-1.91.47-.16-.12-.12-.38-.26-.54-.28-.34-.99-.2-1.24.14-.14.19-.26.3-.43.32-.43.05-.76-.64-1.18-.42-1.24.65-1.49-1.38-7,.43-4.02,1.32-7.28,2.97-10.39,5.87-1.48,1.38-2.63,2.96-3.61,4.73-.85,1.54-1.44,3.11-2.13,4.74-.79,1.85-1.64,6.03-1.17,7.96.19.78.38,1.56.07,2.36-.43-.23-.16-.64-.5-.9-.04,1.51-.43,2.72-.91,4.04-.71,1.96-1.85,3.43.16,5.5,0-.96-.37-1.94.15-2.68M103.09,51.83l.06-.21s.06.03.08.05c-.05.05-.1.11-.14.17M113.17,41.99c-.56.15-1.1.11-1.73.03.45-.35,1.17-.34,1.73-.03M111.62,42.74l1.9.2c1.05.11,2.14.21,3.05.99-.9.08-1.66-.31-2.51-.4-.52-.06-2.77-.24-2.75-.56,0-.12.14-.24.31-.22M109.94,36.81c-.01.13-.01.27,0,.41-.06-.05-.13-.1-.19-.15-.03-.1-.08-.2-.13-.3l.32.04ZM69.94,56.13c-.61-1.63-.88-3.47-.53-5.11.32-1.48.52-2.91,1.13-4.27l1.53-3.41c.09-.19.26-.38.51-.26-1.17,2.37-2.15,4.76-2.7,7.38-.52,2.47.27,3.43.06,5.67M70.74,55.74c-1.21-3.62-.42-6.75,1.03-10.1.28-.65.44-1.35,1.09-1.75l-.77,1.96c-1.47,3.75-1.61,4.68-1.22,8.68.04.4.31.86-.13,1.21M71.77,55.24c-.54-.78-.29-1.64-.42-2.44-.19-1.13-.08-2.12.08-3.22.25-1.7.67-3.27,1.7-4.73.14.31-.07.6-.22.94-1.13,2.59-1.43,5.26-1.01,8.18.07.46.16.96-.12,1.27M72.92,46.99c.05-.16.25-.31.38-.19-1.01,3.16-.51,4.99-.82,7.99-.63-2.67-.37-5.31.44-7.8M73.31,42.76c.39-.76.83-1.41,1.51-1.98.37.3-2.18,3.28-1.51,1.98M73.84,48.53c-.48,1.94-.32,3.86-.28,5.95-.6-.25-.37-.83-.41-1.28-.24-1.07-.08-4.4.52-5.03.05-.06.17,0,.18.05.03.11.01.19-.02.32M74.47,50.25c-.25,1.4-.07,2.71-.12,4.25-.53-.64-.33-1.41-.42-2.13-.09-1.18,0-2.32.58-3.38.34.43.03.85-.04,1.26M75.4,49.97c.02,1.77-.17,3.35.09,5.02-.97,1.12-.75-5.87-.09-5.02M75.44,39.24c-1.34,1.36-1.55,2.15-2.29,2.9-.07.07-.12.02-.14-.03-.21-.48,1.63-2.57,2.16-3.14.2-.21.47.07.26.27M76.61,55.12l.17-3.48c0-.11.06-.19.09-.26.03-.08.11-.08.17-.03.25.19-.1,3.56.08,4.3-.34.05-.53-.21-.51-.52M77,57.2c.01-.32.51-.13.7-.13.2,0,.6.29.43.63-.21.43-1.15-.02-1.13-.5M77.57,55.84c.18-.15.3-.22.48-.05.12.12.18.31-.11.5-.17.11-.32.19-.41.14-.12-.06-.27-.15-.26-.24.03-.16.19-.27.3-.35M77.75,52.43c.06-.02.21.1.21.29l-.06,2.57c-.53-.07-.4-2.75-.15-2.86M77.44,58.7c-.11-.11-.11-.26-.1-.33.01-.48,1.25-.04,1.65.34-.33.47-1.18.35-1.54-.01M79.11,57.46c-.74.69-.91-6.48-.19-5.86-.02,1.97-.07,3.86.19,5.86M76.87,63.51c.26,0,.38.46.34.65-.07.31-.22.59-.66.64-.16-.43-.12-1.08.32-1.29M75.18,78.33c-.26.18-.41-.2-.44-.39-.03-.17-.04-.42.2-.59.09-.07.32-.05.37.15.06.24.04.72-.13.83M80.39,79.5c-.18.17-.39-.08-.43-.21-.06-.17-.19-.57.06-.68.26-.11.48.05.53.24.04.16.09.43-.15.66M81.53,74.91c-.19.32-.24.93-.65,1.15-.72.37-1.5-.03-2.1-.43-.54-.36-.81-.74-.75-1.42.12-1.45.68-4.53.02-5.57-.08-.12-.3.07-.25.17.4.8-.14,3.16-.28,4.15-.19,1.33-.68,2.64-1.89,3.35-.39.23-.89.11-1.52.26.37-.64-.04-1.29.08-1.88.31-1.49,1.31-6.96,2.42-7.53,1.12-.32,1.98.66,2.55,1.46.93,1.29,1.71,2.55,2.33,3.99.34.79.51,1.47.03,2.3M80.1,57.83c-.97.12-.24-9.02.23-7.78.02.05.06.13.05.25-.31,2.52-.46,4.97-.28,7.53M83.94,70.93c-.36.59-1.41-.94-1.23-1.22.48-.72,1.35,1.02,1.23,1.22M83.7,67.32c-.12-.19-.6,0-.64-.34-.03-.23-.26-.53-.06-.73.48.08.53.71.85.84.48.2,1.05.03,1.48.45.31.29.54.68.22,1.08-.44-.18-.43-.58-1.08-.69-.49-.21,1.41,1.9.32,1.59-.73-.21-.37-.99-1.08-2.19M85.19,78.52c-.3.09-.41-.3-.46-.45-.06-.19.01-.63.38-.56.36.07.44.91.07,1.01M85.09,73.8c-.16-.13-.48-.42-.23-.65.28-.26,1.03.2,1.04.64,0,.38-.63.17-.81.02M86.92,76.29l.11.09s0,.05,0,.07c-.04-.05-.07-.11-.11-.16M87.22,71.84c-.12.42-1.06.49-1.2.09-.11-.3.35-.55.56-.55s.71.21.64.46M88.36,84.21c-.65-.41-.3-1.07-.39-1.62-.09-.55-.54-2.18-.18-2.3.58-.19,1.1,2.79.57,3.92M89,74.9c-.06.1-.24.2-.42.04l-.64-.54c-.35-.29-.53-.75-.19-1.14.45.27,1.56,1.12,1.25,1.64M100.02,75.81c.46-.06.91.04,1.4.1-1.37,2.28-6.89.29-8.87-.44-.3-.11-1.79-.59-1.51-1.17.05-.1.36-.13.47-.02.59.55,1.3.73,2.01,1.03.7.3,1.34.61,2.13.75,1.11.2,2.2.64,3.39.31-1.45-.32-2.87-.3-4.28-1.04,1.57-.17,3.3.74,5.27.49M100.09,73.93c.45.2,1.05-.06,1.48.47-.61.79-3.64.34-4.5-.05.48-1.05,2.81.45,1.77-.48.28-.49.82-.14,1.25.05M97.88,57.23c-.73.41.47-4.69.89-4.41-.2,1.53-.51,2.9-.89,4.41M102.38,48.61c-.6-.11,1.71-2.65,2.04-2.44.08.15-1.82,2.51-2.04,2.44M104.29,48.01c-.32-.75,2.03.43,2.1.76-.72.07-1.41-.42-2.1-.76M104.81,47.05c-.12.07,2.63.99,2.47,1.33-.37.1-3.12-.97-2.47-1.33M106.33,45.71c-.18.06,1.62.3,1.48.88-.31.06-2.04-.68-1.48-.88M107.2,47.08c.1.05.18.13.23.14.03.01-.1.16-.13.16.02.07-2.44-.75-1.65-.91.07-.01.21-.03.32.02l1.24.59ZM99.85,32.11c.78.09,1.51.11,2.19.58.21.14.79-.26.96.09.09.2-.12.42-.21.68.38.17.96.05,1.23.43.19.27-.07.74.07,1.09.26.26.69-.04.98.17.28.2.32.62.59.83.35.28.86.4,1.09.82.11.22.12.43.49.55-.47.23-.96.26-1.55.01l.65-.48c-.19-.28-.64-.24-.85-.48l-.7-.83c-.17-.21-.54.08-.84.03-.36-.44-.47-1.02-.32-1.55-.43-.23-.9-.06-1.25-.31-.24-.17.05-.51.18-.76-2.73.34.06-.5-3.02-.42l-.37-.78c.4-.32.52.26.69.33M97.69,31.32c.33.37.52.52,1.14.64-.04.37-.52.29-.81.17-.26-.11-.64-.42-.33-.81M98.06,52.4c.19.24.09.48-.01.7-.37.83-.49,1.68-.75,2.55-.02.07-.15-.1-.19-.12-.13-.07.43-2.71.95-3.13M91.55,53.09c.23.56.24,1.1-.12,1.7-.31-.59-.21-1.18.12-1.7M90.54,52.35c.03.69.21,1.35-.09,2.18-.22-.73-.25-1.47.09-2.18M96.33,61.48c1.13.52,2.8,2.01,2.53,3.36-.13.68-.17,1,.19,1.61.43.73.56,2.1-.26,2.54-.36.19-.88.11-.95.79-.19,1.76-1.71,2.96-3.51,2.73-1.06-.13-2-.51-3.06-.74-1.86-.42-3.57-1.46-4.67-3,.68-.63-.5-.72.11-1.34.8.36,1.48,1.1,2.26,1.53l1.75.98c.71.4,3.94,1.74,4.79,1.29-.39-.46-1-.17-1.45-.36-1.21-.5-2.45-.89-3.58-1.51-.97-.53-1.78-1.23-2.78-1.71-.17-.08-.32-.41-.37-.54-.06-.17.23-.32.4-.51-.47-.54-.45-.09-1.05-.86-.11-.14.07-.41.21-.31.12.27.46.76.71.54.21-.34-.45-.57-.6-.8-.28-.42-.34-.92-.84-1.2-1.37-.76-1.38-1.91-1.69-1.15-.07.16,0,.37.14.5l.92.86c.18.17.25.59.02.67-.52-.29-.97-.72-1.39-1.23-.75.67,1.92,1.74,1.47,2.27-.54.06-.98-.34-1.46-.69-.2.32-.22.63-.56.79-.88-1.27.03-3.03-.4-3.02-.65.01-.93.68-1.11,1.2-.19.53-.81,1.08-.74,1.65.06.47.25.86.14,1.4-.1.46.62.82.41,1.43-1.03-.37-1.36-1.73-.77-2.66-.37,0-.48.43-.83.33-.22-.06-.21-.3-.22-.43-.01-.21.24-.32.41-.47.35-.3.6-.76.84-1.16.88-1.43-.74-2.05-.1-2.42.68-.38.69.7,1.46.55.66-.13,1.02-.94.84-1.57.28-.33.75.07,1.08.09,1.66.08,1.76-1.16,5.22-.79,2.22.24,4.45.38,6.51,1.34M80.97,57.92c-1.06-1.28-.35-6,.06-7.48.18.5.09.97,0,1.45-.35,2-.24,3.94-.07,6.03M81.62,51.46c.42.61.09,1.26.03,1.87-.2,2.07-.11,2.62.06,4.56,0,.05-.08.14-.13.12-.69-.32-.39-5.55.03-6.55M81.76,46.88c.43-.15-.26,1.79-.42,2.06-.17-.32-.03-1.91.42-2.06M83.12,49.63s-.19-.12-.18-.17l.45-2.89c.02-.11.2-.23.26-.22.42.04-.62,3.31-.53,3.29M83.71,50.32l-.46,6.41c-.71-.41.04-5.84.16-6.43.02-.09.1-.16.14-.19.09-.09.17.06.16.21M82.24,48.41c.02-.92.28-1.71.57-2.54.93-1.3-.49,2.66-.57,2.54M82.42,52.47c.12,1.49.14,2.91-.02,4.5-.5-1.48-.38-2.99.02-4.5M84.38,51.39l-.03,4.33c0,.12.04.22-.08.27-.68.26-.34-4.19.1-4.6M84.66,49.34c-.08.62,0,1.16-.28,1.84-.26-.63-.03-1.27.28-1.84M85.99,54.64c-.47.04-.06-3.96.37-4.52.22,1.12-.2,2.11-.17,3.27.01.53.05,1.22-.19,1.25M87.84,55.8l.29.07c.08.02.25.3.12.35l-1.92.65c-.43.15-1.27,1.11-1.43.47-.17-.69,2.55-1.64,2.94-1.54M87.23,50.16c.22,1-.14,2.9-.27,4.18-.8.4.13-3.98.27-4.18M85.39,52.79l-.14,2.26c-.01.23-.27.2-.28.1-.01-.09-.11-.19-.11-.32-.02-.54.21-5.94.87-6.06.05,1.44-.26,2.67-.34,4.02M88.85,52.12c-.12.56.06,1.09-.33,1.7-.58-.56.31-3.01.33-1.7M89.56,52.29c.36-.22.03,1.92-.1,2.02-.43-.65-.19-1.37.1-2.02M89.29,31.59c-.43.37-.9.53-1.44.43.36-.39.83-.64,1.44-.43M87.89,50.94c.37-.46-.03,3.55-.18,3.11-.31-1.06-.18-2.14.18-3.11M87.37,31.74c-.45.35-1.11.45-1.74.51-.78.11-1.3.67-2.12.55.18-.27,4-1.82,3.87-1.05M83.77,33.77c-1.12.44-2.17.94-3.2,1.57-.36.22-.7.59-1.19.43.23-.53,4.68-3.01,4.39-2M81.29,34.03c-1.5.85-2.86,1.8-4.29,3-.99-.5,5.5-4.34,4.29-3M76.93,38.28c.83-.42-1.05,1.54-1.02,1.46.05-.86.54-1.21,1.02-1.46M75.95,50.95c0-.07.13-.16.14-.25,0-.04.04-.06.09.01.17.23-.21,3.04.25,4.31.04.11-.27.15-.32.08-.34-.48-.18-3.31-.16-4.15M75.54,37.81c.44.11-1.04,1.1-1.77,2.12-.06.09-.19.13-.27.1-.52-.14,1.67-2.31,2.04-2.22M69.43,47.84c.44-1.17,2.47-6.68,3.7-7.06-1.92,3.55-3.99,7.26-4.21,11.52-.07,1.46.41,2.7.2,4.17-1.29-2.36-.57-6.28.31-8.63"/>
  <path class="cls-2" d="M92.92,64.6c1.09.9,2.29,1.46,3.77,1.47.49,0,.98-.05,1.43.28.06-.78-1.18-.33-2.76-.88-.92-.32-1.78-.84-2.68-1.3-.54-.27-.95-1.02-1.65-.72.52.68,1.36.71,1.89,1.14"/>
  <path class="cls-2" d="M88.01,61.03c-.04.6,1.32,2.34,1.84,2.64.97.55,1.71,1.22,2.63,1.82,1.23.79,4.12,1.96,5.63,1.32-3.24-.72-2.49.09-5.35-1.63-.7-.42-1.31-.81-1.95-1.35-.42-.36-1.09-.39-1.44-.89-.43-.62-.56-1.44-1.37-1.9"/>
  <path class="cls-2" d="M93.49,63.78c-.43-.61-.88-.64-1.37-.82.23.58.85.94,1.37.82"/>
  <path class="cls-2" d="M94.16,68.57c-2.18-.82-2.48-1.73-4.54-2.15.55.53,1.22.75,1.88,1.13,1.03.6,1.98,1.4,3.17,1.61.99.18,2.02.25,2.92-.05-.68-.46-1.6.15-3.43-.54"/>
  <path class="cls-2" d="M94.09,70.14c-2.71-.95-3.37-1.96-4.48-2.34-.44-.15-.81-.3-1.15-.6-.04.47.4.57.71.76l3.53,2.05c.69.4,3.06.83,3.89.99.8-.22-2.33-.8-2.51-.86"/>
</svg>