<?xml version="1.0" encoding="UTF-8"?>
<svg id="Camada_1" data-name="Camada 1" xmlns="http://www.w3.org/2000/svg" viewBox="0 0 190.28 173.89">
  <defs>
    <style>
      .cls-1 {
        fill: #1d1d1b;
        fill-rule: evenodd;
      }
    </style>
  </defs>
  <path class="cls-1" d="M50.96,66.25c.19-.27-.22-.38-.37-.48-.14-.1-.51-.11-.54.25-.03.33.75.47.91.24Z"/>
  <path class="cls-1" d="M94.25,55.7c0,.08.22.14.28-.03.1-.26.18-.45.19-.61,0-.2-.3-.18-.43-.09-.06.04-.04.77-.04.73Z"/>
  <path class="cls-1" d="M40.56,72.73c-.39.06-.5.13-.52.23-.04.14.01.27.1.31.08.04.21.05.35.02.23-.14.38.03.18.19-.17.08-.29.18-.25.31.02.07.1.12.16.15.11.05.17-.04.25-.1.31-.23.35-.44.27-.77-.06-.23-.22-.37-.44-.51.08-.15.25-.32.12-.44-.14-.13-.63-.16-.92-.21-.09-.01-.2.18-.11.3.32.09.81.19.81.53Z"/>
  <path class="cls-1" d="M36.15,74.91s-.03,0-.04-.02c.04.05.04.04.04.02Z"/>
  <path class="cls-1" d="M52.72,77.21s.08-.06.11-.08c0,0,.01,0,.02,0-.11,0-.21,0-.32,0,.07.03.13.06.2.09Z"/>
  <path class="cls-1" d="M41.54,88.53c-.23.15,0,1.22.29.9.1-.36.09-.57.13-.8-.13-.18-.29-.18-.41-.1Z"/>
  <path class="cls-1" d="M54.48,79.69s-.11.73.19.77c.19.02.34-.11.38-.25.08-.23-.39-.64-.58-.52Z"/>
  <path class="cls-1" d="M92.5,52.59c-.11-.07-.43-.05-.39.09.14.44.03.76.32,1.01.5-.05,0-1.14.07-1.1Z"/>
  <path class="cls-1" d="M54.67,86.13c.07.02.28-.12.21-.24-.13-.22-.38-.38-.6-.55-.18-.13-.4.14-.33.31.03.07.68.46.71.47Z"/>
  <path class="cls-1" d="M52.39,90.76c.73-.16.99-.83.61-1.43-.43.38-.41.88-.61,1.43Z"/>
  <path class="cls-1" d="M58.71,95.86c-.23.06-.33.36-.56.52-.24.15.11.39.28.33.09-.03.13-.09.19-.31.13-.09.22-.21.27-.29.04-.07-.04-.29-.18-.25Z"/>
  <path class="cls-1" d="M76.06,110.06c.18-.27-.28-.41-.22-.57.07-.2.37-.3.15-.52-.08-.08-.22-.16-.4-.06-.09.05-.04.25-.1.39-.12.31-.59.38-.46.87.44-.21.68-.27,1.03-.12Z"/>
  <path class="cls-1" d="M50.83,80.05c-.1.42.7.58.78.23.08-.35-.69-.58-.78-.23Z"/>
  <path class="cls-1" d="M59.35,88.29c.01-.32-.07-.69-.38-.86-.12.25-.23.63-.1.8.13.18.47.18.48.06Z"/>
  <path class="cls-1" d="M47.47,90.76c.17.19.41-.08.51-.17.11-.09.3-.4.04-.52-.28-.13-.76.45-.55.69Z"/>
  <path class="cls-1" d="M49.82,86.97c-.48.1.04,1.11.33,1.08.45-.06-.11-1.12-.33-1.08Z"/>
  <path class="cls-1" d="M76.54,109.78c-.26.15-.3.28-.21.38.03.04.09.1.17.1.06,0,.11-.09.16-.18l.33-.54c-.3-.17-.62-.43-.9-.18.15.26.47.16.45.41Z"/>
  <path class="cls-1" d="M45.2,81.74s-.07-.04-.09-.07c-.03,0-.02.02.09.07Z"/>
  <path class="cls-1" d="M68.83,65.96c-.39.26.39,1.42.56,1.13-.01.02-.39-1.44-.56-1.13Z"/>
  <path class="cls-1" d="M66.4,71.28c-.11.16-.13.38-.01.5.12.12.31.14.41.05.16-.14.19-.34.09-.52-.13-.24-.41-.16-.49-.04Z"/>
  <path class="cls-1" d="M67.52,68.4c.08.08.19.03.21-.07.01-.04-.01-.09.01-.29.22-.03.65-.26.41-.46-.4-.33-.7.75-.63.82Z"/>
  <path class="cls-1" d="M68.11,66.14c-.11.03-.01.18-.05.28-.15.46.04,1.04.65,1.1-.54-.92-.11-1.52-.6-1.38Z"/>
  <path class="cls-1" d="M67.85,66.85c-.04-.11-.16-.15-.23-.18-.34-.16-.11.39-1.06.78.52.28,1.38-.36,1.29-.59Z"/>
  <path class="cls-1" d="M118.68,68.93c.11-.07.18-.16.15-.28-.03-.14-.53-.42-.65-.42-.13,0-.21.17-.18.28,0,0,.43.59.68.42Z"/>
  <path class="cls-1" d="M57.51,71.34h.05l-.08-.12s.02.08.03.12Z"/>
  <path class="cls-1" d="M103.89,69.29c-.27.08-.63.21-.75.53-.05.13.15.28.17.44.4-.07.43-.57.58-.97Z"/>
  <path class="cls-1" d="M49.3,76.16c-.12-.19-.33-.1-.4.02l-.16.26c-.12-.16-.2-.25-.3-.32-.11-.08-.35-.08-.37.18-.02.39.46.71.79.56.21-.09.62-.4.44-.71Z"/>
  <path class="cls-1" d="M49.35,79.89l-.02-.3c0-.14-.25-.08-.27,0,.03-.09-.05.84.06.9.13.07.79.15.83-.14.03-.28-.59-.23-.6-.45Z"/>
  <path class="cls-1" d="M45.21,81.23c-.15.14-.21.33-.1.44.13-.03,1.27.15.84-.3.14.15-.61-.28-.74-.15Z"/>
  <path class="cls-1" d="M68.27,105.98c-.37.48-.11,1.02.25,1.37.11.1.28-.13.21-.19-.3-.23-.33-.65-.46-1.18Z"/>
  <path class="cls-1" d="M49.26,81.13c-.1.24.17.61.25.85.5-.2.41-.43.31-.65-.1-.22-.41-.55-.56-.19Z"/>
  <path class="cls-1" d="M98.71,63.15c-.2-.06-.46-.25-.71-.03.04.16,1.06,1.14,1.05.63,0-.21-.12-.53-.34-.6Z"/>
  <path class="cls-1" d="M94.38,59.91c.01.06.07.21.25.17l.9-.17c.15-.03.14-.16.09-.21-.09-.09-1.3-.16-1.24.2Z"/>
  <path class="cls-1" d="M96.09,60.23c0,.47,1.54.15,1.46-.05-.46-.08-.96-.24-1.46.05Z"/>
  <path class="cls-1" d="M71.11,71.74c.04-.26.48-.51.23-.82-.49.25-.42.91-.67,1.26-.18.02-.51-.17-.68.04-.07.1-.18.27-.02.38.14.1.33.22.47.19.2-.04.12-.42.22-.46.21.04.38.22.55.13.11-.06.3-.18.26-.4-.02-.12-.36-.19-.37-.31Z"/>
  <path class="cls-1" d="M69.1,102.01c.02-.16,0-.34-.21-.34-.4,0-.36.53-.72.53-.05-.21,0-.44-.25-.46-.15.41-.27,1.03.12,1.25.14-1.13,1.01-.46,1.07-.98Z"/>
  <path class="cls-1" d="M99.11,73.86c-.33.38-.01.7.28,1.01.13.14.25.14.33.06.04-.04.09-.08.09-.18,0-.06-.12-.08-.22-.14-.29-.19-.11-.59-.47-.75Z"/>
  <path class="cls-1" d="M146.35,72.83c-.21-.02-.39-.06-.36.25.21.08.33-.01.4.05.06.06.14.25.03.3-.08.03-.3.05-.25.29.03.11.3-.12.36,0,.03.06.09.27.17.28.27.24-.1-1.14-.35-1.16Z"/>
  <path class="cls-1" d="M131.67,82.09c-.13,0-.24.02-.32.11.02-.03.36,1.81.65,1.34.03-.05-.05-.21-.03-.25.26-.63-.21-1.2-.31-1.2Z"/>
  <path class="cls-1" d="M97.84,74.99c-.11.28,1.64.41,1.46.45.11-.03.27,0,.29-.34-.93.1-.16-.66-1.75-.12Z"/>
  <path class="cls-1" d="M120.07,91.63c-.14-.26-.9-.16-1.14.37.36-.13,1.37.07,1.14-.37Z"/>
  <path class="cls-1" d="M133.64,80.11c.18-.15-.18-.58.1-.67.14-.05.32-.06.35-.21.02-.09-.05-.21-.16-.27-.02,0-.86.34-.74.65.08.21.15.74.45.5Z"/>
  <path class="cls-1" d="M98.75,78.74c.06.09.18.17.26.12.09-.04.8-.87.4-1.14-.31.54-.77.86-.67,1.02Z"/>
  <path class="cls-1" d="M134.34,91.77c-.39.22-.51.51-.43.91.04.22.17.57.56.57l-.45-.9c.27-.19.59-.34.32-.58Z"/>
  <path class="cls-1" d="M68.73,102.48c-.18.79-.4.8-.11,1.12.26-.28.72-1,.41-1.15-.12-.06-.28-.09-.31.02Z"/>
  <path class="cls-1" d="M130.71,82.45c-.12.17.33,1.11.45.78.14-.21.09-.61,0-.79-.1-.19-.39-.1-.46,0Z"/>
  <path class="cls-1" d="M159.29,73.46l-3.4-.54c-4.53-.71-5.04-3.47-7.85-2.4-.53-1.21-1.64-1.63-2.9-1.26-.69.2-1.43.63-2.15.79-3.42-.58-6.52.31-9.74-.13-3.33-.45-2.63-3.97-6.96-1.83-.63-.69-1.79-.37-2.47-.73-1.14-.61-2.02-1.55-3.32-2.01l-2.99-1.07c-3.69-1.32-3.5-3.96-7.07-5.7-2.16-3.43-3.53-1.36-4.25-2.82-1.26-2.57-4.03-2.94-6.63-2.39-.34-1.01-.98-1.72-1.57-2.49-.81-1.06-1.94-1.58-3.2-1.74-2.36-.3-4,.85-5.82,1.95-1.18.71-2.78.92-4.11,1.54-2.55,1.19-5.13,2-7.76,2.96-2.79,1.02-5.55,1.52-8.51,1.8-4.52.42-8.75,1.89-12.34,4.69-.4.31-.43.52-1.04.55-2.09.11-4.02,1-5.87,1.88-.32.15-.6.18-.93.4-.46.3-1.2.36-1.78.25-3.25-.61-6.43.73-8.32,3.47-3.24-1.1-6.09.81-8.47,2.74-.75.61-.95,1.44-.41,2.12l1.72,2.2c.67.85.71,2.14,1.99,2.43-.79,2.42.96,4.15,2.77,5.27,1.82,1.13.03,2.99,1.68,4.8,1.39,1.53,3.6,2.76,5.8,2.03,1.63,3.88,4.71,3.08,6.29,6.12,1.07,2.07,3.86,1.9,5.51,2.06,2.24.22,4.48,3.34,5.63,5.14.6.93,1.5,1.78,2.19,2.52.17,1.4.23,2.77,1.13,3.88,1.03,1.28,2.56,1.81,4.18.97.25,1.76,1.51,2.52,3.06,2.59,1.14.05,2.26.52,3.38.74,2.3.46,2.79,1.65,4.84,2.15.42.99.99,1.95,1.99,2.43.83.4,1.74.43,2.55-.35.7,1.53,2.16,1.35,3.4,1.64,1.55.35,2.88,1,4.58.41,2.32-.8,3.73-.19,5.25-.89.81-.37,1.4-1.34.92-2.19-.68-1.18-2.68-1.25-3.94-1.18-4.39.26-3.9-4.23-7.75-2.52.08-1.34-.53-2.35-1.68-2.57-1.14-.22-2.06.51-3.04.87-1.46.09-4.59-4.17-4.98-5.11-.62-1.52-1.76-2.49-3.59-1.93.25-1.19.13-2.21-.44-3.11-.53-.83-1.47-1.28-2.45-1.3l-2.69-.04c-.39,0-1.05-.03-1.33-.35-1.25-1.42-2.3-2.93-3.4-4.47-2.04-2.84.68-4.79-.78-7.9.45-.42.75-.74,1.06-1.29,2.06.58,4.11.22,5.81-.94,2.58-1.76.67-3.12,6.59-5.25,5.31-1.91,10.65-.86,16.17-1.06.93,1.24,2.27,1.71,3.73,2.04,1.88.43,3.66-.06,4.68-1.91.38.7.78,1,1.42,1.09-.76,2.27-1.62,2.61-2.66,4.56-.79,0-1.56.15-2.17.46-1.02.51-.57,1.57-.83,2.18-.37.6-1.29.91-1.38,1.94-.13,1.47-1.39,2.46-2.78,2.64-1.03.14-2,.86-2.05,1.94-.07,1.71,2.98,2.23,4.7,1.42,1.42-.67,1.46-2.25,3.56-1.97,1.03.14,1.82-.96,1.62-1.97,1.02.02,1.96-.08,2.77-.63.76-.51,1.18-1.3,1.02-2.21l-.3-1.7c.59-.63.93-1.34,1.37-2.06l4.01-6.55c1.4-.9,3.18-1.41,4.77-2.02.5.52.46,1.08.38,1.68-.33,2.62,1.58,5.15,1.69,7.71.05,1.28.03,2.5.3,3.75-.71.9-1.35.66-2.08,2.06-.92-.4-1.91-.02-2.2.95-.57,1.88-1.89,3.32-3.9,3.59-1.43.19-2.59,1.33-2.89,2.71-.45,2.03,3.82,2.27,6.87-.02,1.81-1.36,3.41-.36,4.63-.73,1.62-.49,2.09-2.66,2.75-3,1.01-.52,1.75-1.24,2.08-2.32.38-1.21-.16-2.19-.41-3.3-.24-1.07-.2-2.16-.59-3.26-.7-1.94-.84-4-.61-6.05l.28-2.54c.05-.49.17-1.02.18-1.49.22-.39,1-.19,1.37-.04,1.33.54,2.62.73,4.06.85.01.83.78,1.53,1.02,2.07.12,1.74,1.05,2.71,2.32,3.72.78.63,1.33,1.57,2.3,2.13,1.31.77,2.1,2.16,2.12,3.66.01.76.25,1.58.36,2.27-.71.64-.4,1.58-.61,2.31-.19.68-1.02,1.24-.86,2.24.23,1.48-.23,2.92-1.16,4.08-.91,1.15-.63,2.5.17,2.79.25.09.69.13.97-.08l4.26-3.1c1.42-1.04,2.48-2.47,3.6-3.82.91-1.09-.48-2.1-.57-2.39-.05-.15.1-.35.16-.5.43-1.01-.07-1.89-.41-2.81-.31-.87-.53-1.69-1.1-2.46-.78-1.04-1.4-2.19-1.72-3.49-.22-.9-.65-1.86-.63-2.78.06-2.13-.46-4.65-3-5.22.7-.42,1.49-.49,2.31-.42,2.19.2,4.27.21,6.47-.03,1.31,1.65,4.49,2.6,6.27,1.51.28.36.6.8.93.91.51.17.99.04,1.45-.16.57-.25,1.18-.31,1.68-.72,2.01-1.63,3.92.22,8.67-.45.69-.1,1.09-.57.93-1.31-.19-.9-.95-1.46-1.86-1.61ZM109.5,58.78c.38.78.55,1.61.59,2.48.01.3.27.41.34.62.06.18-.27.41-.13.65.1.18.15.65.53.43.05-1.14-.43-1.01.15-1.6.13-.13.32.09.5.06.19-.03.18-.21.08-.3-.17-.14-.34.04-.54-.02-.29-.08-.25-.89-.28-1.28,2.53,1.72,2.92,3.36,5.35,4.77.04.02-.08.23-.05.26.03.02.12.08.13.07l.2-.22c.31-.33,2.38.64,3.44,1.22l2.83,1.56c-.19.15-.28.16-.36.24-.06.06.02.23-.01.33-1.13.21-1.12,1.19-1.61,1.13-.11-.01-.05-.21-.08-.31-.12-.36-.35-.1-.5.03-.27.23-.02.35.13.57.08.11-.32.4-.43.28-.1-.11-.14-.23-.22-.28-.12-.07-.26.06-.41.16-.24-.32-.72-.28-1.08-.42-.15-.06-.15-.38-.34-.41-.11-.02-.24.21-.37.32-.18-.16-.23-.45-.46-.5-.3-.06-.5,0-.72.22-.35-.54-.99-.55-1.53-.34-.65-.14-.16-1.17-.75-1.52-.41.66.48,1.27-.19,1.27-.01-.22-.1-.35-.21-.38-.17-.05-.36.13-.49.22-.09-.04-.16-.3-.23-.3h-.51c-.11,0,.01-.33-.01-.43-.05-.17-.18-.24-.29-.23-.38.02-.31.47-.37.78-.02.13-.62.02-.65-.02-.26-.3.41-.36.34-.65-.03-.12-.17-.21-.28-.17-.12.04-.13.23-.33.39-.38-.08.47-.94.16-1.23-.51-.47,0,.34-.99.99-2.38,1.57-3.56,1.82-6.38.72,1.08-.81,1.1.02,1.78-.95.05.39.06.66.39.76.2.06.57.3.78-.04.05-.19-.25-.08-.43-.21.55-.19.92-.59,1.42-.86-.25-.1-.49-.14-.63-.3.42-.74-.63-.48-.03-1.52.14-.23.08-.52.08-.79,0-.25-.45-.22-.58-.44-.15-.25.21-.38.38-.36.72.11.44,1.16.81.54-.03.06-.06-.82-.08-.85-.1-.16-.36-.09-.59-.08,0-.54,1.02-.7,1-.97,0-.09-.05-.24-.18-.27-.35-.08-.54.25-.95.33.55-1.22,1.44-.42,1.22-1.02-.09-.24-.58-.17-.74-.39-.18-.24-.36-.35-.71-.48.41-.08,1.09-.52,1.12-.84.01-.1-.13-.34-.22-.31-.33.14-.53.43-.9.51-.1.02-.16-.18-.11-.2l.25-.1c.13-.27.05-.63.11-.93l-1.23-.52c1.4-1.03,3.32-.44,4.06,1.09ZM118.55,70.41c-.3.15-.58.16-.95.24-.18-.2-.3-.37-.29-.66.47.1.86.18,1.24.43ZM116.11,70.98c-.16.14-.31-.05-.46-.04-.4.03-.58.19-.87.05-.42-.21-1.4-1.77-.91-1.96.28.18.5.5.85.4.68-.2,1.14.35,1.32.94.03.11.18.22.25.37.09.19-.02.12-.18.25ZM105.83,71.12c-.13.06-.38.45-.47.18-.05-.14.09-.35-.07-.4-.13-.04-.24-.08-.29.01l-.21.36c.31-.35-1.73-1.07-1.49-1.01-.38-.1-.73-.38-.6-.75.21-.14.83-.4.42-.85-.21-.12-.32.38-.41.55-.09.17-.26-.05-.31-.14-.09-.17.03-.25.17-.36.28-.24.42-.18.72-.09.4.12.6.26.6.66.37-.11.6-.13.82.17.17-.12.21-.25.35-.31.02.23.04.42.18.43.19.01.25-.17.39-.25.18-.11.38.11.32.28-.03.09-.11.2-.18.38.18.13.36,0,.58.06.25.41.55.77.73,1.13-.09.1-.34.16-.42.04-.04-.06.04-.16,0-.33-.25.25-.57.12-.82.25ZM101.59,67.36c-.01.06-.2.08-.25,0-.07-.15-.11-.29-.2-.34-.39-.2-.22.6-.66.43-.06-.03,0-.15-.03-.27-.06-.21-.24-.23-.38-.18-.17.06-.18.23-.33.47l-.26-.46c-.07-.13-.3.16-.41.11-.31-.15-.26-.57-.52-.86-.32.47-.79.77-1.28.45.72-.42,1.47-.92,1.35-1.89-.62.34-1.29.5-1.62-.14-.22.11-.6.07-.67.3-.04.27.44.15.56.19.06.17-.03.63-.2.72-.14.08-.3-.13-.38-.15-.13-.03-.22.15-.37.34-.17-.1-.18-.33-.33-.4-.15-.08-.36.07-.55.03-.19-.04-.28-.25-.43-.33,0,0-1.12.29-1.03.19l-.32.36c-.16-.36-.33-.95-.75-.82-.08.12.07.36.12.4.07.05,0,.27-.19.25-.4-.04-1.28-1.58-1.14-.61.01.11.27.18.31.39-1.03.64-1.65-1.24-1.75-.39-.01.09.16.17.23.4-.25.19-.5-.11-.74.06l-.19.13c-.45.3.01-.42-.01-.56-.02-.09-.15-.16-.27-.16-.13,0-.18.24-.28.3-.38.21-.8.19-.93.64-.2-.26-.3-.39-.48-.4-.23,0-.3.26-.35.56-.39.07-.37-.38-.5-.77-.48.22-.33.62-.33,1.01-.35-.07-.57-.17-.9-.31l-1.51.73c-.2.1-.2.43-.45.51-.37.11-.41-.1-1.17-.31-.17-.05-.21.3-.36.29-.15,0-.18-.2-.18-.27,0-.11-.31-.22-.35-.03-.06.31.23.6.2.92-.39.25-1.06-1.17-1.28-.43-.08.26.35.31.43.57.04.12-.08.18-.23.26-.59.35-1.02-.52-1.06-.02,0,.1,0,.23.04.42-.21.13-.45-.05-.74-.01-.15.4-.41.69-.84.74-.44.05-.68.36-1.01.55-.11.06-.37-.18-.47-.04-.07.1-.11.33-.18.45-.29.01-.5-.31-.61-.6-.07-.2-.42-.06-.43.15-.01.19.29.34.19.54-.07.13-.15.48-.32.43-.1-.03-.1-.27-.18-.3-.1-.04-.23,0-.31.04-.32.16.11.5-.13.83-.05.07-.19.11-.34.11-.28,0-.27.28-.32.53-.61-.04-1.17.16-1.7.48-.15.09-.42-.05-.56.09-.11.11-.16.27-.17.47-.14-.09-.22-.12-.3-.16-.17-.07-.4.13-.52.38-.77-.19-.95-1.76-1.5-.79-.28.5.61.42.64.88,0,.14-.06.39-.26.29-.08-.04-.04-.28-.11-.35-.21-.2-.51-.07-.81-.31-.09-.07-.07-.33-.03-.49.32-.2.84-.36.79-.95-.94.21-.91,1.51-2.14.98-.22.08-.27.34-.48.24.08-.31.24-.48.16-.67-.08-.18-.36-.28-.56-.09-.26.25-.37.66-.64.85-.41.3-.84-.26-1.14-.26-.37,0-1.73.2-2.3-.26-.21.06-.44.38-.73.36-.71-.02-1.29.22-1.96.42-.15.04-.37-.13-.52-.06-.17.08-.05.31-.13.46-.15.29-.61.35-.85.23-.23-.11-.83-.26-.68-.63-.02.04.77-1.2.64-1.5-.09,0-.79-.4-.64-.38-.16-.03-.28.1-.42.19-.38-.37.51-.43.69-.57-.15.12.39-.7.2-.97-.07-.1-.32.07-.49,0-.14-.36.37-.39.49-.61.31-.55-1.32-.2-.47-.68.3-.17.36.25.71.33.1.02.33-.12.29-.3-.1-.44-.6-.49-1.03-.47-.18-.16,1.05-1.57.32-1.3-.18.07-.09.47-.68.54-.14.01-.26-.36-.29-.57,1.53-1.69,4.85-2.55,6.69-1.6l2.5,1.29c.19.1.39.18.61.12.15-.04.27-.29.3-.53-.38-.11-.77-.19-1.02-.59,2.19.06,4.2-.27,6.3-.75,2.87-.66,5.65-1.18,8.46-2.08,2.88-.93,5.72-1.57,8.65-2.31l2.74-.7c1.31-.33,2.59-.52,3.94-.46.45.02.7.18,1.09.34.62.24,1.5.2,1.93.8.13.19.12.38.44.5.22.08.23.43.49.21.13-.1.41-.31.18-.49-1.25-.93-.92-1.35-2.83-2,.37-.35.87-.28,1.34-.45.17-.06.17-.51.54-.31-.09.22-.32.25-.39.54.57.31.89.73,1.21,1.34.71-.5-.55-1.17-.6-1.45,0,.04.35-.85.32-.83.28-.17.9.52.96.06.03-.25-.13-.39.02-.48.31-.19.45-.03.61.2.39.1.82-.37,1.2-.5.15-.02.3.32.41.33.13.02.37-.1.53-.18.29.18.69.35,1.05.51.98.41,1.47,1.48,1.54,2.51.13,2.05-.89,2.03-.61,4.4.1.88-.13,1.88-.93,2.26-.11.05-.28-.18-.37-.17-.17.03-.16.37-.26.5-.38-.05-.83-.03-1.01.36-.42-.35-.82-.67-1.24-.96-.1-.07-.1-.28-.16-.33-.08-.08-.34-.04-.33.13.07.68,1,.68.92,1.18ZM101.68,70.11c-.55.11-.92.18-1.35.45-1.79-2.02-6.97-1.97-8.58.32-1.12.04-2.14.22-3.26.48-3.81.89-7.52,1.65-11.45,2.26-2.03.32-3.85.54-5.88.46,1.28-.56,2.44-1.04,3.58-1.82,3.37-2.31,7.02-3.87,10.97-4.94,2.22-.6,4.36-1,6.65-.75,1.08.12,2.09.34,3.23.34,1.52,1.02,3.27,1.46,5.12,1.46.43.54.76,1.08.96,1.74ZM56.66,78.78c.13.14.14.23.08.31-.12.16-.25.19-.41.04-.08-.07-.15-.09-.22-.06-.1.05-.14.16-.03.29.07.09.2.16.16.21-.04.06-.11.23-.17.24-.07,0-.2-.09-.28-.17-.14-.15-.29-.07-.33.02-.19.33.23.55.23.56.06.31-.42.06-.61.29-.05.06.03.24.03.37-.26.07-.63.34-.89.18.05-.2.16-.29.22-.34.13-.09-.14-.39-.26-.26-.22.25-.15.61-.53.63-1.08.07-.65-.73-1.23-.66-.37.05-.28.73-.44.79-.14.06-.4-.21-.69-.17-.39.05.04.56-.27.81-.14.11-.28-.15-.45-.25-1.53,1.06-1.6.01-1.85,1.32-.54-.4.72-1.21-.12-1.26-.32-.02-.23.27-.52.75-.12.2-.56-.32-.89.06-.08.1.09.28-.06.54-.33-.15-.37-.49-.61-.44-.26.06-.44.19-.57.51-.05-.19-.23-.28-.3-.43-.09-.21-.53.1-.65,0-.86-.81-.36-2.06.47-2.79.64-.56,1.44-1.13,1.6-2.02.33-1.88,1.59-3.41,3.58-3.65,1.49-.18,3.01-.19,4.51,0,1.3.17,2.49.79,3.16,1.89.27.46.28,1.24.07,1.64-.2.37-.7.79-1.2.81-.15,0-.26-.32-.42-.23-.16.1-.3.27-.12.47ZM46.77,69.45c.07.02.17,0,.28-.14.07-.08-.04-.21-.2-.41.56-.13,1.18-.13,1.8-.15.19.22-.12.55-.13.72-.01.25.1.48.05.73-.02.08.27.08.32.04.3-.22-.27-.89.67-1.21,0-.3-.2-.38-.26-.63,2.11-.37,2.47-1.25,4-1.94.86-.39,1.78-.06,2.21.78,1.22,2.34-.32,3.77-.2,6-.09.15-.49.09-.6-.03-.4-.44.1-.97-.28-1.25-.1-.07-.41-.03-.39.14.05.42.18.64-.22,1.09-.02.29-.19-1.49-.73-1.12-.29.2-.08.35.07.81.04.11-.07.31-.24.23-.32-.14-.32-.53-.55-.73-.11-.1-.29,0-.34-.07-.08-.12-.06-.33-.16-.44-.12-.14-.32-.03-.35.06-.19.69.57.98.11,1.18-.7.29-.7-1.21-1.17-.56-.07.1.02.25.04.44.04.35-.62.46-.75.25-.07-.12.17-.37-.03-.43-.16-.05-.33-.08-.44.07-.11.15.11.28.19.45.08.17-.18.3-.3.3-.77-.02-.61-.99-1.02-1.16-.39.13-.28.39-.22.59.1.28.29.23.68.32-.31.19-.32.4-.43.84-.18-.3-.11-.68-.44-.8-.3-.11-.65-.33-.98.18.54.22.93.59.82,1.17-.2-.13-.25-.29-.41-.33-.12-.03-.9.72-.89.7-.05.13.06.31.02.62.12.13.22.24.26.24.08,0-.03.32-.14.27-.25-.11-.47-.34-.63-.59-.38-.21-.53-.46-1.05-.24-.79-1.18-1.5-2.58-1.74-4.01-.22-1.3.46-2.34,1.76-2.53.63-.09,1.28-.09,1.91-.05-.06.2-.1.3-.11.37-.03.13.07.2.2.23ZM106.79,69.33c3.05-.32,1.09-.93,4.72-.53.57.82.97,1.62,1.28,2.59l-4.66-.17-1.34-1.89ZM106.17,65.2c.17.17.22.51.18.74-.03.18-.33.37-.47.51.24-.93-.25-.62.29-1.25ZM61.83,59.97c.59-.04,1.17.32,1.84.06l-.9-.55c1.96-.77,3.88-1.1,5.92-1.3,3.15-.31,6.05-.91,9.02-1.99l9.84-3.57c.38-.14.52-.03.7.26.16.26-.16.44-.26.78-.04.14.28.24.31.13.03-.12.24-.27.25-.4.05-.77.83-.96,1.24-.94.38.02.42.38.86.57.08-.44-.37-.6-.14-.95.31.31.33.67.53.98.27-.07.17-.3.25-.43.1-.04.22.02.29.01.09,0,.22-.13.16-.18-.12-.11-.25-.07-.44-.1-.15-.28.2-.22.35-.29.29-.13,1.01.68.74-.02-.02-.06-.02-.21-.14-.25l-1.76-.61c.93-.99,1.53-.19,1.63-.21.38-.07.09-.78.58-.84.48-.06.25,1.2.68.57.06-.08-.05-.15-.07-.28-.02-.15.12-.36.37-.46-.11.35-.02.54.24.76.11.1.18.15.33.07.13-.07.03-.21-.04-.5-.12-.1,1.89,1.01,1.46.28-.2-.34-.7-.13-.97-.54,1.28-.07,2.41.82,2.91,2l.52,1.24c-.6-.08-1.15,0-1.74-.13-.12-.03-.21-.16-.31-.19-.14-.04-.24.29-.34.29-1.74-.07-2.04,1.04-3.27.48-.37.6-1.11.95-1.76.64-.14.1-.19.33-.29.38-.34.14-.63-.33-.85-.02-.05.07-.08.24-.15.29-.21-.48-1.17.03-1.27.04-.12.12-.11.3-.22.54-.12-.1-.15-.32-.31-.35-.1-.02-.9.27-.95.33-.07.08.02.24,0,.4l-.47-.32c-.33.17-.67.6-.96.71-.79.07-3.22,1.11-4,1.35l-.8.25c-.31.1-2.58,1.2-3.2.94l-.5.46c-.16.15-.44-.04-.69-.22-.19.19-.19.45-.43.59-.23-.18-.4-.27-.62-.28-.19,0-.28.34-.43.39-.32-.03-.6.1-.79.38l-.49-.19c-.17-.07-.26.41-.39.4-.19-.03-.34-.29-.49-.27-.29.04-.27.24-.37.53-.1-.18-.32-.36-.52-.3-.14.04-.18.18-.26.51-.3-.72-1.71,0-1.5-.04l-.78.14s-1.34.16-1.37-.14c-.26.4-.63,0-.85.07-.4.11-.66-.02-1.01-.04-.4-.03-2.06.29-2.62-.37-.19.17-.43.39-.68.39-.3,0-.36-.28-.47-.53-1.75.12-.88.69-2.69.65.87-.41,1.64-1.02,2.58-1.09ZM61.01,62.19c.71.1,1.18.67,1.82.97.21.06.28-.49.27-.7,0-.23-.38-.27-.61-.63l5.35.26c2.19.11,4.26-.29,6.34-.98l12.15-4.01c2.98-.98,5.81-1.97,8.83-2.75,1.08-.27,2.2-.39,3.23.05-.72.11-1.38-.21-2.05.18.17.29.43.13.56.2.21.12,0,.36-.05.57-.06.22.17.31.34.27.33-.08.17-.92.42-.9.45.12.82.22,1.22.21-.03.24-.09.37-.07.45.03.12.19.14.27.12.21-.04.13-.4.42-.54.09-.04.25,0,.24.13-.02.18-.13.29-.1.4.05.19.11.42.38.36.21-.04.1-.31.04-.47.1-.08.2.01.25.09.04.06,0,.2.06.33.28-.01.51.03.77.23-.82-1.31-.04-.74-1.23-1.91.28-.24.5.04.73.11.22.06.46-.39.78-.11-.1.13-.35.11-.37.29-.02.13.33.54.54.57.11.01.01-.24.08-.29.27-.17.62-.25.68-.67.36.04.32.34.53.43.39.17-.09-.82,1.57.61.05.04-.03.24,0,.29.04.08.24-.05.36.03.04.12-.29.4-.04.48.13.04.27-.08.34-.04.14.08.46.73.42.82-.06.16-.34.29-.58.39-2.93-2.2-6.65-.14-9.54,1.31-.83.09-1.86-.11-2.71.27-.11.05-.36-.27-.5.06-.04.09-.2.15-.28.16-.15.03-.25-.15-.42-.2-.21-.06-.25.24-.36.4-.18-.21-.33-.37-.59-.34-.21.03-.15.44-.36.49-.17.04-.21-.28-.3-.31-.46-.17-.35.5-.71.59-.21.05-.23-.34-.62-.31-.17.01-.12.4-.24.47-.31.17-.23-.14-1.01-.16-.21,0-.17.39-.4.45-.12.03-.27-.28-.46-.25-.18.04-.1.26-.2.4-.14.2-.5-.06-.74-.11-.2.1-.23.29-.42.43-.12-.19-.35-.36-.59-.3-.16.04-.2.26-.26.54-.28.01-.44-.17-.69-.22-.14.24-.35.63-.62.45-.13-.08-.14-.3-.31-.28-.41.06-.13.43-.41.56-.24.11-.37-.26-.69-.14-.1.04-.12.29-.26.33-.11.03-.26-.18-.34-.17-.22.03-.13.42-.44.49-.24.06-.39-.32-.56-.36-.16-.04-.29.04-.33.17-.04.14.04.24.1.46-.35-.16-.58-.02-.84,0-.27.03-.48-.11-.72.27-.06.1-.32.24-.45.26-.11.02-.25-.24-.48-.29-.13.65-.78.54-1.08.7-.68.35-1.38.25-2.06.46.23-.07-3.59,1.14-2.74.58l-.36.24s-.1-.35-.19-.35c-.21,0-.42.88-2.13.68-.05-.11-.08-.36-.13-.43-.05-.06-.19-.08-.33,0-.09.05.02.25-.03.45-.06.2-.66.22-.73.03-.04-.11.07-.35-.06-.39-.47-.16-.22.49-.57.57-.51.11-.63-.78-.99-.3-.06.07.1.17.28.29-.2.23-.44-.15-.68-.14-.19.01-.35.23-.53.2-.07-.01-.9-.68-.45-.81.02-.15-.07-.18-.14-.18-.15,0-.3.03-.32.11-.07.29.47.81.18.8-.54-.23-.46-.81-.37-1.38-.18-.07-.89.02-.88.35.01.36.81.35.54.9-1.33-.61-2.66-.34-4.08-.27.5-.54,1.09-.92.67-1.6-.23.6-.57,1.05-1.08,1.27-.21-.41-.09-1.02-.48-1.16-.34-.12-.34.46-.46.71-.18-.16-.06-.41-.18-.55-.13-.15-.39,0-.63-.24,1.19-.52,2.54-.72,3.89-.53ZM46.67,65.97c.95.16,1.75-.1,2.55-.53,1.38-.73,4.23-1.94,5.83-2.03.73-.04,2.02.14,2.23.95.17.66-.94,1.74-1.54,1.62-.68-.29-1.86-1.05-2.51-.45-.28.26-.93-.05-1.22.15l-1.15.79c-.25.17-.43.25-.48.67-.39-.11-1.47-1.56-1.69-.87-.13.41,1.16.46.82,1.18-.14-.13-.21-.34-.35-.32l-.49.06c-.18.02-.23-.33-.47-.3-.24.03-.15.31-.3.45-.17.15-.54.27-.66.43-.89-.39-.5-1.27-1.02-1.16-.44.09-.06,1.04.24,1.24-.47.18-.73-.13-1.1-.1-.18.17-.45.08-.2-.1.2-.11.27-.26.22-.4-.06-.15-.23-.1-.4-.07-.22.05.11.47-.83.81-.35.13-.5-.34-.71-.61-.35.35-.11.75-.32,1.17-.57-.23-.29-1.27-.85-.9-.39.26.37.5.03,1.05-.34.11-.87.02-1.24.07-.28.03-.3.95-.02,1.01.37.08.34-.42.36-.79.62.4.85.21.82.49-.05.4-.49-.26-.81.63l-1.41-.45c-.4-.13-.72-.37-.99-.69,1.81-2.38,4.7-3.49,7.65-2.99ZM30.48,73.44c-.49-.49-.32-1.18.2-1.61.87-.71,1.78-1.33,2.76-1.9,1.13-.65,2.43-.83,3.65-.48-.51.53-2.09-.08-2.02.89-.28-.15-.38-.24-.57-.24-.22,0-.08.36-.18.47-.09.11-.41-.08-.6.02-.15.08-.07.31-.16.59-.12-.12-.2-.26-.31-.25-.19.01-.24.16-.21.35.02.1.02.2-.07.24-.14.06-.22-.27-.32-.28-.08,0-.12.05-.15.08-.07.06-.02.14.08.26.22.25-.08.51-.21.62-.46.4-1.14-.68-1.09.05,0,.1.16.25.1.44-.08.03-.22-.05-.3-.04-.1.01-.22.12-.2.21.05.17.19.3.37.17.22-.17,1.03.08-.79.42ZM32.2,74.91c.33-1.02,1.01-1.76,1.72-2.53,2.05-2.18,5.7-2.86,7.99-.75-.13.33-.56.33-.64.6-.14.46,1.36.1.81.81-.12-.21-.18-.34-.26-.35-.34,0-.34.81-.27.9.25.31.49-.25.73,0,.1.11.07.33-.16.37-1.4.26-.26-.02-.86-.08-.15-.01-.22.11-.23.21-.03.27.54.17.37.39-.38.46-.88-1.14-2.32.05-.08-.27.03-.46-.06-.56,0,.01-.81-.48-.92-.28-.19.34.78.59.25.95-.25-.33-.67-.67-.98-.33-.14.15-.21.77-.53.64-.15-.06-.4-.34-.48-.48-.05-.1.19-.31.07-.41-.15-.12-.27-.16-.41-.05-.2.16.11.79.12.9.09.06.26.06.41.15-.27.4-.79-.33-1.01-.18-.25.16.24.44.08.69-.09.14-1.02.15-1.03.14-.22-.14-.35-.2-.53-.02-.11.11.07.41.02.56-.56-.02-1.06.55-1.06.54-.04.24.29.2.37.47-.85-.32-1.52-1.37-1.19-2.36ZM43.46,81.32c-.56-.03-1.01,0-1.32.42.15.28.62-.12.93-.07.1.02.31.26.19.32l-.96.46c.12.34.47.17.55.5-.36.06-.53-.01-.65.16-.15.21-.27.55.11.53.15,0,.34-.33.54-.3.14.02.46.08.35.36-.1.29-.56.33-.77.6.22.18.31.43.29.7.07.06.22.02.25-.03.07-.1-.11-.27-.09-.5.3,0,.38.36.73.54-.2.14-.3.2-.4.26-.18.11.08.36.01.5-.11.24-.59.54-.87.52-.15-.01-.25-.17-.33-.11-.11.1-.14.26.03.4.24.19.54-.06.69.22-.52-.05-.95.3-.87.74.02.11.4.13.29.29-.08.11-.22.18-.31.39.24.23.44.05.65.12-.29.38-.25,1.11-.74,1.18-.25.04-.76-.07-1.03-.15-.98-.29-1.75-.95-2.46-1.62-1.2-1.13-.17-2.53-.9-3.89-.39-.74-.9-1.4-.5-2.07.04-.07-.04-.29-.2-.25l-.49.76c-.49-.58.44-.83-.06-1.03-.08-.03-.2.06-.38.18-.16-.1-.04-.26-.12-.32-.17-.12-.49-.04-.54-.13-.07-.14.04-.36-.07-.47-.13-.13-.34-.32-.48-.04-.16.33.48.44.19.86-1.27-.92-1.39-2.75-.21-3.91,1.82-1.79,4.57-2.53,7.08-1.89,1.7.43,3.09,1.43,4.26,2.66.07.07-.17.31-.24.28-.38-.17-.6-.36-.8-.24-.1.06-.06.28-.07.44-.02.29-.39.15-.56.2-.44.14-.19.72-.24,1-.42.32-.86.76-.49,1.41ZM49.45,88.53c-.06.03-.27-.1-.3-.15-.04-.08-.35.08-.26.22.21.29.65.42.54.85-.28-.07-.37-.41-.59-.38-.31.05-.22.36-.23.51-.01.25.21.47.4.59-.11.36-.36.69-.69,1.02.58.28.64.66.7,1.17.03.2.31.37.14.55-.29.3-.78.02-.83.4-.02.16.12.24.33.25.11,0,.19.07.25.07.14,0,.02.35-.08.29l-2.03-1.22c-1.91-1.15-3.17-3.1-2.98-5.33.19-2.28,2.4-3.85,4.29-3.54,1.26.21,2.42-.21,3.32-1.06,1.71-1.62,3.83-.3,3.91-.15.23.44,1.51,1.59,1.36,1.5.13.08.33-.15.49-.09.11.04.1.27.13.34.25.52.41-.23,1.01-.17.23.03.13.33.27.49.65.74,1.5-.2,1.93.36.12.16-.6.77-.74.93-1.89.22-.98.03-1.69-.35-.13-.07-.32.11-.27.19l.34.46c-.41,0-.75.03-.93.43-.28-.04-.53-.75-.79-.42-.16.2.35.74-.12.67-.06,0-.08-.09-.1-.19-.05-.24-.26-.31-.44-.25-.46.14.23.57-.45.6-.31.02-.05-.59-.55-.53-.28.04-.13.53-.44.53-.5,0-.42-.28-.71-.35-.16-.04-.26.1-.43.22-.16.12-.31-.16-.38-.27-.21-.29.61-1.13,0-.95-.29.08-.15,1.07-.78,1.46-.28-.4-.61-.75-1.07-.55.03.32.34.45.28.78-.21-.04-.37-.21-.54-.16-.34.1.05.81-.53.83-.34.01-.48.27-.76.41ZM86.54,116.02c.3-.07-.07-.33-.04-.42.08-.22.09-.52.11-.68.14-.21.5.05.67.06.33.03.59-.09.87.2.1.1.24-.03.28-.11.19-.45-1.17-.41-1.49-.5.36-.53.99-.57,1.58-.4.79.22,1.5,1.77,1.36,2.5-.02.1.03.21.07.25.44.39.29-1.18.52-1.33.43.45.87.74,1.31,1,.03.17-.04.38.08.42.17.06,1.38.6.63-.1l3.03.05c.51,0,.96.14,1.37.41.04.17.01.29.12.33.11.04.38,0,.56.09-.08.23-.28.08-.34.18-.32.51.41,1.5-.45.65-.14.27-.2.45-.37.52-.42.17-.67,0-.79-.39-.33.13,0,.41-.07.49-.43-.11-1.82.36-1.66-.22-.14.2-.14.23-.27.28-.22.08-.83.08-.62-.23.05-.08.27.05.34.01.08-.05.14-.32-.02-.33-1-.03-.43.81-1.05.63-.16-.05-.29-.19-.1-.35.08-.07.11-.13.11-.2-.03-.82-.34.54-.78.63-.22.04-.68.03-.74-.28-.04-.22,0-.57-.24-.56-.34.26-.41.86-.77,1.04-.3.16-.62-.32-.67-.57-.28.08-.46.29-.83.16.04-.19.26-.26.2-.48-.62.17-1.2.43-1.9.43-1.3,0-2.37-1.4-1.74-1.56.14-.03.91,1.05,1.47.83-.02-.34-.32-.24-.58-.33.17-.26.45-.35.55-.8-.51-.07-.75.45-1.26.2,2.78-.85.82-.79.83-.73-.02-.1-.13-.25-.13-.34,0-.11.35-.05.4-.16.08-.17-.18-.23-.26-.36.3-.19.48.14.7.09ZM72.71,106.48c.26-.34,1.07,1.03,1.23.33.04-.16-.14-.21-.41-.24-.02-.2.31-.31.13-.53-.17.04-.29.1-.32.17-.05.12-.28-.06-.21-.14.45-.53,1.32-.45,1.85-.21,1.86.85.06,4.01,1.77,2.39.89,1.05,1.45,2.38,2.59,3.19l2.29,1.63c.35.25.29.58.28.82.24.27.79.45.61,1.12.6-.28.25-.66.23-.93-.05-.55.07-1.09-.38-1.49.17-.12.24-.18.33-.2.47-.08.55,1.34.95,1.19-.24.09.7-.69.57-1.29.44-.34.89.41,1.11.74.25.39.5.51.38,1.06-.41,2.01-.71.89-1.69,2.07-.02-.28.31-.61.14-.82-.21-.2-1.51-.53-1.4-.08-.02-.1,1.24.16,1.25,1.44,0,.73-.53,1.42-1.22,1.5l-.34-.71c-.73.4-.56-.28-1.39-.36.07-.1.16-.11.19-.2.02-.07-.04-.14-.18-.27.01-.04,2.25-.36,1.46-.73-.35-.16-1.07.49-1.9.5-.14,0-.19-.25-.12-.31.08-.08.25-.06.4-.15.22-.13-.05-.45.12-.65.13-.15.13-.27.03-.33-.5-.32-.28.86-1.45.51-.35-.11-.35-.58-.43-1.06-.48.14-.27.52-.31.85-.43-.21-.17-.73-.51-1.08-.16-.17-.41.08-.52.22-.24-.04.01-.27-.04-.4-.13-.3-.45.06-.66.18-.11-.07-.08-.26-.1-.34-.03-.12-.12-.14-.19-.11-.11.06-.2.24-.32.22-.16-.03-.14-.3-.25-.38-.13-.09-.28.05-.5.11.13-.71.12-.09-.61-.72-.08-.07-.19-.09-.32.01-.08.06-.06.19-.04.39-.11.08-.4.01-.5-.11.21-.08.33-.29.4-.39.08-.1.14-.43-.13-.42-.47.02-.34.85-.58.82-.36-.04-.15-.55-.46-.59-.18-.02-.18.18-.31.34-.14.17-.46-.33-.34-.44.23-.22.99-.56.67-.82-.07-.06-.28-.06-.34.05-.3.56-.8.57-1.36.65-.67.1-1.33.17-1.94-.26-.45-.32-.87-.94-.83-1.65.27-.03.46-.04.7,0-.09.22-.3.25-.32.63.48-.1.71.09,1.08.41.14-.56-.32-.82-.62-1.14-.12-.13-.18-.37-.38-.53-.15-.12.05-.67.23-.67.82.23.09.96.6,1.35.11-.41.25-.69.52-.93-.41-.36.26-.85-.4-1.27-.16-.1-.23-.24-.25-.35-.04-.21.33-.72.34-.73.08-.09.17,0,.19.08.03.12-.29.45-.31.52-.08.26.32.17.47.19.29.27.1.75.04,1.06.03.08.22.12.28.11-.02,0,.28-.81.06-.99-.23-.18-.28-.29-.2-.53.08-.25.2-.39.54-.3l.05-.53c.41-.05.22.57.53.53.38-.06-.16-.76.16-.87.11.1.08.25.09.32.01.08.06.1.15.04.24-.15-.1-.3.04-.49ZM62.6,96.79l2.9,3.99c.13.18-.05.3-.14.52.3-.04.46-.02.55.11.21.3-.07.49-.02.75.02.12.29,0,.35.03.02,0,.27.73.26.74-.04.11-.37.13-.41.26-.1.31.45.86.79.78.17-.04.17-.3.08-.39-.08-.09-.29-.02-.52-.17.21-.12.56-.09.66-.4.18-.59.03-1.14-.08-1.79.74.28,1.46.29,2.18.2.1.22.19.48.39.5.13.01.44.18.44-.07v-.37c.01-.11.15-.06.29-.05.33.03-.11.55.22.65.08.03.24.05.32-.04.08-.08,0-.25,0-.41,0-.15.19-.08.29-.05.26.07-.28.8.13.82.34.02.59-.16,1-.09-.21.41.1.52.19.8.19.54.19,1.41-.08,1.94-.33.66-1.12.96-1.74,1.21-1.63.67-1.44,1.97-2.36,3.44-.42.68-1.47.92-2.15.57-.2-.1-.16-.49-.41-.58-.36-.12-.74-.42-.76-.75.19-.05.33-.11.35-.23.03-.18.06-.54-.18-.5-.19.03-.22.36-.39.27-.24-.13-.55.02-.52-.3.31-.14.64-.21.78-.51-.94-.18-.62-.53-.81-.77-.16-.2-.58-.18-.4-.62.64.25,1.31.06,1.88-.23-.86-.35-.82-.37-1.48-.66.11-.11.14-.17.18-.22.39-.44-.62.08-.69.05-.11-.05-.06-.3-.12-.41-.21-.4-.69-.43-.99-.69-.23-.2-.31-.56-.65-.57.23-.17.41-.08.53-.21-.09-.38-.48-.29-.68-.42-.32-.2.03-.72.19-.97-.08-.27-.32-.16-.42-.05-.12.13-.16.38-.19.59-.33.15-.28-.39-.41-.57-.15-.21-.43-.25-.45-.49-.02-.32.15-.48.38-.68.06-.05-.1-.27-.19-.24-.1.03-.19.15-.36.29-.17-.22-.09-.5-.22-.74-.55.04-.89-.5-.93-.96.35.11.47.33.75.2-.41-.06-.07-1.09-.43-.73-.07.07-.01.18.03.38-.13.03-.24-.08-.33-.07-.16.02-.21.19-.37.32-.18-.2-.18-.47-.43-.69-.28.06-.18.33-.36.48-.13-.22-.07-.34-.11-.47-.06-.19-.25-.12-.48-.17.09-.14.2-.11.29-.14.12-.05.18-.15.08-.26-.06-.07-.35-.09-.34-.23.02-.2.23-.06.29-.11.12-.09.08-.25-.04-.38-.04-.24.12-.31.26-.1.06.09.18.12.24.11.07,0,.15-.09.15-.18,0-.11-.5-.46-.57-.5-.18-.1-.24.27-.37.29-1.85.4-6.04,1.15-6.88-1.12.18-.11.75-.44.44-.74-.25-.23-.61-.63-.31-.9.09-.08.57.14.45-.22-.05-.14-.35-.08-.44-.21-.12-.17.17-.32.2-.5.03-.15-.23-.28-.28-.39-.05-.14.2-.27.17-.45-.04-.22-.41-.25-.28-.5.08-.15.1-.45.37-.39-.09.19-.23.28-.21.39.03.13.3.27.37.14.12-.23.19-.49.4-.75l-.81-.17c-.1-.02-.24-.1-.25-.18-.01-.08.04-.3.12-.31.29-.03.46.34.67.3.08-.01.19-.1.19-.27,0-.09-.1-.16-.38-.2.1-.33.49-.34.67-.72-.31-.12-.62-.14-1.01-.17-.02.37.08.77-.46.83.22-.49.45-1.16.94-1.36.13.01.23.35.36.33.62-.13.02-.81.38-.98.66-.3-.03.45.08,1.25.47-.22.38-.66.67-.9.13.19.19.31.3.35.11.04.32.03.36-.11.1-.31-.22-.5-.24-.79l.4.24c.1.06.25-.22.37-.26.21.14-.05.45.03.67.05.13.21.11.26.07.06-.06.07-.22.15-.32.19-.22.39.47.47.47.4.02-.08-.66.06-.82.08-.1.35-.33.45-.24.24.38.42.43.72.46.48.04.53-.24.77-.66.21.15.14.29.1.33-.07.09.11.36.2.27.4-.39.59-.96,1.12-1.13.05.18.08.3.17.35.06.04.15,0,.2-.03.15-.11.03-.25-.17-.42.45-.59,2.64.22,2.89.62,1.05,1.65.71,3.73-.46,5.22-.6.77-.88,1.64-1.14,2.52-.21-.04-.4-.12-.49-.08-.16.07-.16.35.07.4.11.02.24-.11.33-.15.12-.05.15.07.25.19-.22.03-.38.06-.46.25-.04.11-.21.27,0,.51.18-.27.44-.41.69-.52.05-.05-.02-.22-.01-.29,0-.15.16-.22.35-.18.08.01.16.04.2.02.06-.03.13-.17.04-.24-.08-.06-.25-.09-.26-.15-.01-.08.12-.34.25-.31.63.17.34,1.53,1.06,1.48-.19-.78-.49-1.38-.78-2.02.17-.24.28-.43.46-.58.18,1.13.67,2.04,1.32,2.95ZM100.56,74.41c-.68,1.94.07,3.86-1.52,5.36-.25.24-1.78,1.13-2.03.41.08-.08.26-.17.32-.19.11-.04.07-.26-.09-.27-.3-.01-.36.38-.67.42-.03-.22.12-.35.05-.59-.75.35-.77-.32-1.02,0-.06.08-.04.24.11.31.08.04.15.1.2.14.09.08-.02.17-.08.21-.1.07-.23.11-.29-.08-.14-.45-.34.17-1.4-.32.11-.18.26-.18.33-.23.04-.03-.01-.13-.09-.17-.46.13-1.04.36-1.44-.14.98-.19,1.93-.21,1.87-1.3,0-.13-.03-.23-.12-.29-.11-.07-.26-.04-.34.04-.11.11.06.34,0,.44-.11.2-.43.27-.64.34l.21-.41c.1-.19-.14-.31-.27-.32-.22-.03-.22.35-.35.39-.28.09-.58.17-.68.41l-1.14-.76-.63.78c-.11-.19-.12-.3-.25-.39-.17.22-.38.29-.59.31-.3.03-.28-.33-.49-.46-.21-.14-.28.24-.36.35-.15.2-.33-.23-.46-.24-.37-.04-.76.23-1.16.2-.2-.05-.32-.33-.54-.32-.27.02-.5-.02-.69.29-.24-.21-.2-.41-.3-.62-.04-.1-.2-.08-.29-.02-.07.05-.03.18-.02.41-.41-.07-.71.04-1.1.32-.09-.27-.04-.43-.13-.5-.18-.12-.36.16-.49.17-.17.01-.3-.27-.46-.22-.17.05-.18.36-.3.41-.19-.06-.25-.43-.45-.35-.29.12-.56.35-.85.17-.01-.13-.03-.2-.07-.25-.06-.06-.2-.09-.28-.05-.15.08.04.39-.08.57-.15.22-.22-.06-.35-.13-.39-.23-.82-.04-1.24,0-.45.04-.24-.76-.48-.75-.5.03.17.59-.13,1.29-.36-.61-1.29-.1-1.17-.21-.11.11-.1.23-.22.45-.12-.12-.12-.29-.2-.47-.47-.08-.82.22-1.22.39.09-.04-1.08.08-1.13.21-.04.09.07.34,0,.39-.18.08-.32-.2-.43-.18-.21.04-.12.3-.28.5-.2-.28-.17-.97-.5-.94l-.32.03c-.07,0-.13-.12-.18-.25-.04-.12-.18-.11-.24-.06-.31.28.22.45.12.7-.07.19-.05.47-.35.51-.11-.29-.78-.96-.9-.92-.05.02-.07.1-.11.19-.05.09.23.12.26.23.05.19-.54.46-.63.25-.17-.41-1.05-.32-1.01-.03l.17,1.23c.09.68-.46,1.43-.81,2.1-1.55,3.03-5.24,4.07-8.05,2.15.25-.16.5-.58.34-.85l-.49.16c-.4.13-.17-.9-.81-.63-.05-.24.06-.48.05-.77,0-.21-.29-.21-.44-.12-.15.1-.08.81-.11.85-.08.09-.35.11-.54.16.06-.27.31-.44.42-.77.04-.13-.14-.22-.23-.22-.18,0-.29.39-.49.46.14-.05-1.25-.21-1.09-.87.02-.09.33-.06.36-.14.04-.09.02-.24-.12-.37-.22-.19-.3.47-1.09.36-.25-.03-.27-.26-.28-.62.25.2.55.4.89.21-.11-.31-.44-.4-.56-.68-.07-.16.48-.05.54-.3.18-.72-1.08.22-.91-.27.14-.4.55-.43.64-.6.14-.27-.61-.81-.13-.8.21,0,.37.28.54.17.28-.18-.19-.45.06-.74.29-.34.47.36.78-.05.17-.22-.73-.59.32-2.11-.37-.15-.65-.33-.69-.77.12-.15.42-.1.5-.28l-.05-.45c-.02-.13.27-.04.42-.13.17-.09.16.22.21.4.06.21.25.27.41.21.11-.04.3-.21.17-.39-.25-.33-.63-.64-1.06-.68-.15-.01-.15.34-.18.48-.5-.22-.4-.09-.79.11.03-1.31,2.58-1.63,3.62-1.58,1.4.07,2.75.34,4.04.81,1.28.47,2.23,1.31,3.02,2.36.21.28.49.45.6.79.05.14.46.28.58.22.63-.33-.32-.97.06-1.32.18-.17.64-.39.46-.71-.13-.23-.47.19-.61.21-.61-.78-.99.15-1.5-.88,1.58.16,3.04.2,4.64-.01,4.49-.61,8.86-1.31,13.26-2.31,1.09-.25,2.04-.57,3.14-.64-.01.19-.08.34-.19.37-.16.03-.38-.06-.56,0-.28.1.16,1,.39.85.21-.13-.1-.51.06-.57.07-.03.24-.16.27-.09.12.24.21.67.47.56.17-.07.21-.32.31-.38.18-.1.4.04.64.04.22,0,.28-.68.08-.73-.4-.11-.81.23-1.17-.06.47-.16,1.16-.28,1.55.03.13.1.12.37.25.4.28.08.28-.14.39-.42.15.12.08.41.29.43.16.02.21-.38.53-.25-.12.47-.59.44-.88.78.41.43.61-.07,1.05-.25-.05.31-.44.6-.03.71.11.03.25-.28.37-.28.72,0,.55.77,1.41.51.08-.02.18.07.24.05.1-.04.11-.15.13-.22.05-.15-.29-.12-.31-.23-.11-.43-.4-.91-.92-.92l-.07.7c-.4-.21-.08-.63-.19-.87-.3-.66-.99-.9-1.61-1.14.44-.83,2.13.54,2.59.99.16-.56-.44-.61-.71-1.08.45-.16.59.39.86.66.23-.08.24-.22.2-.29-.18-.33-.51-.42-.44-.52.14-.19.65.04.61-.26,0-.06-.18-.13-.22-.25.21-.16.51-.19.84-.23-.24.3-.33.5-.1.72.41.39,1.17-.03,1.25-.09.09-.07.03-.23.01-.43.25.07.42-.06.67-.05-.14.26-.39.47-.13.75.25-.08.25-.29.41-.46,1.8.29,2.8,2.2,2.19,3.96ZM99.02,91.98c-.21.83-2.36.6-2.95.43-.02-.17-.04-.3-.09-.35-.08-.06-.39,0-.34.18.11.38.46.59.73.9l-.64.25c-.12.05-.29-.07-.38.03-.13.14.02.24.13.44-.17,0-.31-.11-.46-.01-.12.08,0,.25.03.41.03.22-.24.02-.37.05-.12.05-.07.29-.13.37-.01.02-.99.46-1.14.08-.28.73-2.55.66-2.69,0,.17-.24.22-.55.17-.88-.1-.71,1.61-.96,2.17-1.03.27-.03.46.42.73.29.1-.09.05-.3.09-.37.19-.3.51.12.75.09.53-.06-.64-.83-.34-.89.19.11.27.19.37.19.11,0,.24-.13.15-.3-.06-.12-.15-.2-.17-.29-.03-.13.06-.25.19-.39.12-.13.2-.03.26.03.15.13-.14.22-.13.38.02.2.52-.04.52-.21,0-.77-.38-2.61.81-2.8.53-.08,1.14-.07,1.55.27-.46.22-.86-.29-1.15,0-.23.36.69.12,1,.63.13.21-.19.4-.26.66.14.09.4.14.46.3.1.29-.08.35-.27.65.41.08.62-.05.92.1-.43.82-1.27.1-1.01.67.1.21.98-.02,1.31-.45.27.04.22.39.18.54ZM103.22,85.93c-1.01-.95-.01.05-1.59.54-.03.17.09.28.23.17.09-.07.18-.14.21-.1.07.07.13.15.16.2.19.35-1.86.73-1.08.45l-1.04.37c2.06,1.02,2.42-.4,2.51.52.03.32-1,.1-1.25.44l1.39.25c-.14.18-.28.11-.35.08-.13-.06-.26.09-.25.2,0,.09.2.17.25.28-1.13,1.82-.75.71-1.83,1.54-.09-.17-.02-.25,0-.29.04-.13-.09-.17-.16-.18-.15-.02-.12.26-.21.32-.59.37-1.32-.2-1.43-.86l-.18-1.04c-.24-1.34-1.89-.2-1.78-1.83.93,0,.23-.72,1.44-.61.3.03.38-.41.71-.52.26.63.69,1.01,1.14,1.43l.25-.67c.05-.14.44.01.49-.18.06-.22-.3-.34-.28-.47.11-.75.46-.31.63-1.17.04-.19,0-.38-.35-.51,1.02-1.6.86-.89,1.31-1,.16-.04.17-.23.11-.33-.1-.18-.28.02-.61-.03,1.23-1.18.21-1.63.88-2.03.09-.05.36.08.39.01l.2-.45c.21-.48,1.3-.49,1.87-.92.55-.42,1.31-.26,1.93-.35.21-.03.42-.53.63-.21l-4.34,6.94ZM115.38,97.52c-.79-.08-1.57-.07-2.32-.22-.09-.02-.11-.32-.23-.31-.32.04-.71,1-.59.33.03-.16-.02-.27-.09-.31-.1-.05-.18-.05-.24-.01-.18.12-.08.43-.21.66,0,0,0,.03-.03.07.02-.02.02-.05.03-.07-.07-.08-1.86,1.18-1.61,1.19l-.49-.02c-.18,0-.19.49-.48.53-.66.08-1.31.41-1.96.33-.29-.18-.48-.29-.86-.05-.19.08-.48-.14-.76-.22.34-.48.45-1.1.86-1.45.35-.16.71-.3.8-.76.23-.03.62.1.89-.12.21.17.21.43.48.36.07-.2-.21-.28-.09-.46.21.07.25.17.34.26.06.05.22.13.24-.09,0-.11-.16-.19-.21-.24-.09-.1.06-.18.15-.21.26-.09.23.23.75.3,0,0,.81-.44.85-.78.02-.15-.04-.28-.16-.54.35,0,.77.83,1.15.47-.11-.37.03-.65.08-.99.1-.74.05-1.42.32-2.13.19-.51.79-.98,1.31-.6.19.5-.65.88-.6,1.27.03.19.46.23.49.59.04.43-1.19.15-.68.65.29-.14.65-.25.87.06.18.27.45.22.7.31.14.06.23.3.42.25.1-.03.22-.32.37-.29.24.05.34.36.52.36.28.01.44-.05.64-.29.08.18.22.29.23.47-.23.21-.57.31-.56.72.53-.13.77-.65,1.15-.95.18-.12.58,0,.79.05-.45.84-1.18,1.99-2.25,1.88ZM119.49,89.05c-.11.05-.26.01-.31.02-.08.02-.04.17-.03.26.02.11.16.04.33.04-.14.47-.3.85-.14,1.31l-.24-.32c-.04-.05-1.16.41-.57.47.12.01.25-.11.36-.12.18-.02.18.23.34.34.27.19.57-.21.8-.52.31.75.36,1.62.07,2.47-.37-.2-.04-.46-.25-.73-.23.28-.35.51-.49.8.16.2.35.27.43.42-.21.32-.45.51-.82.31-.02.22.11.44-.08.45-.07,0-.05-.19-.09-.23-.38-.35-.17.59-.47.52-.08-.02-.15-.18-.27-.26-.21.13-.11.34-.23.38-.18.06-.53.14-.67.1-1.82-.45-2.81.06-3.24-.51-.15-.2,0-.43.13-.65.31-.49.15-1.38,1.04-2.38.35.19.26.5.58.56.01-.48.14-.9.43-1.25.55.63,1.19,1,1.96,1.05-.09-.41-.54-.39-.58-.73-.02-.14.13-.35.07-.48-.08-.18-.24-.03-.52.04.15-.5-.42-.99-.4-1.46.02-.55.28-1.21-.55-1.55l.38-1.27c.03-.11.24-.17.21-.28-.07-.28-.62-.31-.6-.56.03-.3.83-.9.42-1.13-.14.03-.29.25-.4.21-.22-.07-.48-.79-.46-1.04.01-.16.26-.24.43-.37-.11-.2-.39-.12-.64-.26-.21-.31.06-1.21.04-1.24-.25-.43-.42.36-.64-.19-.05-.14.16-.15.24-.27.17-.28.14-.86-.17-1.02-.13-.07-.25.24-.31.21-.1-.03-.15-.19-.16-.29,0-.14.17-.25.39-.08.15-.2.21-.43.35-.68-.29-.16-.5.02-.82-.07.14-.34-.19-1.03.12-.84.17.1.1.49.35.6.29.13.28-.14.38-.42.13-.41.4.57.59.53.27-.05.04-.47-.05-.92-.95-.02-1.48-.77-1.37-1.63l4.58-.17c.32,1.22-1.24,1.9-.02,2.18.03.9-.2,1.91-.35,2.84-.51,3.11.89,4.98.94,7.81ZM121.07,74.46c.42-.06,1.23-.27.7.25-.23.01-.47-.11-.7-.25ZM124.59,76.27c.1-.41-.14-.55-.34-.66-.37-.21-.49-.01-.74.32-.12-.17-.29-.52-.43-.42-.4.29-.78.51-1.19.15.67-.03,1.61-1.23,1.53-1.43-.1-.26-.34.02-.3-.63-.21-.09-.42.15-.56.25-.22.15.14.39.03.69-.49-.21-.91-.67-1.43-.34-.13.08-.2.13-.24.18-.27-.17-.49-.33-.59-.25-.26.2.13.4-.1.73-.12.17-.33-.19-.62-.17-.06,0-.13.06-.14.16,0,.11.14.18.19.32-.28-.12-.79-.22-.71-.56.09-.12.31-.01.38,0,.08.02.26-.24.08-.31-.24-.09-.55.05-.83.05-.06.62-.68.73-1.07.61-.02-.07,0-.21,0-.25-.03-.08-.16-.12-.23-.01-.14.21.23.58-.06.76-.07.05-.17-.21-.28-.2l-.4.02c-.3.01-.16-.6-.57-.46-.05.02-.11.07-.1.19,0,.08.13.13.25.24.15.14-.04.24-.17.26-.18.03-.14-.18-.28-.31-.35-.34-1.06-.04-1.21.46-.26-.14-.41-.28-.63-.3-.29-.03-.39.2-.5.47-.32-.05-.17-.81-.63-.66-.44.14.16.7-.26.91-.34.17-.49-.22-1.15-.35-.19-.04-.18.37-.36.42-.13.04-.38-.31-.53-.13-.19.25.02.58-.13.88-.26-.12-.38-.47-.52-.39l-.43.26c-.05.03-.02-.34-.12-.39-.08-.04-.31.03-.26.17.04.13.23.39.02.42-.1.01-.24-.18-.35-.21-.23-.06-.21.24-.38.35-.18.12-.52,0-.6.31-.13-.15-.2-.36-.3-.33l-.66.4-.63-1.35c-.62,1.57-1.54,3.07-3.25,3.29-.43.06-.9.31-1.34-.03.32-.27,2.05-.69,1.62-1.07-.16-.15-.64.26-.79.25-.1,0-.1-.27-.21-.31-.3-.12-.23.28-.31.6-.2-.19-.41-.43-.44-.68-.02-.19.14-.4.26-.43.19-.04.4.1.67.1l-.31-.97c-.06-.19.37-.4.29-.71-.1-.37,0-.67.06-1.05-.28-.04-.52.16-.54.27l-.12.62c-.42-.07-.14-.56,0-.82.11-.22.63-.44.86-.32.1.05.1.23.15.24.09.03.23,0,.28-.05.07-.1-.21-.8-.21-.81-.37-.22-.48.47-.71.02-.17-.34.8-.31.61-.77-.09-.2-.35,0-.57.11-.15-.45-.24-.89-.1-1.41.25.02.21.34.49.25-.25-.34-.39-.65-.56-1-.3-.19-.73.09-1.01-.32,1.5-.77,3.24.11,4,1.55.24.46.98,1.81,1.54,1.39.31-.23-.07-.47.16-.81.06-.08.32-.24.34-.11l.04.36c.01.08.16.16.26.06.07-.07.11-.22.1-.44-.01-.36-.29.18-.72-.68-.06-.13-.38-.12-.37.06.02.38.07.77-.37.98-.02-.3.25-.42.19-.61-.09-.31-.32-.43-.46-.81l4.41.15c2.44.08,4.76,0,7.12-.64.84-.23,1.71-.39,2.56-.3.37.04.18.6.24.73.28.09.65.15.74.55.34-.14.23-.3.18-.44-.1-.26-.28-.3-.6-.35-.14-.03.1-.29.2-.36.16-.1.4.13.49.36.29.09.33-.22.67-.3.23.33.74.91,1.21.79.87-.25-1.7-1.92-2.06-1.86.34-.42.8-.36,1.36-.08.16-.49-.26-.49-.55-.6.28-.19.57-.05.85-.04.11,0,.11.24.09.32-.02.07-.3.15-.21.32.24.24.52-.29.49-.53-.03-.31-.28-.5-.68-.46-.05-.18.3-.51.45-.4.09.06.12.21.13.26.01.09.22.14.22-.05,0-.18-.03-.31-.01-.42.02-.18.32-.08.47-.13.71-.2,1.59-.35,2.24.15.88.67,1.01,1.94.6,2.93-.26.63-.49,1.22-.36,1.92.13.71-.15,2.68-1.2,2.68ZM126.09,77.58c-.05-.09-.13-.2-.08-.32-.03.06.83-.19.82-.2.45.15-.04,1.04.45.73.09-.06.11-.25.17-.44,1.31.37,2.61,0,3.8-.89-.03.66-.52,1.29-1.18,1.3-.12,0-.25-.27-.4-.1-.07.08,0,.22-.04.38-.05.21-.3-.05-.4-.08-.34-.1-.14.34-.21.46-.47.87-1.61-.43-1.61.11,0,.15.14.14.43.34-.21.25-.55.04-.76-.03-.62-.21-.23-1.03-.5-1.18-.14-.08-.4.09-.48-.05ZM139.25,94.63c-.52,1.72-2.95,1.29-1.85,2.2-.53,1.01-3.87,3.43-4.85,3.96-.17.09-.41-.04-.65-.14.12-.2.54-.17.57-.43.01-.27-.38-.11-.54-.1-.22.01-.61.22-.44.62.07.08.22,0,.29,0,.14-.01.19.21.17.31-.04.18-.18.28-.36.13-.14-.11-.47-.4-.41-.56.25-.7.63-1.38,1.18-1.84.18-.11.59.09.77-.13.06-.07,0-.21-.09-.27-.07-.05-.17,0-.47.17-.07-.15.03-.41.08-.56.07-.21.48.01.57-.1.29-.37-.57-.43.66-1.32-.21-.37-.61-.47-.85-.77-.45-.58-.5-1.29.19-1.78.24.27-.12.71.19,1.13.04.06.15.04.22,0,.06-.04.06-.14.04-.34,1.2.03,1.35-.84,2.62.06.11-.49.32-.74.78-.75.17-.06.14-.35.32-.53.63.3.93,1.59,1.21,1.05.18-.36-.68-.71-.17-1.22.31.26.96.66.8,1.2ZM134.49,81.31c-.03.09-.23.13-.27.19-.08.11.12.26.1.37-.08.3-.45.5-.48.84,0,.1.19.15.25.12.07-.04.11-.22.24-.23.08,0,.15.21.25.27.1.06.27-.04.42-.08.15.21.22.53.21.83,0,.07-.21.08-.27.05-.18-.1-.04-.42-.27-.43-.05,0-.22.04-.18.17.12.38.59.51.89.72.35.25.13.68.15.96.15.13.4.24.51.47.08.18.06.36-.15.66.15.09.38-.1.47.04.71,1.09,1.97,2.85,1.69,4.04-.26-.13-.64-.39-.72-.14-.12.4.41.42.67.49.11.03.18.15.24.16.11.02.23-.03.33-.16.15.3.34.64.16.95-.34-.13-.49.13-.1.31l-1.24,1.16c-.15.06-.37-.17-.56-.27-.08.47-.48.43-.84.62-.77.39-1.86.37-2.39-.47-.23-.36.01-1.16.24-1.42.24,0,.71.24.8-.18.06-.26-.27-.49-.55-.6l.17-1.27c-.11-.06-.31-.03-.4-.05-.07-.01-.09-.24.03-.26.19-.04.31-.08.39-.21.05-.09.03-.27-.1-.36-.09-.07-.24-.02-.47-.12l.4-.61c-.06-.2-.36-.18-.43-.28-.11-.13,0-.4.13-.57l-.54-.5c-.1-.09.14-.32.15-.42.02-.17-.18-.25-.25-.39-.06-.13.06-.3,0-.37-.1-.12-.36-.07-.44-.19-.17-.27-.27-.74-.63-.83-.24-.06-.28.45-.44.45-.27,0-.54-.25-.67-.39-.17-.19.12-.45.13-.67-.04-.08-.25-.14-.33-.19-.09-.06.01-.29-.07-.36-.23-.2-.38-.35-.32-.73-1.74.18-3.33-1.12-3.61-2.88.73.11,1.06.65,1.43,1.24.33-.36.21-.73.59-.79l-.09.76c.18.27.5-.17.59-.33.15-.27-.31-.63-.27-.84.03-.19.51-.31.35-.73.35.27.04.57.04.94,0,.4,1.02-.23.89-.07.15-.18-.14-.35-.16-.48.08-.22.54-.13.65.15.06.14.2.19.32.15.37-.13-.2-.68.16-.95.15.19.2.32.32.37.23.09.07-.15.72-.16.78,0-.46-.22-.57-.42-.21-.4.5-.57.52-.71.03-.17-.05-.29-.26-.31-.1,0-.22-.06-.26-.12-.17-.25.35-.05.48-.22.15-.19.04-.36-.15-.48-.06-.04-.15-.1-.15-.14,0-.04.09-.16.15-.18,2.17.67,2.99,3.08,2.39,5.09ZM147.23,75.73c-.11.45-.61.46-.95.38-.08-.02-.16.12-.21.13-.05.01-.17-.13-.24-.12-1.47.29-1.31-1.51-2.15-1.09-.27.14-.24.31-.18.65-.26-.35-.62-.31-1.06-.56.82-.32,1.66-.53,2.26-1.34-.33-.5-1.42,0-1.79-.06-.12-.02-.07-.25-.32-.35l-.21.98c-.37-.15-.26-.44-.3-.72-.39.16-.24.62-.62.91-.21-.36.08-.68-.2-1l-.21,1.11c-.18-.08-.17-.28-.29-.35-.14-.08-.33.02-.56.07l-.3-.65c-.11.67-1.12.99-1.11,1-.17-.1-.14-.4-.28-.5-.21-.14-.15.26-.28.41-.07.08-.22-.06-.29-.09-.13-.06-.31.17-.43.2-.45-.2-1.29-.39-1.73-.2-.1-.04-.2-.3-.3-.29-.14,0-.23.22-.38.24-.26.03-.21-.27-.11-.38.12-.14.32-.18.52-.29-.09-.36-.36-.13-.5-.09-.29.07-.28.46-.45.63-.22.22-.7-.09-.79-.35l-.3.28c-.1.1-.38.08-.42-.09-.05-.21.26-.29.2-.52-.57-.31-.79,1.8-.99.3-.41-.06-.36.59-.61.8l-1.37,1.16c-1.09.93-2.76.98-3.69-.04.06-.29.31-.58.51-.71.17-.1.34.02.4.11.06.08.07.3-.15.24-.13-.03-.23-.09-.29-.07-.1.04-.09.13-.09.22-.04.45.89-.11,1.65.47.49-.75-2.12-.91-.48-.91.09,0,.15-.2.07-.26-.23-.19-.71.09-.8-.15-.03-.08.12-.21.1-.38-.02-.13-.19-.09-.24-.05-.05.04-.09.3-.18.3-.49-.03-.04-1.11-.06-1.09.07-.06.19.14.42.02-.29-.33-.51-.6-.52-1.04.3.13.39.39.61.24.49-.33-.11-.47.31-1.21-.27-.04-.43.06-.69.08-.05.21.18.37-.04.57-.49-.07.28-1.37.15-1.32.15-.06.29-.03.49-.18-.27-.23-.57-.63-.27-.94.07-.08.35.01.46,0,.15-.02.34-.16.19-.34-.34.02-.7.32-.91.01-.17-.24-.48-.62-.16-.88.84-.69,2.05-.47,2.81.25.47.45.88,1.04,1.39,1.46.32-.21.6-.18.99-.05.9.3,1.96.23,2.83.38.04.08-.02.22,0,.28.02.13.54.09.59.02.11-.16-.09-.23-.23-.39l4.08-.09c1.17-.03,2.35,0,3.38.51-.07.34-.21.68.12.84l.4-.73.2.29c.08.12.26-.03.48-.05.12.2-.17.3-.18.51.21.21.35.38.53.64.18-.24.07-.45.18-.73.17.19.14.46.39.59.26-1.24-1.35-1.75-.9-1.95.22-.1.44.12.64.04.1-.04.07-.23.33-.26-.03.23-.12.46.02.65.15.2.33.51.64.41-.09-.47-.41-.62-.64-1.08.74-.4,1.81-.1,2.14.77.35.92-.86,2.02.08,3.57.06.32-.03.85-.11,1.19ZM159.52,75.52c-.24-.13-.36.37-.78.2-.15-.06-.12-.27.02-.46l.13-.17c.05-.07.02-.16-.04-.17-.43-.11-.43,1.04-.84.83-.28-.14-.4-.4-.67-.45-.38-.08-.56.28-.78.43-.39-.1-.74-.26-1.15-.27l-2.01-.08c-.16,0-.34-.34-.57-.3-.36.06-.4.23-.42.62-.45.06.01-.56-.31-.64-.12-.03-.48.5-.46.39-.02.13.16.22.29.37-.33.23-.68.43-1.09.54-.1-.18-.05-.33.03-.33.1,0,.2.09.35-.04-.14-.12-.32-.1-.55-.16-.29.49-.72.75-1.21,1.02-.49.27-.97.14-1.23-.39-.05-.11-.13-.22-.12-.29.02-.1.14-.26.27-.18.06.09,0,.2.03.25.05.08.37.01.34-.1-.16-.61.04-1.07.33-1.68-.4-.05-.27.33-.57.5-.21-.58.46-1.06.31-2.01-.05-.31-.78-.23-.84-.52-.02-.1-.03-.24.1-.3.21.19.39.32.65.3-.15-.28-.23-.55-.07-.91-.19-.11-.41.06-.52-.19,1.05-.74,2.37-.12,2.81,1.02.06.17.21.32.33.34.23.04.33-.17.41-.51.81.47,1.77.76,2.65,1.09.09.03.1.36.18.41.12.09.3-.31.39-.25.23.13.49.15.74.18,1.09.14,2.13.39,3.19.64.24.06.42.27.79.08-.12.56-.02.91.24,1.39-.24.1-.24-.14-.35-.19Z"/>
  <path class="cls-1" d="M71.14,76.3c-.1,0-.29.14-.2.29.53.83-.21,1.24.33,1.23.08,0,.22-.07.18-.21-.19-.56.22-1.27-.3-1.31Z"/>
  <path class="cls-1" d="M70.83,78.35c0-.11.06-.2.09-.34.03-.13-.12-.15-.22-.11.02.06-.42.75-.41.63-.01.09,0,.25.14.3.21.08.67.01.72-.23.02-.11-.31-.15-.32-.25Z"/>
  <path class="cls-1" d="M59.37,80.91c-.17.24-.06.51-.08.87-.01.22.27.21.38.13.15-.1-.15-1.24-.3-1Z"/>
  <path class="cls-1" d="M95.14,3.97C49.31,3.97,12.16,41.12,12.16,86.95s37.15,82.97,82.97,82.97,82.97-37.15,82.97-82.97S140.96,3.97,95.14,3.97ZM160.64,79.39c-2.57.36-4.45.1-5.82-.09-.47-.06-1.11-.15-1.34-.13-.81.65-1.59.89-2.11,1.06-.1.03-.2.06-.3.1-.47.2-1.91.82-3.62.25-.28-.09-.53-.22-.76-.35-2.28.33-4.79-.44-6.57-1.8-.61.04-1.21.06-1.83.07.12.64.18,1.35.18,2.14,0,.13,0,.26,0,.39,0,.16.15.65.25.97.11.34.21.68.29,1,.19.79.58,1.58,1.2,2.39.76,1.01,1.11,2.02,1.38,2.82.05.14.1.29.15.43.04.12.09.24.14.36.26.66.61,1.56.61,2.68,0,.24-.02.48-.05.72.32.57.6,1.31.6,2.2,0,.99-.35,1.93-1.01,2.72-.17.21-.34.42-.51.63-1,1.22-2.12,2.61-3.64,3.71l-4.26,3.1c-1.25.91-2.78.85-3.79.48-1.68-.6-2.76-2.23-2.76-4.15,0-1.2.44-2.41,1.23-3.41.25-.32.56-.83.56-1.43,0-.09,0-.19-.02-.28-.04-.24-.06-.48-.06-.72,0-1.39.62-2.36.97-2.91.02-.45.05-1.17.34-1.95-.1-.5-.18-1.07-.19-1.67,0-.46-.24-.86-.62-1.08-.97-.57-1.64-1.3-2.13-1.84-.2-.22-.4-.44-.54-.55-.96-.76-2.86-2.28-3.35-5.05-.06-.09-.13-.19-.2-.3-.21-.03-.43-.07-.64-.12l-.09.85c-.05.49-.08.98-.08,1.44,0,1.18.18,2.27.53,3.25.36.99.46,1.91.55,2.64.04.38.08.7.14.97.05.21.11.41.17.61.2.67.45,1.5.45,2.52,0,.6-.09,1.19-.26,1.75-.5,1.6-1.51,2.88-3.03,3.81-.02.03-.03.06-.05.09-.56.97-1.61,2.77-3.77,3.43-1.01.31-1.93.22-2.61.16-.85-.08-.9-.04-1.08.09-2.92,2.19-6.87,2.87-9.38,1.62-1.5-.75-2.4-2.15-2.4-3.75,0-.32.04-.64.11-.95.6-2.67,2.79-4.71,5.47-5.06.24-.03.98-.13,1.39-1.46.39-1.27,1.28-2.31,2.46-2.85.4-.18.82-.31,1.25-.37.08-.07.16-.14.24-.21-.04-.56-.06-1.1-.07-1.63,0-.23-.01-.47-.02-.7-.03-.67-.34-1.56-.68-2.51-.31-.85-.63-1.78-.84-2.78-.03.01-.06.03-.08.04l-3.6,5.89c-.09.15-.18.31-.27.46-.14.24-.29.51-.47.79l.07.4c.05.3.08.6.08.9,0,1.75-.88,3.34-2.4,4.36-.69.46-1.39.74-2.08.91-.25.42-.57.8-.94,1.12-.89.78-2.04,1.16-3.19,1.08-.43.47-1.07,1.17-2.13,1.67-2.12,1-5.01.86-6.89-.32-1.38-.87-2.17-2.25-2.17-3.79,0,0,0-.12,0-.19.1-2.45,2.08-4.48,4.69-4.83.06,0,.12-.03.16-.04.17-1.44.93-2.36,1.49-2.91.06-.61.25-1.47.84-2.26-1.14-.33-2.32-.82-3.37-1.7-1.27,0-2.51-.03-3.73-.07-3.59-.11-6.97-.22-10.16.92-2.71.97-3.01,1.49-3.35,2.08-.41.71-1.03,1.78-2.55,2.81-1.55,1.06-3.29,1.65-5.09,1.74,0,.94-.17,1.76-.3,2.42-.08.43-.17.83-.17,1.11,0,.13,0,.27.22.58l.42.58c.74,1.04,1.46,2.03,2.22,2.97l2.35.03c2.06.03,3.92,1.04,4.98,2.71.38.6.66,1.23.83,1.9,1.47.57,2.69,1.79,3.43,3.56.34.65,1.48,2.11,2.3,2.93.87-.37,2.07-.75,3.5-.47,1.38.27,2.51,1.05,3.24,2.16,1.87.21,3.08,1.38,3.78,2.06.75.73.92.87,1.65.83,4.17-.24,5.98,1.34,6.76,2.71.38.66.57,1.4.57,2.15,0,1.82-1.13,3.51-2.87,4.31-1.29.59-2.47.64-3.42.68-.76.03-1.35.06-2.12.32-2.23.77-4.08.26-5.43-.11-.27-.07-.54-.15-.81-.21-.19-.04-.38-.07-.57-.09-.69-.1-1.8-.26-2.86-.89-1.03.15-2.11-.02-3.17-.52-1.37-.66-2.24-1.71-2.83-2.7-.7-.3-1.24-.64-1.68-.92-.6-.38-.94-.59-1.6-.72-.52-.1-1.02-.24-1.45-.37-.56-.16-1.08-.3-1.45-.32-1.99-.08-3.62-.87-4.68-2.18-1.8-.05-3.52-.92-4.81-2.52-1.18-1.47-1.49-3.05-1.66-4.42-.6-.63-1.29-1.38-1.85-2.24-2.2-3.44-3.38-3.75-3.39-3.76-.18-.02-.41-.03-.65-.04-1.93-.12-5.52-.33-7.24-3.64-.28-.55-.63-.77-1.63-1.34-1.02-.57-2.41-1.35-3.59-2.93-2.27-.1-4.58-1.23-6.4-3.23-1.42-1.55-1.58-3.21-1.58-4.32,0-.1,0-.2,0-.3-3.01-2.07-3.78-4.38-3.86-6.07-.51-.6-.81-1.24-1-1.65-.06-.13-.14-.31-.18-.37l-1.7-2.17c-.62-.79-.95-1.73-.95-2.71,0-1.38.67-2.71,1.84-3.66,1.59-1.29,5-4.06,9.21-3.71,2.6-2.62,6.25-3.8,9.96-3.14.38-.21.7-.31.91-.39l.07-.03c1.76-.83,3.91-1.84,6.36-2.11,3.88-3.01,8.55-4.79,13.88-5.29,3.07-.29,5.47-.79,7.75-1.62.7-.26,1.4-.5,2.09-.75,1.9-.67,3.69-1.3,5.43-2.11.78-.36,1.56-.6,2.25-.81.61-.18,1.23-.37,1.57-.58l.42-.26c1.84-1.13,4.13-2.53,7.36-2.11,2.18.28,3.99,1.29,5.23,2.92.09.11.17.22.26.34.18.23.38.48.57.75,3.07-.08,5.6,1.1,7.12,3.34,1.31.22,2.75.85,4.17,2.8,1.8,1.04,2.8,2.25,3.62,3.25.8.97,1.24,1.51,2.38,1.92l2.99,1.07c1.18.42,2.07,1.06,2.78,1.57.26.19.5.35.71.49.03,0,.06,0,.09,0,.31.03.77.07,1.28.21,3.08-1.04,4.88.1,6.36,1.54.53.52.62.57.92.61,1.22.17,2.54.09,3.94,0,1.55-.09,3.27-.2,5.13.03.1-.04.2-.08.29-.12.37-.16.8-.34,1.27-.48,1.87-.55,3.67-.19,4.99.89,1.69.01,2.96.8,3.88,1.38.88.55,1.71,1.07,3.2,1.3l3.4.54c2.22.35,3.94,1.92,4.37,3.99.07.31.1.62.1.92,0,2.07-1.48,3.73-3.59,4.02Z"/>
  <path class="cls-1" d="M88.71,76.29l.1-.02.09-.11c-.11-.02-.21-.05-.32-.09.04.07.09.14.13.22Z"/>
  <path class="cls-1" d="M65.78,105.8c.2.09.46.31.52-.04-.57-.29-.41-1.24-.77-.71.15-.22-.16.58.25.75Z"/>
  <path class="cls-1" d="M124.87,72.78c-.05.08.2.21.26.28.15.18-.42.07-.39.45.29.03.53-.06.76-.11-.02-.4-.35-.9-.63-.61Z"/>
  <path class="cls-1" d="M117.69,79.37c.02.31.38.11.48.27.04.06-.08.26,0,.29.18.08.38-.28.38-.44,0-.13-.86-.45-.85-.12Z"/>
  <path class="cls-1" d="M86.5,73.16c-.01.49.95-.05,1.52-.04.05-.32-1.51-.22-1.52.04Z"/>
</svg>