<?xml version="1.0" encoding="UTF-8"?>
<svg id="Camada_1" data-name="Camada 1" xmlns="http://www.w3.org/2000/svg" viewBox="0 0 190.28 173.89">
  <defs>
    <style>
      .cls-1 {
        fill: #1d1d1b;
        fill-rule: evenodd;
      }
    </style>
  </defs>
  <path class="cls-1" d="M92.42,70.2c.33-1.23,1.05-2.48,2.4-2.92,2.57-.83,4.51,1.42,4.67,3.45.09,1.1-.5,1.94-.92,3.09,1.18-.96,1.62-2.7,1.22-4.23-.39-1.5-1.73-2.58-3.26-2.9-2.1-.44-3.8.56-4.41,2.58-.42,1.4-.55,2.81.47,4.04.27.32.39,1,1.06.87-1.28-1.02-1.65-2.44-1.24-3.98Z"/>
  <path class="cls-1" d="M96.77,74.29c1.16-.37,1.87-1.58,2.14-2.66.37-1.49-.41-3.2-1.79-3.89-.76-.39-1.81-.33-2.54-.12-1.12.33-1.11,1.44-1.27,2.31-.08.46-.62.67-.58,1.36.11,1.91,1.97,3.68,4.04,3.01ZM95.35,69.58c-.35.16-.73-.05-.92-.33-.28-.39-.1-.89.42-1.12.49-.22.85.09.96.44.14.42-.06.83-.46,1.01Z"/>
  <path class="cls-1" d="M90.83,80.16c1.32,1.12,3.1,1.32,4.73,1.4.08,0,.18-.38.1-.34-.01,0-2.04-.33-1.99-.32-1.01-.07-1.75-.6-2.84-.73Z"/>
  <path class="cls-1" d="M89.06,77.17c.66.62,1.19,1.45,2.08,1.81,2.86,1.14,5.2,1.84,8.42.56,1.89-.75,3.73-3.61,4.23-5.33,1.08-3.68.19-8.09-2.94-10.39-2.07-1.53-5.47-2.12-8.04-1.29-4.26,1.38-7.42,6.42-5.8,10.88.11,1.52.95,2.74,2.05,3.76ZM89.46,69.29c-.08,2.09.26,4.28,1.74,5.71,1.23,1.19,2.99,1.81,4.6,1.65-.33-.7-1.01-.08-1.49-.27-2.61-1.05-3.85-2.31-4.12-5.31-.25-2.76,1.84-5.38,4.67-5.64-2.59.8-4.54,3.12-4.15,5.86.24,1.71,1.06,3.34,2.76,3.77-1.51-1.24-2.39-2.74-2.26-4.53.12-1.69,1.21-3.48,2.93-4.05,1.87-.63,4.43-.02,5.46,1.59.77,1.21.97,2.79.67,4.15-.23,1.02-.94,1.68-1.51,2.45.44.08.6-.38.84-.59,1.08-.96,1.37-2.19,1.29-3.58-.13-2.09-1.22-3.69-3.2-4.67,1.67.13,2.9,1.37,3.49,3.03,1.1,3.09-.44,6.2-3.39,7.47,1.13.18,1.86-.7,2.55-1.42,1.6-1.68,1.84-4.01,1.61-6.38,1.43,3.35-.2,7.18-3.45,8.65-1.9.85-3.98.51-5.78-.29-3.17-1.39-4.1-4.61-3.24-7.58ZM88.42,72.09c.65,2.9,2.54,4.95,5.42,5.76,4.37,1.23,8.38-1.76,9.07-6.27.43,1.87-1.05,4.47-2.52,5.55-3.5,2.59-8.45,2.05-11.01-1.67-.4-1.1-1.16-1.97-.97-3.37Z"/>
  <path class="cls-1" d="M98.2,95.92c-.26.01-.25.36-.13.46.06.05.17,0,.31.05.34.3-.42.48-.31.71.18.35.78-.19.75-.43-.03-.3-.24-.81-.63-.8Z"/>
  <path class="cls-1" d="M86.01,87.39l.15-.04-.16-.04s0,.05.01.08Z"/>
  <path class="cls-1" d="M95.17,92.16c.42.24.73-.03.97-.16.32-.16.44-.53.29-.95-.49.24-.8.65-1.27,1.1Z"/>
  <path class="cls-1" d="M104.22,83.77c-.93.68-1.73,1.52-2.78,1.98-4.25,1.85-8.8,1.82-12.92-.28-1.04-.53-1.91-1.28-2.76-1.99-.88-.73-1.4-1.68-1.99-2.6-1.04-1.61-1.77-3.23-2.15-5.11-.42-2.09-.69-4.09-.49-6.27-.79,1.46-.37,3.04-.27,4.55.3,3.1.98,4.73,2.56,7.31.93,1.51,2.04,2.66,3.38,3.71,1.03.81,1.85,1.52,3.15,1.88,2.2.62,4.43,1.34,6.68.94,2.9-.51,5.45-1.53,7.65-3.5,3.26-2.92,5.44-6.12,5.72-10.73-.82,1.95-1.02,4.1-2.24,5.98-1.04,1.59-2.09,3.07-3.54,4.13Z"/>
  <path class="cls-1" d="M108.66,58.26c-1.31-1.33-2.83-2.24-4.41-3.16-1.16-.68-2.44-1.04-3.74-1.36-.77-.19-1.32-.64-1.94-1.11l-1.2-.9c-.3-2.52-.31-4.96-.29-7.53l.1-11.65.27-6.68c.05-1.2-3.82-1-4.69-.54-.29,2.82-.02,5.51-.13,8.29-.03.8-.02,1.52-.02,2.32l.04,11.62c0,1.41.12,2.82-.28,4.2-3.08,2.72-3.85,1.17-8.19,4.26-1.01.72-1.95,1.34-2.77,2.34-1.83,2.23-3.18,4.7-4.17,7.46-.79,2.18-1.07,4.46-1.2,6.8-.1,1.7.48,3.28.52,4.94.04,1.71-.66,3.31.69,4.67.55.56.4,1.16.47,1.88.1,1.04,1.23,1.77,1.72,2.6.33.56,0,2.6,1.2,2.9.55.14.87.52,1.31.82,1.73,1.16.06,1.82,2.27,3.2.61.38,1.14.76,1.95.65,2.21-.29,1.31,2.24,3.14,2.68.71.17,1.3-.04,1.91-.59l.11,2.84-.02,4.63c0,.91.05,1.78.02,2.69-1.18.85-2.01,2.08-1.93,3.54.04.76-.44,1.22-.67,1.81-.9,2.3.04,4.64,1.41,6.46.47.62.59,1.44,1.7,1.35.24,1,.1,1.89.17,2.9.21,3.08.37,6.07.18,9.2-1.27-.23-2.14-1.97-2.76-1.63-.52.29.48,2.79.5,2.93.25,1.62.78,3.06,1.18,4.64l1.62,6.47c.1.4,1.14,5.29,1.79,4.63.07-.08.18-.28.2-.42.26-1.92,3.47-11.23,2.83-11.63-.11-.07-.33.12-.6-.03,1.78-1.16,1.11-2.74,2.62-5.96.1-.21.05-.53-.08-.6-.51-.28-1.67,1.2-2.55,1.43l.03-2.07c1.3-.59,1.79-1.64,2.32-2.73.72-1.46,1.18-3.12.23-4.7-.41-.68-.13-1.73-.6-2.43-.62-.91-1.65-1.36-2.49-2.07l-.27-8.28c4.23-.17,4.04-5.82,4.57-7.73.47-1.68.99-3.18.19-4.99,1.07.06,1.28-1.32,1.83-1.46,1.14-.29,1.61-.78,2.26-1.61.63-.8,2.07-1.01,1.87-2.54-.05-.35.38-.97.75-1.11.78-.31,1.21-.88,1.62-1.58.29-.49,2.65-2.79,3.17-3.34.37-.39.06-1.25.31-1.67,1.01-1.7,1.02-3.35.84-5.24-.17-1.85,1.84-6.58-.48-12.64-1.01-2.64-2.46-5.17-4.45-7.18ZM96.36,26.18c.2,1.18.04,2.39-.01,3.63l-.1,2.2c-.04.92.08,1.74.04,2.67l-.08,1.75-.02,4.25-.16,3.88c-.07,1.76.23,1.9-.26,3.72-.14-2.24.03-4.33,0-6.53l-.11-7.08c-.04-2.46.05-4.79.46-7.22.07-.43-.31-.96.25-1.27ZM95.07,26.04c0-.19.11-.27.2-.29.18-.03.26.03.28.26.14,2.19-.36,5.55-.35,8.49l.02,4.95-.09,6.49c-.01,1.01.12,1.89-.05,2.81-.06.32.49.84-.25,1.03.12-1.78-.11-3.43-.14-5.21l-.2-11.99.18-2.32c.11-1.43.42-2.78.41-4.2ZM93.25,38.69c-.1-4.27-.05-8.5.17-12.77.28-.25.84-.22,1.14-.2.28,1.34-.03,2.57-.21,3.89-.34,2.58-.26,5.1-.25,7.72l.05,8.8-.06,3.5c0,.08-.21.26-.26.23-.2-.08-.12-8.45-.08-9.37-.81.8-.03,2.94-.46,3.77l-.19-1.65c-.12-1.03.12-2.06.17-3.08,0-.14.28-.26.3-.37.03-.17-.31-.26-.32-.46ZM93.16,44.36c.42,1.18.25,2.3.19,3.4-.06-.71-.47-3.27-.19-3.4ZM83.78,92.36c.37-.33.1.37,1.84-.48-.43.91-2.39.97-1.84.48ZM84.88,93.32c.43-.48.96-.9,1.46-.82-.33.76-.86.88-1.46.82ZM90.19,116.58c-.27-.04-.64-.69-.38-.88.3-.21.76-.11,1.07-.11-.15.34-.56.08-.73.68.38.25.52-.31.98-.22,0,.55-.58.58-.94.53ZM91.87,118.6c-.16.25-.95-.33-.76-.79.08-.19.38-.09.5-.05.19.07.44.42.26.84ZM90.67,133.61c-.13-.02.04-.38.14-.31.72.46,1.48,1.05,1.53,2-.4-.15-.85-.36-1.11-.66.18-.68-.86-1.07-.57-1.02ZM94.34,145.81c-.09.15.26.39.25.52-.02.16-.29.53-.43.35l-.62-1.91c-.16-.48-.05-1.06-.37-1.44-.06-.07-.25-.11-.27-.19-.01-.05-.02-.13.06-.12h.36c.13-.26-.29-.34-.63-.54.12-.26.41-.08.68-.21-.28-.31-.69-.34-.82-.76l.78.02c-.09-.38-.47-.4-.8-.71.36-.2.62.21.92-.05-.51-.47-1.22-.5-1.31-1.24.54.05.84.47,1.32.18-.43-.37-1.45-.72-1.52-1.13-.13-.86,1.43.93,1.93.46-.65-.9-1.69-.84-2.22-1.82-.32-.47,2.51,1.96,2.14.64-.02-.08-.13-.15-.27-.24l-2.1-1.23c-.1-.06-.14-.15-.19-.21-.07-.08-.06-.13.04-.15.55-.12,1.22,1.09,2.57,1.11-.05-.37.07-.8-.02-1.07-.14-.25-.7-.17-.78-.59.43,0,.65.27,1.07.43l-.09,9.27c.54-.02.6-.43.91-.65.17.59-.36.86-.61,1.28ZM94.48,143.35c.3-.64.75-.93,1.31-1.29-.2.63-.69,1.12-1.31,1.29ZM94.53,141.44c.4-.67,1.04-1.03,1.67-1.44-.36.69-.91,1.13-1.67,1.44ZM94.87,139.55c.52-.7,1.05-1.36,1.89-1.72-.49.69-1.07,1.22-1.89,1.72ZM95.17,136.69c-.33-.04,2-2.25,2.15-1.81-.67.77-1.37,1.17-2.15,1.81ZM97.71,132.03c.09-.07.25-.1.32-.08.08.03.07.17,0,.44l-2.08,1.63c.04-.49.33-.83.69-1.12l1.07-.87ZM97.59,122.89c.06-.37.92-.54,1.21-.31.01.13-.18.25-.23.32-.06.09-.08.35.09.33.25-.02.43-.04.49.07.1.17.17.34.08.55-.07.14-.31.02-.6-.01-.38-.03-.41.39.1.37l.46,1.25-1.13.03c.04.33.41.25.57.55-.34.18-.68-.06-.99.16.1.4.47.48.49.84-.04.14-.33-.06-.4.01-.15.15,0,.41,0,.65-.5.03-.84-.4-1.44-.29.05.49.51.73.77,1.05.06.08-.13.29-.22.27-.35-.08-.62-.36-.81-.31-.16.04-.13.25-.08.33.05.07.13.13.21.29-.26.04-.46-.15-.56-.07-.22.18-.22.58.13.74.14.07.23.11.32.18.04.03-.02.15-.07.21-.05.05-.22-.12-.33.03-.18.29.5.19.23.52-.27.34-1.1-.07-.9.38.04.09.17.18.27.23.34.17.45.56.2.83-.14.15-.38.11-.84.07.5.48.27,1.08.18,1.59-.08.39-.17,1.52-.79,1.23-.99-.46-1.78-1.4-2.76-1.93-.47-.25-.82-.73-.8-1.25.86.25,2.57,2.3,3.37,2.38.74.07.56-1.07.4-1.53-.38-1.04-.47-2.03-.04-2.96,1.14-2.51,2.58-1.91,3.42-6.8ZM93.5,115.32l.17-2.66c.76,2.33.2,5.35.72,7.67.53-2.55-.33-5.2.27-7.48.59,2.56.41,4.9.48,7.32.06,2.17.15,4.25-.3,6.45-.38-2.04.19-3.86-.35-5.9-.4.79-.1,1.58-.17,2.41l-.46,5.59c-.26-2.17.27-4.23-.14-6.36-.41.78-.07,1.56-.13,2.34l-.25,2.97c-.09,1.12.06,2.21-.4,3.22l-.2-8.32v-5.12c0-1.53-.18-3,.26-4.43.3,1.25.16,2.34.27,3.6.44-.34.22-.87.24-1.31ZM95.57,124.72v-8.86c.21.91.27,1.84.29,2.83l.07,3.73c-.37.75-.05,1.51-.36,2.3ZM99.12,106.05c-.17.09-.39.11-.48.26-.06.1.24.39.02.53-.23.15-.48-.25-.51-.42-.08-.38.76-1.03.67-.99.15-.07.38-.02.45.13.07.15.06.37-.15.48ZM101.93,93.19c-.56.23-1.09-.2-1.27-.73.46.01.69-.05.74-.11.09.16.12.28-.23.54l.76.3ZM106.8,86.84c.2.55.73.42,1.22.55-.67.47-1.28-.06-2.11-.32.25,1.01,1.26,1.12,2.14,1.04-.04.37-.27.75-.49.93-1,.79-2.07-.65-2.66-.6.17.57.83.7,1.11,1.28-.72.47-1.04-.24-1.47-.69-.29,1.31,1.74,1.42,1.59,2.23-.05.25-.29.68-.72.6-.42-.07-1.02-.27-1.28-.63-.37-.5.01-1.14-.15-1.76-.57.39-.99,1.54-.44,2.11.4.42,1.18.46,1.52,1.01-1.08.6-2.51.1-3.12-.93-.21-.35.14-.82-.21-1.24-.73,1.16-.56,1.58-.41,1.84-.16-.07-.62-.1-1.33.1.3.97,1.09,1.35,1.86,1.82-.44.17-.76-.2-1.18-.22-.2-.01-.31.55-.13.52.13-.01.21-.2.26-.24.14-.11.11.13.22.32.09.16.14-.14.21-.14.19,0,.13.15.15.22.26.78-1.88.24-2.43-1.81-.48.68.35,1.26.46,1.85l.27,1.37c.14.72.99,1.37.85,2.23l-.49.64c.43.18.65.42.58.73-.18.86-2.14.67-.41.96-.05.27-.34.13-.5.11-.69-.09.26-2.04-.64-3.09-.25.22-.16.74-.47.64-.11-.04-.17-.27-.24-.32-.12-.09-.28-.03-.43.11-.14.12.29.79.34.81.08.04.27-.05.42-.05.14.34.14.84-.1,1.29-.14.26-.64.28-.94.58-.16.16.16.37.25.32.08-.04.32-.14.48-.09.34.12-.17.43-.25.63-.08.21.29.45.13.58-.64.55-1.33-.05-1.14.42.13.32,1.88.69.32.65h-.43c-.07-.01-.14.12-.11.23.07.3.63.36.67.38.08.03-.1.37-.19.33-.36-.17-.78-.46-1.18-.19.24.39.76.35.8.73-.25.08-.48-.03-.66-.05-.12-.01-.06.21-.11.39-.26-.1-.35-.25-.61-.4-.07.24-.19.47-.19.7.38.1.82.33.88.69.01.07-.17.19-.18.24-.02.11.04.13.16.16.15.03.08-.23.16-.29,1.39-1.05,2.45-2.37,2.73-4.12.37.12.65.16.61.57-.02.19.06.46-.17.65-.08.07.04.31.02.39-.03.12-.29.17-.38.33.27.28.48.96.05,1.07-.24.06-.51-.16-.69-.03-.18.12-.22.42-.4.58l-2.46,2.27c.48.2,1.89-1.21,2.28-.97.13.08.47.23.23.4-.12.08-.4-.01-.41.04l-.08.38c-.24.06-.52.43-.74.46-1.14.15-2.04.63-3.06,1.21.63-1.06,1.6-1.54,1.96-2.66-.69.35-1,1.04-1.59,1.5-1.19.91-2.02,2.1-2.35,3.58-.1.46-.48.85-.44,1.5-.41-.84-.07-1.64.26-2.34l.43-.92c.49-1.07.96-1.68,2.05-2.43-2.47.21-2.38,2.85-3.66,3.25.36.26.46.44.44.65-.02.34-.03.69-.41.68-.14,0-.24-.07-.3-.04-.12.07-.24.24-.18.32.08.11.36.12.48.19.31.17.11.63.05.85-.08.28-1.25.81-1.33.56-.05-.17-.13-.56.03-.54.31.02.52.07.74-.03.25-.12.48-.34.36-.72-.32.13-.64.4-.97.08.18-.17.46.18.67-.28-.2-.17-.66.07-.69-.19-.07-.63.55-1.06.6-1.65.06-.74-.04-1.48.34-2.16.26,0,.42.23.68.12-.14-.39-.31-.6-.17-.9.02-.04.91-.74,1.01-.87.13,0,.34.07.39,0,.17-.25.21-.52.51-.62.7-.22.49.49,1.1.26.07-.03.12-.1.03-.26-.03-.07-.07-.1-.28-.27.24-.58.6-1.13,1.02-1.65,2.52-3.11,1.06-5.56,2.43-5.61-.31-.1-.52-.29-.73-.61.13-.25.55-.13.61-.43-.34-.11-.49-.11-.6-.16-.19-.08-.31-.25-.22-.44.19-.44.79-.19.58-.48-.3-.39-1.03.19-1.38-.46-.11-.19-.49-.4-.25-.71.14-.18.33-.29.45-.31.17-.03.29.13.35.23.14.22-.15.38-.35.56l1.17.22c.13-1.12-.49-1.79-1.13-2.5-.81-.89-1.48-1.89-2.84-2.12-.08.49-.18,1.01-.17,1.49.47,0,.32-.6.49-.76.41-.04.48.56.36.85-.15.35-.65.65-1.08.42l-2.67-1.38c-.09-.05-.03-.31-.18-.31-1.17,0,.65.87.94,1.31.62.96,1.79.57,1.93,1.29.05.25-.02.56-.37.59,0-.29-.04-.85-.35-.66-.13.08-.14.45-.17.56-.03.11-.31.27-.42.07-.13-.24.16-.8-.21-.82-.15.02-.24.4-.39.55-.14.13-.5-.06-.67.14-.1.12.3.31.25.42-.23.5-1,.47-1.55.37.13-.35.35-.34.52-.39-.19-.17-.45-.12-.53-.5.45-.12.85-.02,1.05-.29.29-.39.65-.69.4-1.24-.28.6-1.87,1.54-2.06.78-.09-.35.05-.77.54-.58.15.08-.22.36-.17.5.29.24.69.12.91-.14.15-.19.39-.46.27-.85-.23.07-.57.35-.76.26-.22-.35.34-.33.44-.47.15-.22-.13-.54-.33-.67-.23,1.11-2.25,1.77-2.44,1.6-.46-.4,1.82-.39,1.61-1.28-.53.06-.73.66-1.16.39.37-.65,1.04-.77,1.3-1.4-.68.01-1.25.32-1.88-.07.12-.57.79-.54.95-1.02.07-.19-.17-.5-.23-.48-.13.06-.06.28-.2.46-.01-.33-.42-.33-.65-.37-.13-.29.19-.77-.22-1.02-.54,1.01-1.74,1.86-2.88,1.19.73-.27,1.47.33,1.78-.65-.66.14-1.19.42-1.87.05.42-.63,1.5-1.44.74-2.25-.13.61-.36,1.11-.8,1.44-.48.37-1.19.48-1.84.08.88-.05,1.94-.23,2.09-1.31-.69.68-2.61,1.26-2.57.44,0-.17,1,.12.7-.25-.12-.15-.29-.02-.5-.02-.42,0-.35-.72-.19-1.06.16-.33.74-.43,1.13-.16.79.56,1.13-.28,1.73-.34.34-.03.13.32.87.87-.04-.03,3.26-.87,4.18,2.86.3,1.22,2.28,1.04,3.14.39.69-.52,1.55-.28,2.3-.28.13.47.02.8.08,1.21.41-.13.48-.52.79-.77.37.36-.2.8-.08,1.16.13.4.63-.03.83-.23.26-.28-.03-.59.09-1.07.77.46,3.36,1.85,3.6,1.01.03-.11-.23-.22-.37-.51.62-.22,1.11-.5,1.59-.95.53-.49,1.34-.46,1.98-.73.6-.25,1.05-.69,1.63-.86.04.26-.24.43.02.72,2.25-4.04,3.44-2.06,5.46-3.5.21-.15.78.25.75.48-.87,1.32-2.06.77-3.51.96ZM94.96,93.87c-.13.29-.81.35-.45.78.18.22.81-.52,1.01-.13.14.29-.46.76-.72.76-.43-.57-1.03-.97-1.57-1.48.42-.19.64-.55.88-.87.22.05.36.29.33.44-.04.21-.3.29-.46.55.33.21.6-.2.98-.05ZM94.21,104.1c-.37-.87-.04-4.37.21-5.55.06.66.77,5.26-.21,5.55ZM93.37,97.84c.07.35.86,9.37-.59,6.75-.15.25-.02.97-.42.98-.44-.05-.31-.79-.32-1.15-.09-2.44-.05-4.77.4-7.09l.32,3.78.62-3.26ZM91.51,89.32c-.95-.19-2.02-.3-2.73-1.07-.1.04,3.77.87,2.95.81.1,0-.07.28-.22.25ZM111.81,80.78c-.72,1.74-1.71,3.36-3.26,4.5-.13.1-.35.04-.49-.02-.12-.05-.05-.18.1-.39l1.81-2.44c2.81-3.78,3.76-12.61,1.21-17.27.69,3.42,1.55,6.35.89,9.87-.61,3.3-1.78,6.25-3.94,8.77-1.38,1.61-4.65,3.97-6.67,4.65-2.12.72-1.29.99-3.16,1.25-.57.08-1.11.36-1.71-.04,1.64-.39,3.48-.62,5.02-1.56l2.23-1.36c1.59-.97,2.82-2.42,4.13-3.79,2.99-3.13,3.88-9.1,3.3-13.38-.48.37-.12.88-.06,1.32.04.31-.11.55-.12.88-.08,3.34-.68,6.76-2.66,9.55-1.59,2.24-3.63,4.17-6.09,5.58-2.07,1.19-4.41,1.45-6.63,1.7-1.23.14-2.33-.17-3.46-.34-2.04-.3-3.71-1.11-5.38-2.22-1.42-.94-2.59-1.89-3.61-3.3-2.53-3.52-3.67-7.69-3.47-12.06.06-1.29.35-2.46.69-3.66.02-.06-.21-.24-.24-.2l-.19.22-.66,3.56c-.24,1.28.02,2.63.13,3.93.24,2.95,1.34,5.53,2.91,7.97,1.75,2.72.62.97,3.06,3.43-.43.15-.77-.05-1.22.01-1.49-1.38-2.77-2.88-3.66-4.77-3.29-6.98-2.79-12.27.5-19.34-1.14,1.09-1.48,2.62-2.16,3.99l-.82,4.04c-.16.79-.23,1.59-.23,2.44,0,4.62,1.61,9.04,4.32,12.72.22.3.56.37.72.66-1.51,1.39-4.5-4.93-4.88-5.96-.46-1.23-.68-2.52-.98-3.78-.63-2.65-.2-7.63.82-10.13.94-2.33,1.95-4.58,3.56-6.51,1-1.19,2-2.29,3.35-3.05.88-.5,1.67-1.04,2.6-1.45,1.21-.54,2.66-.64,3.78-1.3.79-.47,1.19-.91,2.25-.83,1.41.12,2.88-.12,4.23.3-.79.33-1.59-.16-2.25.5,6.39.55,12.05,3.08,15.31,8.75,1.49,2.6,2.54,5.6,2.73,8.64.17,2.62-.69,7.59-1.66,9.93Z"/>
  <path class="cls-1" d="M95.14,4.42C49.56,4.42,12.61,41.37,12.61,86.95s36.95,82.53,82.53,82.53,82.53-36.95,82.53-82.53S140.72,4.42,95.14,4.42ZM115.87,76.27c-.1.61-.22,1.37-.2,1.61.17,1.83.25,3.96-.94,6.18h0c0,.54,0,1.53-.76,2.35-.16.17-.47.49-.85.87-.59.59-1.79,1.8-2.08,2.17-.45.76-1.04,1.57-2.03,2.13-.12,1.76-1.42,2.65-2.02,3.07-.12.08-.27.19-.33.24-.67.85-1.4,1.66-2.79,2.14-.12.18-.28.4-.49.63.21,1.59-.18,3-.52,4.19l-.1.35c-.07.25-.14.75-.21,1.23-.32,2.15-.93,6.26-4.22,7.59l.18,5.55s.03.02.04.03c.67.46,1.5,1.02,2.13,1.95.55.81.63,1.68.68,2.26.01.12.02.28.04.37,1.64,2.85.25,5.67-.21,6.6l-.05.1c-.11.22-.22.46-.36.7,1,.74,1.16,2.16.69,3.14-.53,1.13-.75,2.03-.94,2.83-.18.75-.37,1.55-.81,2.31.07.87-.18,1.89-.43,2.88-.34,1.37-.84,3.07-1.32,4.71-.51,1.73-1.08,3.7-1.16,4.29-.08.58-.38,1.19-.78,1.59-.43.44-1.01.69-1.61.69h0c-2.13,0-2.77-2.31-3.63-6.08l-.04-.19-1.62-6.47c-.13-.51-.27-1-.42-1.52-.29-.99-.58-2.02-.77-3.14,0-.02-.02-.04-.03-.07-.56-1.62-1.42-4.07.54-5.16.36-.2.77-.31,1.19-.31.21,0,.4.03.58.07-.03-1.8-.13-3.58-.25-5.38-.03-.43-.03-.83-.02-1.19,0-.09,0-.17,0-.26-.7-.45-1.07-1.09-1.28-1.45-.05-.09-.12-.2-.15-.25-2.12-2.81-2.72-5.82-1.69-8.47.13-.33.28-.59.4-.81.04-.08.1-.17.13-.24-.06-1.66.64-3.26,1.94-4.52,0-.19,0-.38-.01-.57,0-.38-.02-.76-.02-1.15l.02-4.58v-.18c-.15-.02-.29-.05-.43-.08-1.81-.44-2.45-1.87-2.76-2.61-.05,0-.11,0-.16,0-1.22,0-2.06-.53-2.67-.92l-.11-.07c-1.73-1.08-2.12-2.18-2.28-3.2-.01-.01-.03-.02-.05-.03-.2-.13-.37-.27-.51-.38-.07-.05-.16-.13-.21-.16-2.15-.58-2.4-2.81-2.51-3.77,0-.07-.02-.16-.03-.23-.09-.12-.22-.26-.34-.38-.6-.66-1.41-1.57-1.55-2.91-.02-.22-.03-.44-.04-.64,0-.05,0-.1,0-.15-1.49-1.65-1.31-3.54-1.19-4.8.04-.4.07-.78.07-1.12-.01-.59-.12-1.21-.24-1.88-.17-.96-.35-2.05-.29-3.23.12-2.05.37-4.75,1.32-7.39,1.11-3.07,2.59-5.71,4.52-8.07.92-1.12,1.93-1.84,2.9-2.53l.27-.2c2.45-1.74,3.96-2.2,5.17-2.57.88-.27,1.46-.44,2.36-1.15.11-.68.1-1.43.08-2.26,0-.26,0-.52-.01-.78l-.04-12.03c0-.67,0-1.29.02-2,.04-1.06.03-2.1,0-3.21-.03-1.67-.05-3.41.13-5.21l1.1-1.63c1.05-.56,2.8-.6,3.31-.6,1.75,0,2.96.38,3.7,1.15.5.52.76,1.2.73,1.92l-.27,6.65-.1,11.62c-.02,2.25-.02,4.32.18,6.39l.63.48c.47.36.75.56,1.02.63,1.32.32,2.86.73,4.31,1.59,1.55.91,3.3,1.94,4.84,3.49,2.05,2.08,3.7,4.73,4.91,7.9,1.88,4.92,1.21,9.09.81,11.57Z"/>
  <path class="cls-1" d="M84.65,80.22c2,2.73,3.55,4.6,6.79,5.56,2.57.76,5.07.73,7.57-.14,4.26-1.48,6.5-3.9,8.29-7.68l-.9.98c-1,1.93-2.51,3.31-4.28,4.56-2.76,1.95-6.09,2.44-9.42,1.86-1.89-.33-3.72-.76-5.07-2.19-3.52-3.72-5.11-6.42-4.94-11.69-.47.88-.16,1.84-.32,2.78.22,2.17.98,4.17,2.29,5.96Z"/>
  <path class="cls-1" d="M89.69,83.27c2.26,1.46,4.93,1.61,7.63,1.24,1.87-.26,3.67-1.07,5.04-2.39.5-.48,1.15-.72,1.43-1.33-1.11.46-1.74,1.19-2.67,1.72-3.4,1.93-7.59,2.18-11.07.39-2.89-1.49-5.54-6.1-5.92-9.24-.38,3.74,2.61,7.7,5.56,9.61Z"/>
  <path class="cls-1" d="M100.19,81.66c-6.18,1.72-9.93,1.09-13.77-4.34,2.22,5.27,8.85,7.44,13.77,4.34Z"/>
</svg>